<?xml version="1.0" encoding="UTF-8"?>
<svg id="Layer_2" data-name="Layer 2" xmlns="http://www.w3.org/2000/svg" viewBox="0 0 1225.2 711.56">
  <defs>
    <style>
      .cls-1 {
        fill: #00f9c1;
        stroke-width: 0px;
      }
    </style>
  </defs>
  <g id="Layer_1-2" data-name="Layer 1">
    <path class="cls-1" d="M0,711.56V0h1225.2v711.56H0ZM1216.98,703.75V7.95H8.63v695.8h1208.36Z"/>
    <path class="cls-1" d="M61.26,645.55V65.89h1102.49v579.66H61.26ZM1159.29,321.65V69.98H65.8v251.67h1093.49ZM65.65,641.52h559.52v-187.44H65.65v187.44ZM892.22,326.1H65.67v123.46h826.55v-123.46ZM630.03,641.61h529.28v-187.55h-529.28v187.55ZM897.05,449.54h262.25v-123.52h-262.25v123.52Z"/>
    <path class="cls-1" d="M769.4,125.85h20.71c1.18.95.55,2.13.75,3.81h-16.75v127.74h-26v-127.47h-33.24v127.62h-12.75c-.74-1.24-.69-2.3.03-3.75h8.18v-127.83h42.04v127.39h17.02v-127.52Z"/>
    <path class="cls-1" d="M702,265.36c-.62-1.06-.57-2.11.16-3.57h16.18v-127.81h26.05v127.4h33.02v-127.35h12.92c.84.81.59,1.93.25,3.2-2.45,1.16-5.19-.02-8.28.86v127.31h-42.19v-127.47h-17.13v127.42h-20.97Z"/>
    <path class="cls-1" d="M595.73,257.55h-55.42v-59.9h29.3v-67.79h-75.33c-.9-1.62-.89-2.67-.22-3.94h80v75.73h-29.24v51.84h46.52v-115.26c-2.48-1.32-5.44.15-8.14-.88-.83-.98-.59-2.05-.1-3.39h12.63v123.59Z"/>
    <path class="cls-1" d="M918.42,125.92h71.42v139.63h-71.42V125.92ZM922.87,129.86v131.6h62.44v-131.6h-62.44Z"/>
    <path class="cls-1" d="M900.64,189.6v75.95h-71.29V125.97h41.84v63.63h29.45ZM833.88,129.83v131.68h62.27v-67.9h-29.51v-63.78h-32.76Z"/>
    <path class="cls-1" d="M413.6,265.49V126.06h71.46v139.43h-71.46ZM418.18,129.92v131.44h62.4v-131.44h-62.4Z"/>
    <path class="cls-1" d="M621.74,125.85h71.02v139.6h-71.02V125.85ZM626.21,129.84v131.62h62.04v-131.62h-62.04Z"/>
    <path class="cls-1" d="M183.77,228.24c1.78-.62,2.92-.62,4.29-.14v37.41h-71.26V125.96h71.2v37.24c-1.32.91-2.55.48-4.1.14v-33.33h-62.69v131.43h62.56v-33.21Z"/>
    <path class="cls-1" d="M175.64,228.59c1.75-1.12,2.98-.98,4.45-.41v29.2h-55.33v-123.27h55.28v29c-1.19,1.04-2.52.78-4.22-.05v-25.07h-46.46v115.49h46.27v-24.88Z"/>
    <path class="cls-1" d="M299.4,261.72h15.54c1.15,1.24.94,2.34.49,3.75h-20.55V126.01h71.37v37.06c-1.15,1.19-2.46.45-4.18.54v-33.68h-62.67v131.79Z"/>
    <path class="cls-1" d="M1045.09,129.68h-46.04c-.98-1.35-.77-2.42-.28-3.73h50.46v63.43h46.86v-51.16c-2.39-1.17-5.13,0-7.75-.71-1.38-1-.41-2.23-.66-3.6h12.99v59.65h-55.58v-63.88Z"/>
    <path class="cls-1" d="M1071.1,197.89v63.77h45.82c.99,1.51.86,2.56.31,3.85h-50.46v-63.43h-46.85v51.43h7.03c2.03,1.25,1.11,2.53,1.62,3.95-4.53.47-8.77.39-13.21.05v-59.63h55.74Z"/>
    <path class="cls-1" d="M510.65,193.43v-59.34h55.38v59.34h-55.38ZM561.75,137.98h-46.76v51.36h46.76v-51.36Z"/>
    <path class="cls-1" d="M1036.53,137.66h-37.55c-.85-1.39-.77-2.44-.16-3.73h42.2v59.55h-29.21v63.74c-4.58,1.06-8.68.22-12.46.56-1.45-1.18-.9-2.34-.81-3.51,2.62-1.29,5.61.17,8.58-1.09v-63.3h29.42v-52.22Z"/>
    <path class="cls-1" d="M532.22,201.9h-17.08v51.7h7.16c2.03,1.25,1.01,2.54,1.23,3.92h-12.87v-59.42h25.69v63.5h75.22c1.77,1.35.96,2.54,1.25,3.88h-80.6v-63.58Z"/>
    <path class="cls-1" d="M1079.22,201.76v51.74h37.2c1.7,1.42,1.16,2.58,1.04,3.97h-42.55v-59.67h29.47v-63.83h12.7c.92,1.18.44,2.24.45,3.54-2.87.14-5.48.28-8.58.43v63.83h-29.74Z"/>
    <path class="cls-1" d="M218.02,138.01v24.9c-1.52,1.13-2.77.88-4.27.44v-29.24h25.81v123.42h-12.37c-1.08-1.13-.44-2.22-.65-3.67h8.49v-115.86h-17.02Z"/>
    <path class="cls-1" d="M243.65,133.94h25.35v29.32c-1.27.71-2.5.62-4.07-.08v-25.12h-16.83v115.66h7.74c.99,1.46.84,2.52.3,3.82h-12.49v-123.59Z"/>
    <path class="cls-1" d="M328.64,193.61h-25.75v-59.58h55.32v29.29c-1.44.5-2.67.68-4.16-.33v-25.02h-46.77v51.4h17.05v-25.12c1.76-.64,2.99-.8,4.32.08v29.29Z"/>
    <path class="cls-1" d="M612.27,137.73h-7.94v115.47c2.36,1.25,5.1.09,7.76.72,1.16.99.86,2.2.26,3.62h-12.53v-123.36c3.95-1.02,8.07-.23,12.07-.46,1.36,1.15,1.05,2.36.37,4.01Z"/>
    <path class="cls-1" d="M277.08,163.35c-1.38.49-2.51.48-4.15-.08v-33.32h-62.79v33.02c-1.75.96-2.99.93-4.43.25v-37.16h71.36v37.29Z"/>
    <path class="cls-1" d="M506.51,257.59h-12.17c-1.24-.95-.69-2.12-.61-3.29,2.59-1.38,5.58.16,8.42-1.06v-115.48h-7.77c-1.14-1.4-.87-2.47-.44-3.81h12.57v123.64Z"/>
    <path class="cls-1" d="M328.5,227.54h-3.99v-25.43h-17.2v51.57h7.72c1.01,1.44.93,2.52.31,3.85h-12.49v-59.51h25.66v29.53Z"/>
    <path class="cls-1" d="M332.56,163.95h4v63.11c-1.13,1.23-2.49.51-4,.37v-63.48Z"/>
    <path class="cls-1" d="M1028.2,261.99v3.51h-29.3c-.86-1.12-.6-2.19-.17-3.51h29.47Z"/>
    <path class="cls-1" d="M493.76,265.42v-3.34h29.28c1.05.71.42,1.91.43,3.34h-29.71Z"/>
    <path class="cls-1" d="M1117.49,126.03v3.36h-29.29c-1.07-.73-.41-1.94-.47-3.36h29.75Z"/>
    <path class="cls-1" d="M226.73,265.52v-3.53h29.29c.81,1.16.63,2.22.13,3.53h-29.42Z"/>
    <path class="cls-1" d="M582.87,129.4v-3.38h29.35c1.07.79.47,1.98.42,3.38h-29.77Z"/>
    <path class="cls-1" d="M139.52,581.37c-.07-4.41.46-8.35,2.29-11.99,2.42-4.83,6.4-6.92,11.79-6.55,4.9.33,8.04,3.01,9.65,7.39,2.48,6.78,2.56,13.71.13,20.51-2.09,5.82-6.21,8.4-12.22,8.14-5.21-.23-8.89-3.31-10.53-8.99-.83-2.88-1.26-5.85-1.11-8.5ZM158.65,572.96c-.9-3.82-3-5.93-6.31-5.99-3.67-.07-5.61,2.59-6.6,5.81-1.01,3.31-1.57,6.72-.77,10.92,4.72-3.7,9.1-7.14,13.68-10.74ZM159.07,578.17c-4.83,3.86-9.16,7.32-13.38,10.7,2.34,4.93,4.84,6.63,7.96,5.74,4.74-1.34,7.07-7.9,5.42-16.44Z"/>
    <path class="cls-1" d="M170.09,533.79v-33.96c8.18.48,17.2-2.56,22.52,6.06,4.21,6.82,4.08,14.57-.19,21.39-5.28,8.43-14.06,6.38-22.33,6.51ZM175.21,529.73c5.57.25,10.6-.09,12.95-5.25,2.58-5.65,2.93-11.82-.83-17.1-2.89-4.06-7.56-3.94-12.31-3.15,0,7.77,0,15.23,0,22.69,0,.8.1,1.6.18,2.81Z"/>
    <path class="cls-1" d="M278.34,574.1c-8,7.28-3.24,16.01-5.34,23.34-1.22.76-2.51.31-4.46.2v-22.18c-.59-.07-1.18-.14-1.78-.22-6.54,6.04-2.05,14.56-4.04,22.15-.83,1.01-2.33.37-4.04.23v-25.37c1.79-.63,3.46-1.03,4.09,1.54,5.37-4.29,6.99-4.15,10.57,1.6.35-.85.51-1.49.85-2.02,1.41-2.23,3.5-3.13,6-2.36,2.63.8,3.39,3.14,3.43,5.55.11,6.96.04,13.93.04,20.77-1.49.78-2.73.45-4.16.31-.81-7.61.59-15.13-1.14-23.55Z"/>
    <path class="cls-1" d="M226.42,597.35c-1.93.73-3.54.63-5.4.17-.79-2.03-1.62-4.16-2.51-6.44h-13.72c-.78,2.04-1.6,4.16-2.42,6.31-1.6.69-3.18.64-5.25.02,3.77-11.18,7.5-22.26,11.25-33.41h6.96c3.7,11.12,7.39,22.22,11.1,33.35ZM206.23,585.91c3.88.32,7.09.72,10.68-.33-1.65-5.22-3.23-10.2-5.24-16.56-2.02,6.26-3.62,11.25-5.44,16.89Z"/>
    <path class="cls-1" d="M319.77,508.1q3.6-.1,5.03,2.29c1.34-.87,2.62-1.86,4.03-2.59,4.36-2.24,8.83-1.19,11.54,2.61,3.6,5.05,3.2,15.62-.77,20.31-3.79,4.48-8.92,4.51-14.59,3.79v9.41c-1.77,1.35-3.23.88-4.65.74-.22-.3-.57-.55-.57-.81-.03-11.81-.02-23.62-.02-35.74ZM324.83,529.76c8.29,2.62,12.38-.06,12.78-7.73.07-1.32.06-2.67-.09-3.99-.37-3.23-.99-6.5-4.92-7.12-2.86-.45-7.55,4-7.72,7.28-.2,3.79-.05,7.61-.05,11.55Z"/>
    <path class="cls-1" d="M400.21,533.42c-2.33.79-4.25.85-4.89-2.26-1.48.99-2.74,2.02-4.17,2.75-4.48,2.27-9.16.86-11.6-3.38-6.57-11.42.27-23.59,13.32-23.7.64,0,1.29-.07,2-.11,1.23-3.09-.09-6.33.85-9.39,1.4-.83,2.81-.59,4.5-.13v36.22ZM387.69,530.89c7.61-3.29,8.84-6.56,7.31-18.8-5.24-1.98-9.26-.96-11.18,2.84-2.69,5.35-.93,13.04,3.86,15.96Z"/>
    <path class="cls-1" d="M438.61,532.96v-35.46c1.34-1.15,2.81-.63,4.47-.46.95,4.05.07,8.2.48,12.3.27.11.66.41.81.32,9.67-5.8,16.5-2.21,17.1,9.01.73,13.56-8.27,19.4-22.86,14.29ZM443.49,529.55c7.43,3.1,11.9.72,12.77-6.58.21-1.8.18-3.68-.1-5.47-.51-3.19-1.39-6.93-5.43-6.41-3.67.47-6.83,2.97-7.17,7.19-.31,3.79-.07,7.62-.07,11.28Z"/>
    <path class="cls-1" d="M341,597.63c-2.37.28-4.74,1.08-4.67-2.97-3.78,3.69-7.6,5.58-12.14,3.44-4.54-2.13-5.37-6.47-5.67-10.92-.78-11.4,4-16.03,17.17-16.47,1.31-2.91.06-6.13.79-9.2,1.26-1.2,2.76-.56,4.53-.5v36.61ZM335.93,576.27c-5.29-2.26-9.54-1.15-11.4,2.98-2.66,5.89-.79,13.04,4.05,15.55,7.41-2.91,8.62-5.96,7.35-18.53Z"/>
    <path class="cls-1" d="M235.7,573.82c1.87-.99,2.85-1.57,3.88-2.04,6.57-3.03,12.41.21,12.77,7.38.3,5.97.06,11.96.06,17.84-1.4,1.4-2.91.74-4.42.71-.18-.44-.52-.88-.52-1.33-.06-4.66-.07-9.32-.08-13.99,0-3.21.25-6.7-4-7.43-3.11-.53-7.45,4.08-7.53,7.86-.11,4.81-.03,9.63-.03,14.3-1.65,1.12-3.11.72-5.19.43v-35.92c1.72-1.29,3.19-.56,5.07-.81v13Z"/>
    <path class="cls-1" d="M465.74,545.63v-3.21c.4-.18.82-.49,1.26-.54,7.43-.84,10.31-5.54,7.56-12.37-2.84-7.04-5.67-14.09-8.5-21.15,2.02-.87,3.63-.45,5.45-.39,2.47,6.28,4.9,12.45,7.86,20,2.73-7.35,5.05-13.6,7.33-19.73,1.84-.69,3.45-.38,5.63-.18-3.87,9.91-7.31,19.59-11.42,28.98-3.09,7.07-7.09,9.02-15.16,8.59Z"/>
    <path class="cls-1" d="M223.28,521.84h-17.61c-.45,7.9,2.61,9.43,16.13,8.19.62,1.54,1.32,3.17-1.08,3.81-5.4,1.44-10.92,2.22-15.91-1.05-4.79-3.13-5.33-8.25-4.96-13.36.61-8.51,6.16-13.32,14.13-12.58,6.76.62,10,5.58,9.3,15ZM205.1,517.79c4.81.13,9.01.52,13.46-.24-.58-4.21-2.23-6.82-6.6-6.83-4.37-.01-5.94,2.73-6.86,7.07Z"/>
    <path class="cls-1" d="M371.79,521.83h-17.69c-.31,7.97,2.99,9.62,15.88,8.18,1.28.81.79,1.96.53,3.29-4.09,2.14-8.63,1.99-12.97,1.28-7.35-1.19-11.11-9.59-8.65-18.41,2.12-7.61,9.17-11.4,16.25-8.75,5.31,1.99,7.5,6.51,6.65,14.41ZM366.97,517.78c-.46-4.57-2.2-7.11-6.51-7.04-4.46.07-6.2,2.76-6.57,7.04h13.08Z"/>
    <path class="cls-1" d="M306.22,581.8c-.31-7.3-2.3-7.98-14.33-5.31-.76-1.24-.71-2.46.23-4,1.49-.45,3.19-1.15,4.96-1.46,10.09-1.79,14.38,1.81,14.38,11.97,0,4.81,0,9.61,0,14.35-2.37.86-4.17.92-5.31-1.44-2.63,1.47-5.05,3.14-8.29,3.02-4.99-.19-8-2.33-8.54-6.55-.59-4.6,1.7-7.98,6.21-9.5,3.37-1.14,6.9-.7,10.68-1.06ZM306.1,590.89c.25-1.75.77-3.34-.51-5.1-3.82.56-8.52-1.49-10.81,3.68-.83,1.86-.19,3.79,1.73,4.66,4.17,1.88,6.79-1.08,9.59-3.24Z"/>
    <path class="cls-1" d="M489.83,597.5c-2.19.45-4.23,1.14-4.74-1.86-1.72.02-2.53,1.53-3.83,2.22-6.01,3.18-12.07.09-12.84-6.65-.13-1.15-.14-2.33-.14-3.49-.01-5.15,0-10.31,0-15.38,1.71-.68,3.16-.65,5.07-.06,0,5.02,0,10.15,0,15.28,0,3.25-.05,6.68,4.28,7.19,3.08.36,7.11-3.99,7.19-7.59.1-4.97.03-9.94.03-14.76,1.88-.77,3.32-.71,4.99-.14v25.24Z"/>
    <path class="cls-1" d="M288.25,520.98c.05-9.05,4.82-14.22,13.05-14.16,7.77.05,12.14,5.05,12.13,13.85-.01,8.8-5.06,14.22-13.18,14.17-7.84-.06-12.05-4.92-12-13.86ZM293.33,519.46c-.05,6.56,1.7,9.77,5.33,10.97,3.08,1.02,5.59-.04,7.54-2.42,2.7-3.28,2.83-10.77.23-14.19-1.87-2.46-4.44-3.63-7.47-2.66-4.6,1.47-5.53,5.31-5.64,8.3Z"/>
    <path class="cls-1" d="M377.26,585.02c.05-9.05,4.81-14.23,13.03-14.18,7.78.05,12.15,5.03,12.15,13.83,0,8.8-5.05,14.24-13.16,14.19-7.85-.05-12.07-4.91-12.02-13.84ZM382.3,585.61c.17,2.65.48,5.88,3.43,7.87,3.17,2.14,6.32,1.84,9.04-.93,3.17-3.24,3.51-11.45.49-14.96-2.44-2.84-5.56-3.68-8.94-1.68-3.44,2.04-3.97,5.51-4.02,9.7Z"/>
    <path class="cls-1" d="M345.7,564.28c1.89-.74,3.67-.45,5.75-.2,2.85,5.2,5.77,10.53,9.08,16.55,3.21-5.97,6.02-11.18,8.91-16.55h5.26c-3.87,11.27-15.08,19.78-11.55,32.99-2.06,1.1-3.51.83-5.7.39,3.24-13.42-7.15-22.19-11.74-33.17Z"/>
    <path class="cls-1" d="M425.39,572.3c1.9-.58,3.19-.57,4.78-.11v25.19c-2.35,1.26-3.97.36-5.2-1.87-.95.72-1.69,1.39-2.53,1.91-6.32,3.86-12.92.94-13.52-6.39-.5-6.11-.1-12.29-.1-18.51,1.55-1.08,3.1-.77,5.01-.17,0,5.11-.03,10.26.01,15.41.03,3.25.07,6.69,4.5,6.98,2.88.19,6.94-4.1,7.02-7.28.11-4.98.03-9.96.03-15.16Z"/>
    <path class="cls-1" d="M509.61,574.89h10.55c.88,1.37.84,2.44.12,3.84h-10.73v18.19c-1.83,1.33-3.26.95-5.22.58v-18.49h-7.37c-1.73-1.18-1.19-2.38-1.13-3.57,2.46-1.36,5.25-.03,8.12-.99.88-4.31-.72-9.7,4.21-12.88,4-2.59,8.29-1.67,12.44-1.47,1.42,1.42,1.17,2.79.61,4.14-4.88-1.32-9.31-.86-10.81,1.47-.8,1.25-.91,3.27-1,5-.09,1.72.05,3.16.21,4.18Z"/>
    <path class="cls-1" d="M169.5,571.96h6.12c2.07,2.88,4.27,5.93,6.84,9.5,2.32-3.38,4.35-6.34,6.34-9.24,1.88-.64,3.64-.36,6.11-.18-3.39,4.53-6.43,8.6-9.59,12.83,3.27,4.19,6.41,8.2,9.97,12.75-2.37.11-4.09.19-6.11.29-2.22-3.01-4.47-6.05-7.11-9.62-2.36,3.3-4.52,6.31-6.74,9.41h-6.24c3.48-4.52,6.65-8.63,9.93-12.89-3.11-4.2-6.05-8.17-9.51-12.84Z"/>
    <path class="cls-1" d="M456.95,571.08c1.54,1.71,1.42,2.95.84,4.57-4.35.31-9.45-2.97-13.16,1.76-.22,3.04,1.91,3.74,3.95,4.53,2.47.95,5.09,1.64,7.39,2.9,5.31,2.91,5.28,9.47-.07,12.34-5.32,2.85-10.89,1.96-16.26.78-.71-1.42-.76-2.53-.2-3.81.38-.09.84-.31,1.28-.28,3.14.22,6.19,1.53,9.38.87,1.91-.39,4.22-.61,4.4-3.23.15-2.27-1.7-3.02-3.46-3.67-2.33-.87-4.73-1.56-6.97-2.61-2.9-1.35-4.88-3.52-4.64-7,.24-3.39,2.28-5.36,5.32-6.54,4.07-1.59,8.19-.6,12.19-.61Z"/>
    <path class="cls-1" d="M249.24,508.02h5.42c-3.49,8.76-6.85,17.17-10.15,25.45-2.09.53-3.88.5-6,.04-3.31-8.29-6.66-16.71-10.04-25.17,1.9-.77,3.52-.6,5.56-.2,2.33,6.1,4.73,12.38,7.57,19.82,2.81-7.34,5.18-13.54,7.63-19.94Z"/>
    <path class="cls-1" d="M261.79,500.25c-.43-1.12-.58-2.06.07-3.21h12.25v32.01c2.74,1.53,5.37.13,7.73,1.15.76,1.02.54,2.08.06,3.4h-20.75c-.96-1.05-.63-2.13-.25-3.57,2.53-.12,5.13-.24,8.04-.38v-28.37c-2.2-1.26-4.66,0-7.15-1.03Z"/>
    <path class="cls-1" d="M306.99,387.21c4.87,2.34,6.7,5.71,5.68,10.43-.96,4.44-4.85,7.66-10.22,8.05-3.96.29-7.96.06-12.29.06v-33.86c4.61,0,9.21-.26,13.77.09,3.22.24,6.3,1.67,7.3,5.14,1.17,4.07.13,7.6-4.25,10.1ZM295.03,390.14c0,2.07-.09,3.87.02,5.66.12,1.91-.57,3.93.56,5.7,8.42.67,12.08-1.17,11.9-5.94-.16-4.35-4.02-6.14-12.48-5.43ZM295.22,385.65c4.02.15,7.75.81,10.35-2.61,1.19-1.57,1.33-3.61-.07-5.05-2.87-2.96-6.52-2.32-10.28-1.89v9.55Z"/>
    <path class="cls-1" d="M692.99,387.18c5.01,2.46,6.76,5.87,5.69,10.57-1,4.42-4.94,7.44-10.3,7.98-1.15.12-2.33.06-3.49.06-2.81,0-5.62,0-8.72,0v-34.02c3.91,0,7.68-.02,11.45,0,4.02.03,7.95.87,9.5,4.98,1.56,4.12.48,7.92-4.12,10.42ZM681.08,390.12c0,2.07-.09,3.87.02,5.65.12,1.91-.55,3.93.54,5.71,8.39.71,12.07-1.14,11.92-5.9-.15-4.35-3.97-6.15-12.48-5.47ZM681.29,385.63c3.96.21,7.66.81,10.29-2.54,1.22-1.55,1.38-3.59,0-5.05-2.84-3.01-6.51-2.36-10.29-1.96v9.55Z"/>
    <path class="cls-1" d="M81.01,405.72v-33.86c7.91.34,16.57-2.53,22.13,5.32,4.68,6.61,4.55,14.42.69,21.38-4.99,9.01-14.05,7.18-22.82,7.17ZM86.35,376.1v25.41c10.2.72,14.55-3.34,14.44-13.14-.11-9.8-3.91-13.11-14.44-12.27Z"/>
    <path class="cls-1" d="M581.72,388.28c.14,4.25-.49,8.33-2.62,12.07-2.88,5.05-7.38,6.97-13.03,6.43-5.25-.5-8.49-3.56-10.1-8.38-1.79-5.33-1.95-10.8-.63-16.26,1.89-7.8,6.72-11.65,14.12-11.36,6.5.25,10.79,4.75,11.88,12.52.23,1.64.26,3.32.37,4.98ZM576.43,388.59c-.03-3.17-.36-6.29-1.69-9.22-1.28-2.82-3.5-4.48-6.58-4.51-2.92-.03-5.1,1.65-6.25,4.22-2.84,6.38-2.75,12.91-.2,19.34,1.05,2.63,3.3,4.23,6.2,4.31,3.14.08,5.3-1.74,6.63-4.45,1.49-3.03,1.99-6.31,1.89-9.68Z"/>
    <path class="cls-1" d="M249.79,405.72c-5.36-4.92-3.54-14.45-13.05-15.22-1.14,5.03-.06,9.85-.73,14.64-1.49,1.24-3.08.44-4.74.51v-33.86c3.54,0,6.85-.04,10.15,0,5.92.08,9.29,2.24,10.4,6.59,1.15,4.5-.54,7.64-5.96,10.9,3.45,5.02,6,10.51,8.44,16.13-2.02.62-3.79.47-4.51.3ZM236.26,376.21c.13,3.71-.59,7.14.46,10.45,7.07.2,9.96-1.5,9.89-5.67-.07-4.1-3.05-5.55-10.35-4.78Z"/>
    <path class="cls-1" d="M136.44,388.62c.09,4.28-.74,8.32-2.92,12.01-2.97,5.03-7.6,6.76-13.18,6.12-4.99-.57-8.14-3.59-9.71-8.21-1.87-5.5-1.97-11.16-.58-16.76,1.88-7.55,6.7-11.23,13.89-11,6.41.2,10.47,4.2,11.91,11.89.36,1.95.4,3.96.59,5.95ZM131.03,388.44c-.1-2.59-.25-5.57-1.37-8.4-1.2-3.05-3.35-5.05-6.65-5.17-3.36-.12-5.58,1.91-6.8,4.9-2.43,5.95-2.35,11.99-.18,17.98,1.11,3.06,3.42,4.98,6.76,4.97,3.12-.01,5.22-1.95,6.51-4.66,1.37-2.9,1.73-6.04,1.74-9.62Z"/>
    <path class="cls-1" d="M653.75,371.88h6.92c3.69,11.09,7.39,22.22,11.11,33.37-1.98.79-3.58.65-5.36.2-.82-2.08-1.65-4.21-2.53-6.46h-13.68c-.88,2.21-1.72,4.34-2.53,6.37-1.8.69-3.39.47-5.22.04,3.78-11.23,7.5-22.25,11.29-33.52ZM662.33,393.68c-1.68-5.32-3.32-10.47-5.24-16.55-2.03,6.14-4.09,11.14-5.03,16.74,3.58.35,6.68.53,10.27-.2Z"/>
    <path class="cls-1" d="M327.2,371.89h6.93c3.67,10.99,7.38,22.1,11.11,33.27-1.62,1.12-3.28.39-4.82.63-1.95-1.91-1.61-4.79-3.35-6.85h-13.37c-.87,2.2-1.72,4.34-2.57,6.47-1.67.5-3.27.67-5.15-.17,3.69-10.99,7.38-21.98,11.21-33.35ZM335.87,393.78c-1.67-5.24-3.25-10.19-4.82-15.13-.38.07-.77.14-1.15.21-1.55,4.85-3.1,9.69-4.71,14.76,3.6.85,6.82.63,10.69.16Z"/>
    <path class="cls-1" d="M407.58,405.7v-33.77c7.9.18,16.55-2.57,22.11,5.25,4.68,6.59,4.48,14.42.67,21.36-4.95,9.02-14,7.2-22.77,7.16ZM412.79,376.01v25.5c10.09.74,14.48-3.13,14.61-12.58.14-9.99-3.78-13.56-14.61-12.92Z"/>
    <path class="cls-1" d="M500.14,405.69h-5.95c3.93-6.06,7.57-11.68,11.22-17.3-3.37-5.37-6.64-10.57-10.26-16.34,2.21-.11,3.9-.2,5.72-.29,2.53,4.05,4.97,7.96,7.78,12.45,2.73-4.38,5.14-8.25,7.48-12.02,1.81-.62,3.44-.48,5.78-.05-3.49,5.49-6.83,10.75-10.21,16.07,3.67,5.7,7.25,11.27,10.9,16.95-2.02,1.08-3.8.54-5.93.52-2.5-4.08-5.09-8.3-7.86-12.82-3.74,3.8-5.31,8.68-8.66,12.83Z"/>
    <path class="cls-1" d="M808.98,405.68h-6.85c-3.74-11.05-7.49-22.17-11.27-33.33,1.93-.88,3.69-.67,5.67-.19,2.92,8.89,5.85,17.83,9.25,28.19,3.38-10.28,6.3-19.14,9.2-27.96,1.65-.97,3.26-.65,5.48-.27-3.83,11.17-7.6,22.2-11.5,33.56Z"/>
    <path class="cls-1" d="M177.27,385.67c3.63-4.5,7.26-8.99,10.87-13.48,1.79-.72,3.48-.39,6.02-.17-4.67,5.64-8.86,10.71-13.19,15.93,4.56,5.79,8.95,11.36,13.82,17.53-2.29.15-3.97.25-5.96.38-3.84-4.92-7.7-9.85-12.27-15.7v14.64c-1.87,1.39-3.3.99-5.03.7v-33.2c1.42-.86,2.83-.58,4.67-.1v13.15c.35.11.71.21,1.06.32Z"/>
    <path class="cls-1" d="M348.7,405.73c-.53-1.47-.7-2.74.1-4.03,3.5-.07,6.83,1.56,10.37,1.08,3.16-.42,6.62-.64,7.29-4.67.64-3.82-2.35-5.11-5.13-6.37-2.12-.96-4.28-1.83-6.37-2.83-3.85-1.83-6.7-4.44-6.36-9.16.31-4.2,3.51-7.71,8.45-8.61,3.91-.71,7.93-.82,11.62.45,1.48,1.27.63,2.58.93,4.02-1.19,0-2.02.17-2.76-.03-3.11-.83-6.17-1.23-9.31-.07-1.87.69-3.24,1.73-3.44,3.82-.2,2.02.6,3.68,2.37,4.58,2.95,1.5,6.05,2.72,9.02,4.2,3.97,1.98,6.9,4.77,6.4,9.7-.52,5.09-3.94,7.64-8.49,8.53-4.91.95-9.91.9-14.7-.61Z"/>
    <path class="cls-1" d="M585.85,405.56v-3.41c.87-.81,1.73-.46,2.5-.32,3.6.64,7.18,1.55,10.85.59,2.33-.61,4.45-1.56,4.8-4.37.34-2.75-1.18-4.41-3.43-5.49-2.68-1.29-5.46-2.39-8.15-3.67-3.86-1.84-6.66-4.48-6.23-9.2.44-4.87,3.69-7.27,7.98-8.44,3.41-.93,6.94-.61,10.4-.14,2.52.34,3.25,1.89,2.21,4.55-2.89-.28-5.82-.85-8.72-.75-2.83.1-5.87.76-6.44,4.3-.53,3.27,1.89,4.69,4.4,5.85,2.86,1.32,5.84,2.41,8.57,3.96,3.22,1.83,5.18,4.62,4.86,8.6-.34,4.14-2.66,6.81-6.41,8.07-5.66,1.9-11.38,1.59-17.18-.12Z"/>
    <path class="cls-1" d="M385.43,375.73v9.99h13.22c1.13,1.43.86,2.5.37,4h-13.49v11.98h13.42c1.51,1.39.87,2.5.98,3.84h-19.49v-33.41h19.06c.78,1.05.67,2.11-.08,3.6h-13.99Z"/>
    <path class="cls-1" d="M207.43,376.14v9.39h12.53c2.22,1.44,1.18,2.69,1.46,4.29h-13.98v11.68h13.21c1.76,1.45,1.5,2.64.83,4.09h-19.14v-33.54h19.02c1.04.76.62,1.93.44,3.29-4.61,1.18-9.47-.18-14.35.8Z"/>
    <path class="cls-1" d="M618.21,371.9h18.84c1.17,1.08.94,2.28.16,3.93h-13.9v9.49c4.39,1.25,9.09-.2,13.58.79.63,1.16.63,2.21-.16,3.68h-13.39v11.54c4.51,1.15,9.34-.09,13.95.7.75,1.2.71,2.27.04,3.56h-19.12v-33.68Z"/>
    <path class="cls-1" d="M873.62,371.51c1.29,1.47.71,2.61.86,3.93-.83.1-1.48.34-2.07.22-2.77-.57-5.55-1.32-8.38-.62-2.29.56-4.62,1.26-5.03,4.12-.4,2.78,1.26,4.38,3.46,5.47,2.38,1.17,4.89,2.07,7.29,3.21,5.62,2.66,7.7,6,6.86,10.8-.76,4.4-4.59,7.7-10.11,8.05-4.28.27-8.67.73-12.84-1.04-.83-1.23-.75-2.46-.03-3.91,3.6-.19,7.08,1.62,10.75,1.04,2.97-.48,6.23-.75,6.94-4.49.73-3.82-2.16-5.21-4.95-6.49-2.26-1.03-4.61-1.9-6.84-3-3.83-1.91-6.57-4.63-5.99-9.36.57-4.59,3.61-7,7.76-8.08,4.25-1.1,8.51-.79,12.3.17Z"/>
    <path class="cls-1" d="M532.43,393.75v11.46c-1.74.83-3.14.75-4.78.13v-33.3c4.7,0,9.51-.5,14.18.13,5.66.76,8.84,5.15,8.63,10.51-.22,5.81-4.68,10.4-10.91,11.04-2.12.22-4.28.03-7.12.03ZM532.73,389.6c4.48.31,8.75.77,11.44-3.38,1.41-2.18,1.5-4.93-.02-7.12-2.81-4.06-7.06-3.43-11.42-3.09v13.59Z"/>
    <path class="cls-1" d="M824.69,371.78c3.93,0,7.57-.08,11.19.02,6.9.18,11.34,3.99,11.61,9.86.29,6.25-4.25,11.36-10.89,12.05-2.12.22-4.28.03-6.3.03-1.29,2.18-.62,4.21-.74,6.15-.11,1.79-.02,3.59-.02,5.27-1.8.89-3.19.78-4.84.19v-33.57ZM829.74,389.66c4.73.19,9.13.68,11.6-3.7,1.35-2.4,1.39-5.34-.61-7.5-3.04-3.28-6.97-2.96-10.98-2.31v13.51Z"/>
    <path class="cls-1" d="M163.27,372.49c.66,1.58.8,2.84-.05,4.19-5.6-1.1-11.51-3.23-15.78,2.82-3.28,4.65-3.14,14.67.09,19.03,2.84,3.84,6.76,4.45,15.64,2.4,1.02,1.36.78,2.72.06,4.06-8.39,3.38-15.87,2.19-20.11-3.15-4.83-6.1-4.76-18.85.14-25.44,4.28-5.75,11.51-7.2,20-3.91Z"/>
    <path class="cls-1" d="M488.9,372.08c.57,1.19.64,2.24-.21,3.68h-13.9v9.9h13.11c1.2,1.38,1.02,2.47.48,3.97h-13.28c-1.23,4.05-.29,7.8-.68,11.93h13.75c1.52,1.47,1.26,2.65.71,4.05h-19.16v-33.52h19.17Z"/>
    <path class="cls-1" d="M736.92,371.99h19.04c.75,1.24.68,2.29-.02,3.75h-13.84c-.76,3.42-.42,6.47-.35,9.91h13.22c1.42,1.33,1.14,2.44.65,4.11h-13.72v11.9h13.92c.87,1.63.88,2.68.18,3.94h-19.07v-33.6Z"/>
    <path class="cls-1" d="M708.08,372.09c1.61-.41,3.07-.5,4.85.15v29.27h13.91c1.55,1.48,1.28,2.58.85,3.99h-19.6v-33.41Z"/>
    <path class="cls-1" d="M778.22,599.29c3.11,4.21,4.4,4.43,10.16,1.87,1.41.25,1.5,1.56,2.32,2.56-1.69,2.02-3.71,2.9-6.1,3.12-6.24.58-9.37-1.4-11.74-7.48-11.27-5.22-14.56-24.16-5.74-33.02,5.91-5.93,16.4-4.69,19.92,2.78,3.66,7.75,3.4,15.78-.39,23.56-1.71,3.52-5.09,5.06-8.43,6.6ZM784.14,579.68c-.24-1.37-.46-4.05-1.21-6.57-.97-3.25-3.04-5.48-6.79-5.58-3.71-.09-5.96,1.9-7.13,5.13-2.11,5.85-2.09,11.75.25,17.54,1.16,2.86,3.4,4.57,6.52,4.58,2.91.02,4.99-1.63,6.35-4.14,1.63-3.02,1.88-6.34,2.01-10.97Z"/>
    <path class="cls-1" d="M978.17,497.28v12.58c1.69-.91,2.93-1.7,4.27-2.27,5.31-2.27,10.2-.37,12.27,4.93,1.88,4.81,2.03,9.78.17,14.65-2.38,6.24-8.55,8.97-16.66,7.44-1.61-.3-3.15-.93-4.99-1.49v-35.86c1.51-.72,2.96-.55,4.94,0ZM978.52,529.85c7.7,2.59,11.87-.08,12.33-7.75.09-1.48,0-2.99-.16-4.47-.33-3.11-1.14-6.07-4.77-6.7-2.61-.46-7.53,3.72-7.68,6.72-.2,4.09-.55,8.23.29,12.21Z"/>
    <path class="cls-1" d="M930.01,506.92v-9.53c1.72-.84,3.16-.65,4.78-.22.1.93.3,1.9.3,2.87.02,11.11.01,22.22.01,33.5-2.34.17-4.81,1.54-4.78-2.27-1.66-.07-2.28,1.36-3.37,2.03-5.6,3.45-11.57,1.57-13.62-4.69-1.93-5.88-2.04-11.83,1.72-17.17,3.52-5.01,9-4.85,14.97-4.52ZM929.88,512.48c-4.86-2.24-8.25-1.83-10.61,1.08-2.52,3.1-2.71,12.04-.26,15.2,1.18,1.52,2.74,2.72,4.7,1.66,3.27-1.76,6.19-3.93,6.16-8.24-.02-3.15,0-6.3,0-9.7Z"/>
    <path class="cls-1" d="M815.96,533.73h-5.91c-1.34-3.53-2.7-7.14-4.55-12.03-1.7,4.75-2.97,8.25-4.23,11.76-1.84.57-3.64.5-5.9.03-1.23-8.23-2.48-16.56-3.72-24.84,1.43-1.3,2.89-.8,4.77-.53.78,5.57,1.57,11.22,2.35,16.87.34.07.68.15,1.02.22,1.29-3.6,2.58-7.19,3.9-10.88,1.14-.76,2.41-.62,3.81-.09,1.41,3.77,2.85,7.59,4.29,11.42.28-.05.55-.09.83-.14.73-5.72,1.46-11.43,2.19-17.14,1.56-.9,2.97-.42,4.91-.42-1.27,8.72-2.49,17.04-3.76,25.77Z"/>
    <path class="cls-1" d="M1000.25,545.61c-.73-1.17-.56-2.12-.22-3.45,5.4.12,8.78-2.76,10.42-8.49-3.27-8.14-6.72-16.72-10.19-25.36,1.99-.7,3.6-.63,5.56-.12,2.35,6,4.76,12.15,7.72,19.72,2.79-7.43,5.11-13.61,7.4-19.71,1.84-.55,3.45-.58,5.48.14-3.75,9.62-7.23,19.29-11.31,28.71-2.65,6.12-7.33,9.87-14.88,8.55Z"/>
    <path class="cls-1" d="M1084.13,585.85h-17.33c-.54,7.89,2.7,9.51,15.86,8.2,1.16.89.72,2.01.44,3.23-3.99,2.15-8.37,1.9-12.61,1.38-4.47-.56-7.66-3.29-8.83-7.77-1.63-6.28-1.35-12.34,3.66-17.18,3.62-3.49,8.1-3.7,12.58-2.11,5.49,1.96,7.46,6.64,6.22,14.24ZM1079.59,581.8c-.43-4.81-2.47-7.31-7.01-7.03-4.23.26-5.77,2.96-6.07,7.03h13.08Z"/>
    <path class="cls-1" d="M828.75,521.69c.99,8.54,3.47,9.7,16.57,8.3.61,1.72,1.31,3.31-1.43,3.98-11.26,2.78-21.57.3-20.42-14.89.63-8.27,6.4-13.12,14.36-12.22,6.63.75,10.01,6.14,9,14.83h-18.08ZM841.99,517.77c-.39-4.51-2.1-7.05-6.41-7.04-4.5.01-6.24,2.75-6.67,7.04h13.08Z"/>
    <path class="cls-1" d="M890.81,582.43c3.14-3.66,6.27-7.33,8.8-10.28,3.01-.3,4.79-.58,6.31-.06-3.48,3.8-7,7.65-10.75,11.74,4.12,4.48,8.13,8.84,12.63,13.73h-6.68c-3.51-3.93-7.21-8.08-11.64-13.05v12.58c-1.77,1.09-3.16.89-4.8.34v-35.89c1.18-1.23,2.67-.59,4.64-.46v20.63c.5.24.99.48,1.49.72Z"/>
    <path class="cls-1" d="M906.06,521.83h-17.68c.24,7.87,1.57,8.52,16.38,8.42.15.27.4.53.43.81.06.65.02,1.31.02,2.02-4.28,2.38-8.85,2.19-13.22,1.5-7.45-1.18-11.17-9.46-8.67-18.38,2.17-7.72,9.11-11.45,16.25-8.74,5.38,2.04,7.45,6.44,6.48,14.38ZM901.28,517.67c-.11-4.17-1.77-6.76-6.09-6.93-4.55-.18-6.38,2.48-6.91,6.93h13Z"/>
    <path class="cls-1" d="M973.2,572h4.47c.15.74.39,1.36.4,1.99.04,4.48,0,8.97.04,13.45.03,3.18-.24,6.69,4.1,7.32,3.14.45,7.33-4.15,7.38-7.89.07-4.8.02-9.6.02-14.22,1.6-1.38,3.08-.45,4.78-.93v25.67c-2.13,1.1-3.87.57-5.07-1.76-1.34.86-2.51,1.79-3.83,2.43-5.7,2.78-11.63-.06-12.17-6.35-.54-6.4-.12-12.89-.12-19.72Z"/>
    <path class="cls-1" d="M735.65,499.83c4.02,0,7.66-.08,11.29.02,6.88.19,11.3,4.04,11.54,9.93.25,6.25-4.32,11.32-10.97,11.99-2.11.21-4.27.03-6.77.03v10.95c-1.76,1.7-3.34.86-5.09.98v-33.9ZM740.52,517.77c4.89.08,9.31.65,11.8-3.73,1.36-2.39,1.41-5.33-.58-7.51-3.02-3.33-6.97-2.96-11.22-2.33v13.57Z"/>
    <path class="cls-1" d="M1037.33,580.46v16.72c-1.62,1.21-3.18.51-4.86.48v-25.38c2.09-.54,4.17-1.38,5,2.05,1.39-.94,2.4-1.75,3.52-2.36,6.02-3.29,11.91-.37,12.92,6.39.15.98.2,1.98.2,2.98.02,5.3,0,10.6,0,15.73-1.65,1.2-3.1.79-4.63.57-.18-.43-.5-.86-.51-1.3-.06-4.65-.05-9.31-.08-13.96-.02-2.81.45-6.03-3-7.19-3.27-1.11-5.15,1.47-7.1,3.5-.46.48-.85,1.02-1.48,1.78Z"/>
    <path class="cls-1" d="M697.73,592.92c1.02,1.57.59,2.81.29,3.96-8.14,3.53-16,2.39-20.25-2.83-4.8-5.91-4.76-18.91-.07-25.5,3.2-4.5,10.86-8.09,19.87-4.13,1.09,1.23.98,2.61.41,4.11-18.38-3.9-20.58,6.09-16.81,20.15,1.52,5.69,6.98,6.67,16.56,4.22Z"/>
    <path class="cls-1" d="M763.3,521.42c-.07-9.17,4.57-14.53,12.61-14.6,8.12-.07,12.6,4.9,12.57,13.92-.04,8.59-4.96,14.04-12.74,14.11-8.02.07-12.38-4.63-12.44-13.42ZM783.33,521.02c-.07-3.39-.45-6.6-3.29-8.67-3.08-2.25-6.26-2.08-9.06.59-3.21,3.07-3.68,11.26-.77,14.96,2.32,2.94,5.38,3.87,8.84,1.96,3.54-1.95,4.1-5.4,4.27-8.85Z"/>
    <path class="cls-1" d="M1023.79,597.59c-1.47.33-2.92.55-4.68-.33,0-5,.01-10.13,0-15.27,0-3.25.02-6.66-4.38-7.04-2.83-.24-7.04,4-7.13,7.15-.14,4.97-.04,9.95-.04,14.93-1.59,1.36-3.14.64-4.88.67v-25.53c2.05-.33,4.14-1.25,4.95,2.17,1.3-.89,2.32-1.71,3.44-2.34,5.97-3.34,12.22-.48,12.96,6.26.52,4.77.25,9.62.24,14.44,0,1.63.41,3.33-.48,4.89Z"/>
    <path class="cls-1" d="M811.43,572.06c2.02-.18,3.33-.49,4.84.28v25.13c-2.26.71-4.1.74-5.05-1.95-1.15.78-2.18,1.59-3.31,2.21-6.02,3.33-11.92.43-12.99-6.38-.15-.98-.21-1.99-.22-2.99-.02-5.31,0-10.62,0-15.78,1.7-1.11,3.14-.76,4.68-.5.15.44.43.88.44,1.33.05,4.83.03,9.67.08,14.5.03,3.1.16,6.28,4.17,6.83,2.77.38,7.23-3.83,7.33-6.97.16-5.13.04-10.27.04-15.73Z"/>
    <path class="cls-1" d="M1092.5,593.87h7.9v-28.6c-1.98-1.28-4.42-.01-6.66-.79-.95-.84-.96-1.91-.41-3.34,3.98-.56,8.05-.34,12.46-.07v31.87c2.52,1.75,5.15.32,7.53,1.19.87.94.66,2.04.22,3.45h-20.83c-.88-.8-.59-1.93-.2-3.7Z"/>
    <path class="cls-1" d="M712.61,578.84h12.47c1.34,1.12,1,2.25.62,3.94h-13.36v14.2c-1.8,1.34-3.39.87-5.22.54v-33.44h19.13c.9,1.07.85,2.25-.09,3.76h-13.54v11Z"/>
    <path class="cls-1" d="M874.95,576.54c-7.54-2.29-11.02-1.75-13.62,2.02-2.47,3.6-2.51,10.01.14,13.16,3.87,4.58,8.53,3.28,13.39,1.31.85,2.4.82,3.94-1.98,5.01-5.49,2.11-12.71.69-15.95-3.52-3.49-4.52-3.53-13.42-.07-18.37,3.29-4.71,10-6.71,15.57-4.79,2.44.85,3.63,2.16,2.52,5.18Z"/>
    <path class="cls-1" d="M951.44,567.69h-9.3c-1.02-1.31-.51-2.36-.53-3.63h24.73c1.37.96.54,2.2.57,3.78h-10.15v29.35c-1.88.94-3.27.79-5.33.09v-29.59Z"/>
    <path class="cls-1" d="M860.53,533.65h-4.82v-25.35c2.79-1.37,4.29-.19,5.08,2.7,3.62-3.47,7.5-5.67,12.25-3.4,4.05,1.93,4.56,5.69,4.44,9.6-1.65.95-3.09.68-4.67.35-.27-1.25-.39-2.55-.84-3.74-1.11-2.95-3.2-3.8-5.89-2.08-3.28,2.11-5.98,4.57-5.62,9.16.32,4.1.07,8.25.07,12.76Z"/>
    <path class="cls-1" d="M838.32,593.78h7.11c1.54,1.19,1.15,2.41.65,3.87h-20.77c-.88-1.16-.7-2.22-.13-3.59,2.51-.12,5.11-.25,7.98-.39v-17.76h-6.74c-1.13-1.4-.88-2.47-.44-3.81h12.34v21.69Z"/>
    <path class="cls-1" d="M835.61,560.7c2.36.2,3.68,1.6,3.48,3.91-.18,2.01-1.52,3.26-3.73,3.23-2.41-.04-3.82-1.34-3.77-3.67.05-2.38,1.62-3.49,4.02-3.46Z"/>
    <path class="cls-1" d="M1115.39,388.09c.15,4.69-.4,8.78-2.44,12.54-2.47,4.56-6.33,6.54-11.51,6.2-4.89-.32-8.1-2.9-9.72-7.3-2.49-6.77-2.55-13.7-.18-20.52,2.02-5.82,6.13-8.45,12.16-8.22,5.22.19,8.89,3.22,10.59,8.92.86,2.87,1.37,5.83,1.1,8.39ZM1110.09,385.71c-5.05,3.99-9.51,7.52-14.05,11.11,1.33,3.6,3.26,6.03,6.89,5.87,3.36-.14,5.26-2.55,6.26-5.58,1.11-3.34,1.41-6.79.9-11.41ZM1108.94,380.95c-.59-3.88-2.79-5.86-6.02-6.04-3.39-.19-5.39,2.17-6.51,5.2-1.27,3.44-1.64,6.97-.84,11.5,4.84-3.86,9.15-7.3,13.36-10.66Z"/>
    <path class="cls-1" d="M1055.93,387.91c-.06,4.4-.32,8.2-1.98,11.76-2.37,5.08-6.25,7.4-11.93,7.14-4.87-.23-8.55-2.97-10.16-8.11-2.04-6.5-2.1-13.13.11-19.61,1.97-5.78,6.14-8.49,12.13-8.3,5.32.17,8.7,3.02,10.64,8.83.96,2.89,1.02,5.87,1.19,8.29ZM1035.97,391.65c4.83-3.82,9.31-7.37,13.76-10.9-1.33-3.76-3.39-6.1-7.04-5.82-3.37.26-5.15,2.83-6.07,5.87-1,3.32-1.52,6.71-.66,10.85ZM1050.35,385.85c-5.09,4.05-9.52,7.58-13.86,11.04,1.81,4.11,4.01,6.7,8.24,5.55,4.53-1.22,6.46-6.76,5.62-16.59Z"/>
    <path class="cls-1" d="M974.63,380.66c-1.38-.97-1.64-2.24-2.04-4.02,4.8-1.71,8.87-5.56,15.22-4.66v28.28c2.55,1.51,4.84.38,7.01,1.26,1.1,1.15.83,2.51.28,4.06h-21.28c-.47-1.49-.62-2.74.33-4.18,2.46-.16,5.05-.33,7.9-.52v-24.1c-2.69,1.41-5.1,2.67-7.43,3.89Z"/>
    <path class="cls-1" d="M941.06,380.34c1.94-.84,3.57-.6,5.51-.25,2.38,6.21,4.81,12.54,7.59,19.79,2.72-7.07,5.14-13.37,7.55-19.64,1.69-.68,3.3-.59,5.41-.05-3.38,8.5-6.71,16.89-10,25.15-2.04.71-3.83.53-6.01.18-3.31-8.29-6.67-16.72-10.05-25.18Z"/>
    <path class="cls-1" d="M1072.58,397.8c2.72.32,4.52,1.79,4.6,4.44.09,2.96-1.71,4.63-4.73,4.52-2.78-.09-4.3-1.71-4.25-4.48.05-2.78,1.81-4.1,4.39-4.48Z"/>
    <path class="cls-1" d="M1017.66,402.76c-.37,2.61-1.88,4.11-4.65,4.01-2.75-.1-4.39-1.62-4.34-4.39.06-3.01,1.93-4.64,4.83-4.44,2.66.18,4.07,1.98,4.16,4.82Z"/>
    <path class="cls-1" d="M981.78,257.52h-55.43v-123.42h55.43v123.42ZM977.46,138.01h-46.61v115.46h46.61v-115.46Z"/>
    <path class="cls-1" d="M892.65,197.96v59.56h-55.27v-59.56h55.27ZM888.19,253.53v-51.49h-46.32v51.49h46.32Z"/>
    <path class="cls-1" d="M863.04,193.58h-25.58v-59.59h25.58v59.59ZM841.82,137.93v51.41h16.77v-51.41h-16.77Z"/>
    <path class="cls-1" d="M477,257.52h-55.35v-123.41h55.35v123.41ZM472.74,137.99h-46.54v115.37h46.54v-115.37Z"/>
    <path class="cls-1" d="M684.89,134.04v123.39h-55.13v-123.39h55.13ZM680.25,253.6v-115.63h-46.04v115.63h46.04Z"/>
  </g>
</svg>