<?xml version="1.0" encoding="UTF-8"?>
<svg id="Layer_2" data-name="Layer 2" xmlns="http://www.w3.org/2000/svg" viewBox="0 0 2957 640">
  <defs>
    <style>
      .cls-1 {
        fill: #00f0ba;
      }

      .cls-1, .cls-2, .cls-3, .cls-4, .cls-5, .cls-6, .cls-7, .cls-8, .cls-9, .cls-10, .cls-11, .cls-12, .cls-13, .cls-14, .cls-15, .cls-16, .cls-17, .cls-18, .cls-19, .cls-20, .cls-21, .cls-22, .cls-23, .cls-24, .cls-25 {
        stroke-width: 0px;
      }

      .cls-2 {
        fill: #00f9c1;
      }

      .cls-3 {
        fill: #00f5be;
      }

      .cls-4 {
        fill: #000202;
      }

      .cls-5 {
        fill: #000201;
      }

      .cls-7 {
        fill: #000302;
      }

      .cls-8 {
        fill: #000101;
      }

      .cls-9 {
        fill: #00fdc5;
      }

      .cls-10 {
        fill: #000504;
      }

      .cls-11 {
        fill: #00fac2;
      }

      .cls-12 {
        fill: #00fcc3;
      }

      .cls-13 {
        fill: #000806;
      }

      .cls-14 {
        fill: #000303;
      }

      .cls-15 {
        fill: #000403;
      }

      .cls-16 {
        fill: #00fdc4;
      }

      .cls-17 {
        fill: #00fcc4;
      }

      .cls-18 {
        fill: #000100;
      }

      .cls-19 {
        fill: #00f8c1;
      }

      .cls-20 {
        fill: #00f6bf;
      }

      .cls-21 {
        fill: #000604;
      }

      .cls-22 {
        fill: #00f9c2;
      }

      .cls-23 {
        fill: #00f7c0;
      }

      .cls-24 {
        fill: #00fbc3;
      }

      .cls-25 {
        fill: #00fec5;
      }
    </style>
  </defs>
  <g id="Layer_1-2" data-name="Layer 1">
    <g>
      <path class="cls-6" d="M1478.5,639.91c-491.3,0-982.6,0-1473.91.09-3.75,0-4.6-.84-4.59-4.59C.11,425.14.11,214.86,0,4.59,0,.84.84,0,4.59,0c982.6.1,1965.21.1,2947.81,0,3.75,0,4.6.84,4.59,4.59-.11,210.27-.11,420.54,0,630.82,0,3.75-.84,4.59-4.59,4.59-491.3-.1-982.6-.09-1473.91-.09Z"/>
      <path class="cls-17" d="M108.09,577.75c-15.5.06-30.99.07-46.49.22-2.52.02-3.79-.58-3.42-3.31.13-.98.02-2,.02-3,0-169.11.03-338.22-.13-507.33,0-5.33,1.47-6.52,6.54-6.38,14.49.4,28.99.24,43.48.3,2.9,2.66,2.37,5.51.47,8.44-2.05,1.94-4.66,1.56-7.11,1.6-8.33.16-16.66-.04-24.99.1-5.87.1-6.87,1.2-7.06,7.14-.05,1.67-.03,3.33-.03,5,0,158.27,0,316.53,0,474.8q0,12.3,12.45,12.31c6.67,0,13.33-.09,20,.06,2.29.05,4.72-.23,6.66,1.52,1.99,2.94,2.52,5.81-.4,8.52Z"/>
      <path class="cls-9" d="M2836.91,58.25c5.83-.06,11.66-.05,17.49-.21,2.11-.05,3.11.6,2.9,2.81-.11,1.16-.01,2.33-.01,3.5,0,169.1-.03,338.19.13,507.29,0,5.28-1.4,6.9-6.53,6.37-4.62-.48-9.32-.21-13.98-.26-2.9-2.66-2.36-5.51-.48-8.44,1.11-1.17,2.59-1.49,4.1-1.54,4.41-.14,6.21-2.5,6.08-6.75-.07-2.16.02-4.33.02-6.49,0-157.65,0-315.3,0-472.95,0-1.66.01-3.33-.01-4.99-.1-6.84-.34-7.16-6.95-8.46-1.17-.23-2.26-.53-3.16-1.37-1.97-2.94-2.51-5.81.4-8.52Z"/>
      <path class="cls-25" d="M731.05,58.28c29,0,58-.02,86.99-.03,2.91,2.69,2.38,5.55.43,8.48-1.91,1.78-4.34,1.54-6.63,1.55-24.82.12-49.64.11-74.45,0-2.29-.01-4.72.22-6.68-1.46-2.06-2.93-2.6-5.81.34-8.55Z"/>
      <path class="cls-25" d="M2539.93,577.75c-29,0-58-.02-86.99-.03-2.93-2.69-2.37-5.54-.42-8.47,1.91-1.77,4.34-1.53,6.63-1.54,24.82-.11,49.64-.11,74.45,0,2.29.01,4.72-.22,6.68,1.47,2.05,2.94,2.57,5.83-.35,8.56Z"/>
      <path class="cls-25" d="M2126.96,58.25l86.99.03c2.93,2.69,2.37,5.54.42,8.47-1.91,1.77-4.34,1.53-6.63,1.54-24.82.11-49.64.11-74.45,0-2.29-.01-4.72.22-6.68-1.47-2.05-2.94-2.57-5.83.35-8.56Z"/>
      <path class="cls-25" d="M818.04,577.75c-29,0-58-.02-86.99-.03-2.93-2.69-2.37-5.54-.42-8.47,1.91-1.77,4.34-1.53,6.63-1.54,24.82-.11,49.64-.11,74.45,0,2.29.01,4.72-.22,6.68,1.47,2.05,2.94,2.57,5.83-.35,8.56Z"/>
      <path class="cls-25" d="M256.08,58.28c29,0,58-.02,86.99-.03,2.91,2.69,2.38,5.55.43,8.48-1.91,1.78-4.34,1.54-6.63,1.55-24.82.12-49.64.11-74.45,0-2.29-.01-4.72.22-6.68-1.46-2.06-2.93-2.6-5.81.34-8.55Z"/>
      <path class="cls-25" d="M2452.94,58.28c29,0,58-.02,86.99-.03,2.91,2.69,2.38,5.55.43,8.48-1.91,1.78-4.34,1.54-6.63,1.55-24.82.12-49.64.11-74.45,0-2.29-.01-4.72.22-6.68-1.46-2.06-2.93-2.6-5.81.34-8.55Z"/>
      <path class="cls-25" d="M405.07,58.25c29,0,58,.02,86.99.03,2.93,2.69,2.37,5.54.42,8.47-1.91,1.77-4.34,1.53-6.63,1.54-24.82.11-49.64.11-74.45,0-2.29-.01-4.72.22-6.68-1.47-2.05-2.94-2.57-5.83.35-8.56Z"/>
      <path class="cls-25" d="M1977.97,58.28c29,0,58-.02,86.99-.03,2.91,2.69,2.38,5.55.43,8.48-1.91,1.78-4.34,1.54-6.63,1.55-24.82.12-49.64.11-74.45,0-2.29-.01-4.72.22-6.68-1.46-2.06-2.93-2.6-5.81.34-8.55Z"/>
      <path class="cls-25" d="M1353.01,577.72c-29,0-58,.02-86.99.03-2.91-2.69-2.38-5.55-.43-8.48,1.91-1.78,4.34-1.54,6.63-1.55,24.82-.12,49.64-.11,74.45,0,2.29.01,4.72-.22,6.68,1.46,2.06,2.93,2.6,5.81-.34,8.55Z"/>
      <path class="cls-25" d="M2213.95,577.72c-29,0-58,.02-86.99.03-2.91-2.69-2.38-5.55-.43-8.48,1.91-1.78,4.34-1.54,6.63-1.55,24.82-.12,49.64-.11,74.45,0,2.29.01,4.72-.22,6.68,1.46,2.06,2.93,2.6,5.81-.34,8.55Z"/>
      <path class="cls-25" d="M343.07,577.75c-29,0-58-.02-86.99-.03-2.93-2.69-2.37-5.54-.42-8.47,1.91-1.77,4.34-1.53,6.63-1.54,24.82-.11,49.64-.11,74.45,0,2.29.01,4.72-.22,6.68,1.47,2.05,2.94,2.57,5.83-.35,8.56Z"/>
      <path class="cls-25" d="M1591.99,58.28c29,0,58-.02,86.99-.03,2.91,2.69,2.38,5.55.43,8.48-1.91,1.78-4.34,1.54-6.63,1.55-24.82.12-49.64.11-74.45,0-2.29-.01-4.72.22-6.68-1.46-2.06-2.93-2.6-5.81.34-8.55Z"/>
      <path class="cls-25" d="M2064.96,577.75c-29,0-58-.02-86.99-.03-2.93-2.69-2.37-5.54-.42-8.47,1.91-1.77,4.34-1.53,6.63-1.54,24.82-.11,49.64-.11,74.45,0,2.29.01,4.72-.22,6.68,1.47,2.05,2.94,2.57,5.83-.35,8.56Z"/>
      <path class="cls-25" d="M2688.92,577.72c-29,0-58,.02-86.99.03-2.91-2.69-2.38-5.55-.43-8.48,1.91-1.78,4.34-1.54,6.63-1.55,24.82-.12,49.64-.11,74.45,0,2.29.01,4.72-.22,6.68,1.46,2.06,2.93,2.6,5.81-.34,8.55Z"/>
      <path class="cls-25" d="M1740.98,58.25c29,0,58,.02,86.99.03,2.93,2.69,2.37,5.54.42,8.47-1.91,1.77-4.34,1.53-6.63,1.54-24.82.11-49.64.11-74.45,0-2.29-.01-4.72.22-6.68-1.47-2.05-2.94-2.57-5.83.35-8.56Z"/>
      <path class="cls-25" d="M1204.02,577.75c-29,0-58-.02-86.99-.03-2.93-2.69-2.37-5.54-.42-8.47,1.91-1.77,4.34-1.53,6.63-1.54,24.82-.11,49.64-.11,74.45,0,2.29.01,4.72-.22,6.68,1.47,2.05,2.94,2.57,5.83-.35,8.56Z"/>
      <path class="cls-25" d="M492.06,577.72c-29,0-58,.02-86.99.03-2.91-2.69-2.38-5.55-.43-8.48,1.91-1.78,4.34-1.54,6.63-1.55,24.82-.12,49.64-.11,74.45,0,2.29.01,4.72-.22,6.68,1.46,2.06,2.93,2.6,5.81-.34,8.55Z"/>
      <path class="cls-25" d="M2601.93,58.25l86.99.03c2.93,2.69,2.37,5.54.42,8.47-1.91,1.77-4.34,1.53-6.63,1.54-24.82.11-49.64.11-74.45,0-2.29-.01-4.72.22-6.68-1.47-2.05-2.94-2.57-5.83.35-8.56Z"/>
      <path class="cls-25" d="M1678.99,577.75c-29,0-58-.02-86.99-.03-2.93-2.69-2.37-5.54-.42-8.47,1.91-1.77,4.34-1.53,6.63-1.54,24.82-.11,49.64-.11,74.45,0,2.29.01,4.72-.22,6.68,1.47,2.05,2.94,2.57,5.83-.35,8.56Z"/>
      <path class="cls-25" d="M1117.02,58.28c29,0,58-.02,86.99-.03,2.91,2.69,2.38,5.55.43,8.48-1.91,1.78-4.34,1.54-6.63,1.55-24.82.12-49.64.11-74.45,0-2.29-.01-4.72.22-6.68-1.46-2.06-2.93-2.6-5.81.34-8.55Z"/>
      <path class="cls-25" d="M1827.98,577.72c-29,0-58,.02-86.99.03-2.91-2.69-2.38-5.55-.43-8.48,1.91-1.78,4.34-1.54,6.63-1.55,24.82-.12,49.64-.11,74.45,0,2.29.01,4.72-.22,6.68,1.46,2.06,2.93,2.6,5.81-.34,8.55Z"/>
      <path class="cls-25" d="M1266.01,58.25c29,0,58,.02,86.99.03,2.93,2.69,2.37,5.54.42,8.47-1.91,1.77-4.34,1.53-6.63,1.54-24.82.11-49.64.11-74.45,0-2.29-.01-4.72.22-6.68-1.47-2.05-2.94-2.57-5.83.35-8.56Z"/>
      <path class="cls-25" d="M1740.98,58.25c0,2.55,0,5.1,0,7.65-1.19,2.4-3.49,2.32-5.61,2.35-16.92.19-33.85.19-50.77,0-2.12-.02-4.42.05-5.61-2.35,0-2.55,0-5.1,0-7.65,20.67,0,41.33,0,62,0Z"/>
      <path class="cls-25" d="M2064.96,65.9c0-2.55,0-5.1,0-7.65h62c0,2.55,0,5.1,0,7.65-1.19,2.4-3.49,2.32-5.61,2.35-16.92.19-33.85.19-50.77,0-2.12-.02-4.42.05-5.61-2.35Z"/>
      <path class="cls-25" d="M405.07,58.25c0,2.55,0,5.1,0,7.65-1.19,2.4-3.49,2.32-5.61,2.35-16.92.19-33.85.19-50.77,0-2.12-.02-4.42.05-5.61-2.35,0-2.55,0-5.1,0-7.65,20.67,0,41.33,0,62,0Z"/>
      <path class="cls-25" d="M1266.01,58.25c0,2.55,0,5.1,0,7.65-1.19,2.4-3.49,2.32-5.61,2.35-16.92.19-33.85.19-50.77,0-2.12-.02-4.42.05-5.61-2.35,0-2.55,0-5.1,0-7.65h62Z"/>
      <path class="cls-25" d="M1204.02,577.75c0-2.55,0-5.1,0-7.65,1.19-2.4,3.49-2.32,5.61-2.35,16.92-.19,33.85-.19,50.77,0,2.12.02,4.42-.05,5.61,2.35,0,2.55,0,5.1,0,7.65h-62Z"/>
      <path class="cls-25" d="M2064.96,577.75c0-2.55,0-5.1,0-7.65,1.19-2.4,3.49-2.32,5.61-2.35,16.92-.19,33.85-.19,50.77,0,2.12.02,4.42-.05,5.61,2.35,0,2.55,0,5.1,0,7.65h-62Z"/>
      <path class="cls-25" d="M2601.93,58.25c0,2.55,0,5.1,0,7.65-1.19,2.4-3.49,2.32-5.61,2.35-16.92.19-33.85.19-50.77,0-2.12-.02-4.42.05-5.61-2.35,0-2.55,0-5.1,0-7.65h62Z"/>
      <path class="cls-25" d="M2601.93,570.1c0,2.55,0,5.1,0,7.65h-62c0-2.55,0-5.1,0-7.65,1.19-2.4,3.49-2.32,5.61-2.35,16.92-.19,33.85-.19,50.77,0,2.12.02,4.42-.05,5.61,2.35Z"/>
      <path class="cls-25" d="M405.07,570.1c0,2.55,0,5.1,0,7.65h-62c0-2.55,0-5.1,0-7.65,1.19-2.4,3.49-2.32,5.61-2.35,16.92-.19,33.85-.19,50.77,0,2.12.02,4.42-.05,5.61,2.35Z"/>
      <path class="cls-25" d="M1740.98,570.1c0,2.55,0,5.1,0,7.65h-62c0-2.55,0-5.1,0-7.65,1.19-2.4,3.49-2.32,5.61-2.35,16.92-.19,33.85-.19,50.77,0,2.12.02,4.42-.05,5.61,2.35Z"/>
      <path class="cls-25" d="M818.04,577.75c0-2.55,0-5.1,0-7.65,1.18-2.39,3.47-2.32,5.59-2.35,16.53-.18,33.07-.19,49.6,0,1.81.02,3.67.07,5.14,1.41,2.06,2.93,2.6,5.81-.34,8.55-20,0-40,.02-60,.03Z"/>
      <path class="cls-25" d="M818.04,65.9c0-2.55,0-5.1,0-7.65,20,0,40,.02,60,.03,2.93,2.69,2.37,5.55.41,8.48-1.59,1.53-3.64,1.48-5.61,1.5-16.23.17-32.47.16-48.7,0-2.25-.02-4.77.23-6.1-2.36Z"/>
      <path class="cls-25" d="M2421.94,577.73c-19.33,0-38.66,0-57.99,0-2.93-2.68-2.36-5.53-.43-8.46,1.75-1.67,4-1.52,6.13-1.54,15.49-.14,30.98-.14,46.47,0,2.14.02,4.38-.13,6.18,1.46,2.04,2.93,2.58,5.81-.35,8.54Z"/>
      <path class="cls-25" d="M2302.95,577.72c-19.33,0-38.66,0-57.99,0-2.93-2.68-2.36-5.53-.43-8.46,1.75-1.67,3.99-1.52,6.13-1.54,15.49-.14,30.98-.14,46.47,0,2.14.02,4.38-.13,6.18,1.46,2.04,2.93,2.59,5.81-.35,8.54Z"/>
      <path class="cls-25" d="M523.06,58.27c19.33,0,38.66,0,57.99,0,2.93,2.68,2.36,5.53.43,8.46-1.75,1.67-4,1.52-6.13,1.54-15.49.14-30.98.14-46.47,0-2.13-.02-4.38.13-6.18-1.46-2.04-2.93-2.58-5.81.35-8.54Z"/>
      <path class="cls-25" d="M642.05,58.28c19.33,0,38.66,0,57.99,0,2.93,2.68,2.36,5.53.43,8.46-1.75,1.67-3.99,1.52-6.13,1.54-15.49.14-30.98.14-46.47,0-2.13-.02-4.38.13-6.18-1.46-2.04-2.93-2.59-5.81.35-8.54Z"/>
      <path class="cls-25" d="M909.04,58.27c19.33,0,38.66,0,57.99,0,2.93,2.68,2.36,5.53.43,8.46-1.75,1.67-4,1.52-6.13,1.54-15.49.14-30.98.14-46.47,0-2.14-.02-4.38.13-6.18-1.46-2.04-2.93-2.58-5.81.35-8.54Z"/>
      <path class="cls-25" d="M1028.03,58.28c19.33,0,38.66,0,57.99,0,2.93,2.68,2.36,5.53.43,8.46-1.75,1.67-3.99,1.52-6.13,1.54-15.49.14-30.98.14-46.47,0-2.13-.02-4.38.13-6.18-1.46-2.04-2.93-2.59-5.81.35-8.54Z"/>
      <path class="cls-25" d="M1560.99,577.73c-19.33,0-38.66,0-57.99,0-2.93-2.68-2.36-5.53-.43-8.46,1.75-1.67,3.99-1.52,6.13-1.54,15.49-.14,30.98-.14,46.47,0,2.13.02,4.38-.13,6.18,1.46,2.04,2.93,2.58,5.81-.35,8.54Z"/>
      <path class="cls-25" d="M1384.01,58.27c19.33,0,38.66,0,57.99,0,2.93,2.68,2.36,5.53.43,8.46-1.75,1.67-4,1.52-6.13,1.54-15.49.14-30.98.14-46.47,0-2.14-.02-4.38.13-6.18-1.46-2.04-2.93-2.58-5.81.35-8.54Z"/>
      <path class="cls-25" d="M1442,577.72c-19.33,0-38.66,0-57.99,0-2.93-2.68-2.36-5.53-.43-8.46,1.75-1.67,3.99-1.52,6.13-1.54,15.49-.14,30.98-.14,46.47,0,2.13.02,4.38-.13,6.18,1.46,2.04,2.93,2.59,5.81-.35,8.54Z"/>
      <path class="cls-25" d="M167.08,58.28c19.33,0,38.66,0,57.99,0,2.93,2.68,2.36,5.53.43,8.46-1.75,1.67-3.99,1.52-6.13,1.54-15.49.14-30.98.14-46.47,0-2.14-.02-4.38.13-6.18-1.46-2.04-2.93-2.59-5.81.35-8.54Z"/>
      <path class="cls-25" d="M1503,58.28c19.33,0,38.66,0,57.99,0,2.93,2.68,2.36,5.53.43,8.46-1.75,1.67-3.99,1.52-6.13,1.54-15.49.14-30.98.14-46.47,0-2.13-.02-4.38.13-6.18-1.46-2.04-2.93-2.59-5.81.35-8.54Z"/>
      <path class="cls-25" d="M1946.97,577.73c-19.33,0-38.66,0-57.99,0-2.93-2.68-2.36-5.53-.43-8.46,1.75-1.67,3.99-1.52,6.13-1.54,15.49-.14,30.98-.14,46.47,0,2.13.02,4.38-.13,6.18,1.46,2.04,2.93,2.58,5.81-.35,8.54Z"/>
      <path class="cls-25" d="M1086.02,577.73c-19.33,0-38.66,0-57.99,0-2.93-2.68-2.36-5.53-.43-8.46,1.75-1.67,3.99-1.52,6.13-1.54,15.49-.14,30.98-.14,46.47,0,2.13.02,4.38-.13,6.18,1.46,2.04,2.93,2.58,5.81-.35,8.54Z"/>
      <path class="cls-25" d="M1888.97,58.28c19.33,0,38.66,0,57.99,0,2.93,2.68,2.36,5.53.43,8.46-1.75,1.67-3.99,1.52-6.13,1.54-15.49.14-30.98.14-46.47,0-2.13-.02-4.38.13-6.18-1.46-2.04-2.93-2.59-5.81.35-8.54Z"/>
      <path class="cls-25" d="M225.08,577.73c-19.33,0-38.66,0-57.99,0-2.93-2.68-2.36-5.53-.43-8.46,1.75-1.67,4-1.52,6.13-1.54,15.49-.14,30.98-.14,46.47,0,2.13.02,4.38-.13,6.18,1.46,2.04,2.93,2.58,5.81-.35,8.54Z"/>
      <path class="cls-25" d="M2719.92,58.27h57.99c2.93,2.68,2.36,5.54.43,8.46-1.75,1.67-3.99,1.52-6.13,1.54-15.49.14-30.98.14-46.47,0-2.14-.02-4.38.13-6.18-1.46-2.04-2.93-2.58-5.81.35-8.54Z"/>
      <path class="cls-25" d="M2363.94,58.28c19.33,0,38.66,0,57.99,0,2.93,2.68,2.36,5.53.43,8.46-1.75,1.67-3.99,1.52-6.13,1.54-15.49.14-30.98.14-46.47,0-2.14-.02-4.38.13-6.18-1.46-2.04-2.93-2.59-5.81.35-8.54Z"/>
      <path class="cls-25" d="M700.05,577.73c-19.33,0-38.66,0-57.99,0-2.93-2.68-2.36-5.53-.43-8.46,1.75-1.67,4-1.52,6.13-1.54,15.49-.14,30.98-.14,46.47,0,2.13.02,4.38-.13,6.18,1.46,2.04,2.93,2.58,5.81-.35,8.54Z"/>
      <path class="cls-25" d="M2244.95,58.27c19.33,0,38.66,0,57.99,0,2.93,2.68,2.36,5.53.43,8.46-1.75,1.67-3.99,1.52-6.13,1.54-15.49.14-30.98.14-46.47,0-2.14-.02-4.38.13-6.18-1.46-2.04-2.93-2.58-5.81.35-8.54Z"/>
      <path class="cls-25" d="M581.06,577.72c-19.33,0-38.66,0-57.99,0-2.93-2.68-2.36-5.53-.43-8.46,1.75-1.67,3.99-1.52,6.13-1.54,15.49-.14,30.98-.14,46.47,0,2.13.02,4.38-.13,6.18,1.46,2.04,2.93,2.59,5.81-.35,8.54Z"/>
      <path class="cls-25" d="M2777.92,577.72c-19.33,0-38.66,0-57.99,0-2.93-2.68-2.36-5.53-.43-8.46,1.75-1.67,3.99-1.52,6.13-1.54,15.49-.14,30.98-.14,46.47,0,2.14.02,4.38-.13,6.18,1.46,2.04,2.93,2.59,5.81-.35,8.54Z"/>
      <path class="cls-25" d="M967.03,577.72c-19.33,0-38.66,0-57.99,0-2.93-2.68-2.36-5.53-.43-8.46,1.75-1.67,3.99-1.52,6.13-1.54,15.49-.14,30.98-.14,46.47,0,2.13.02,4.38-.13,6.18,1.46,2.04,2.93,2.59,5.81-.35,8.54Z"/>
      <path class="cls-25" d="M642.05,570.13c0,2.53,0,5.06,0,7.59-10.33,0-20.67,0-31,0-2.93-2.69-2.37-5.55-.42-8.47,1.43-1.4,3.28-1.44,5.08-1.49,6.93-.19,13.85-.2,20.78,0,2.11.06,4.39-.02,5.55,2.37Z"/>
      <path class="cls-25" d="M700.05,577.73c0-2.53,0-5.07,0-7.6,1.04-2.19,3.1-2.28,5.08-2.35,6.95-.22,13.89-.22,20.84,0,1.99.06,4.04.16,5.08,2.35,0,2.53,0,5.06,0,7.59-10.33,0-20.67,0-31,0Z"/>
      <path class="cls-25" d="M2302.95,65.87v-7.59c10.33,0,20.66,0,31,0,2.93,2.69,2.37,5.54.42,8.47-1.43,1.4-3.28,1.44-5.08,1.49-6.93.19-13.85.2-20.78,0-2.11-.06-4.39.02-5.55-2.37Z"/>
      <path class="cls-25" d="M2244.95,58.27c0,2.53,0,5.07,0,7.6-1.04,2.19-3.1,2.28-5.08,2.35-6.95.22-13.89.22-20.84,0-1.99-.06-4.04-.16-5.08-2.35,0-2.53,0-5.06,0-7.59,10.33,0,20.67,0,31,0Z"/>
      <path class="cls-25" d="M909.04,570.13c0,2.53,0,5.07,0,7.6-10.33,0-20.67,0-31,0,0-2.53,0-5.06,0-7.59,1.04-2.19,3.09-2.29,5.08-2.35,6.95-.22,13.89-.22,20.84,0,1.99.06,4.04.16,5.08,2.35Z"/>
      <path class="cls-25" d="M1946.97,65.87c0-2.53,0-5.07,0-7.6,10.33,0,20.67,0,31,0,0,2.53,0,5.06,0,7.59-1.04,2.19-3.09,2.29-5.08,2.35-6.95.22-13.89.22-20.84,0-1.99-.06-4.04-.16-5.08-2.35Z"/>
      <path class="cls-25" d="M967.03,577.72c0-2.53,0-5.06,0-7.59.7-1.53,2.01-2.14,3.57-2.22,8.38-.4,16.76-.48,25.13.07,1.01.07,1.88.54,2.65,1.21,2.03,2.93,2.58,5.81-.35,8.54-10.33,0-20.67,0-31,0Z"/>
      <path class="cls-25" d="M1086.02,577.73c0-2.53,0-5.07,0-7.6,1.04-2.19,3.1-2.28,5.08-2.35,6.95-.22,13.89-.22,20.84,0,1.99.06,4.04.16,5.08,2.35,0,2.53,0,5.06,0,7.59-10.33,0-20.67,0-31,0Z"/>
      <path class="cls-25" d="M1827.98,65.87c0-2.53,0-5.06,0-7.59,10.33,0,20.67,0,31,0,2.93,2.69,2.37,5.55.42,8.47-1.43,1.4-3.28,1.44-5.08,1.49-6.92.19-13.85.2-20.78,0-2.11-.06-4.39.02-5.55-2.37Z"/>
      <path class="cls-25" d="M1560.99,65.87c0-2.53,0-5.07,0-7.6,10.33,0,20.67,0,31,0,0,2.53,0,5.06,0,7.59-1.04,2.19-3.09,2.29-5.08,2.35-6.95.22-13.89.22-20.84,0-1.99-.06-4.04-.16-5.08-2.35Z"/>
      <path class="cls-25" d="M1384.01,570.13c0,2.53,0,5.07,0,7.6-10.33,0-20.67,0-31,0,0-2.53,0-5.06,0-7.59,1.04-2.19,3.09-2.29,5.08-2.35,6.95-.22,13.89-.22,20.84,0,1.99.06,4.04.16,5.08,2.35Z"/>
      <path class="cls-25" d="M1442,65.87c0-2.53,0-5.06,0-7.59,10.33,0,20.67,0,31,0,2.93,2.69,2.37,5.55.42,8.47-1.43,1.4-3.28,1.44-5.08,1.49-6.93.19-13.85.2-20.78,0-2.11-.06-4.39.02-5.55-2.37Z"/>
      <path class="cls-25" d="M1442,577.72c0-2.53,0-5.06,0-7.59.7-1.53,2.01-2.14,3.57-2.22,8.38-.4,16.76-.48,25.13.07,1.01.07,1.88.54,2.65,1.21,2.03,2.93,2.58,5.81-.35,8.54-10.33,0-20.67,0-31,0Z"/>
      <path class="cls-25" d="M1384.01,58.27c0,2.53,0,5.07,0,7.6-1.04,2.19-3.1,2.28-5.08,2.35-6.95.22-13.89.22-20.84,0-1.99-.06-4.04-.16-5.08-2.35,0-2.53,0-5.06,0-7.59,10.33,0,20.67,0,31,0Z"/>
      <path class="cls-25" d="M1560.99,577.73c0-2.53,0-5.07,0-7.6,1.04-2.19,3.1-2.28,5.08-2.35,6.95-.22,13.89-.22,20.84,0,1.99.06,4.04.16,5.08,2.35,0,2.53,0,5.06,0,7.59-10.33,0-20.67,0-31,0Z"/>
      <path class="cls-25" d="M1086.02,65.87c0-2.53,0-5.07,0-7.6,10.33,0,20.67,0,31,0,0,2.53,0,5.06,0,7.59-1.04,2.19-3.09,2.29-5.08,2.35-6.95.22-13.89.22-20.84,0-1.99-.06-4.04-.16-5.08-2.35Z"/>
      <path class="cls-25" d="M967.03,65.87c0-2.53,0-5.06,0-7.59,10.33,0,20.67,0,31,0,2.93,2.69,2.37,5.55.41,8.47-1.43,1.4-3.28,1.44-5.08,1.49-6.93.19-13.85.2-20.78,0-2.11-.06-4.39.02-5.55-2.37Z"/>
      <path class="cls-25" d="M909.04,58.27c0,2.53,0,5.07,0,7.6-1.04,2.19-3.1,2.28-5.08,2.35-6.95.22-13.89.22-20.84,0-1.99-.06-4.04-.16-5.08-2.35,0-2.53,0-5.06,0-7.59,10.33,0,20.67,0,31,0Z"/>
      <path class="cls-25" d="M1946.97,577.73c0-2.53,0-5.07,0-7.6,1.04-2.19,3.1-2.28,5.08-2.35,6.95-.22,13.89-.22,20.84,0,1.99.06,4.04.16,5.08,2.35,0,2.53,0,5.06,0,7.59-10.33,0-20.67,0-31,0Z"/>
      <path class="cls-25" d="M700.05,65.87c0-2.53,0-5.07,0-7.6,10.33,0,20.67,0,31,0,0,2.53,0,5.06,0,7.59-1.04,2.19-3.09,2.29-5.08,2.35-6.95.22-13.89.22-20.84,0-1.99-.06-4.04-.16-5.08-2.35Z"/>
      <path class="cls-25" d="M642.05,58.28v7.59c-.7,1.53-2.01,2.14-3.57,2.22-8.38.4-16.76.48-25.13-.07-1.01-.07-1.88-.54-2.65-1.21-2.03-2.93-2.58-5.81.35-8.54,10.33,0,20.67,0,31,0Z"/>
      <path class="cls-25" d="M2244.95,570.13c0,2.53,0,5.07,0,7.6-10.33,0-20.67,0-31,0,0-2.53,0-5.06,0-7.59,1.04-2.19,3.09-2.29,5.08-2.35,6.95-.22,13.89-.22,20.84,0,1.99.06,4.04.16,5.08,2.35Z"/>
      <path class="cls-25" d="M523.06,58.27c0,2.53,0,5.07,0,7.6-1.04,2.19-3.1,2.28-5.08,2.35-6.95.22-13.89.22-20.84,0-1.99-.06-4.04-.16-5.08-2.35,0-2.53,0-5.06,0-7.59,10.33,0,20.67,0,31,0Z"/>
      <path class="cls-25" d="M2302.95,577.72c0-2.53,0-5.06,0-7.59.7-1.53,2.01-2.14,3.57-2.22,8.38-.4,16.76-.48,25.13.07,1.01.07,1.88.54,2.65,1.21,2.03,2.93,2.58,5.81-.35,8.54-10.33,0-20.67,0-31,0Z"/>
      <path class="cls-25" d="M225.08,65.87c0-2.53,0-5.07,0-7.6,10.33,0,20.67,0,31,0,0,2.53,0,5.06,0,7.59-1.04,2.19-3.09,2.29-5.08,2.35-6.95.22-13.89.22-20.84,0-1.99-.06-4.04-.16-5.08-2.35Z"/>
      <path class="cls-25" d="M2421.94,577.73c0-2.53,0-5.07,0-7.6,1.04-2.19,3.1-2.28,5.08-2.35,6.95-.22,13.89-.22,20.84,0,1.99.06,4.04.16,5.08,2.35v7.59c-10.33,0-20.67,0-31,0Z"/>
      <path class="cls-25" d="M167.08,58.28v7.59c-.7,1.53-2.01,2.14-3.57,2.22-8.38.4-16.76.48-25.13-.07-1.01-.07-1.88-.54-2.65-1.21-2.03-2.93-2.58-5.81.35-8.54,10.33,0,20.67,0,31,0Z"/>
      <path class="cls-25" d="M2719.92,570.13c0,2.53,0,5.07,0,7.6-10.33,0-20.67,0-31,0,0-2.53,0-5.06,0-7.59,1.04-2.19,3.09-2.29,5.08-2.35,6.95-.22,13.89-.22,20.84,0,1.99.06,4.04.16,5.08,2.35Z"/>
      <path class="cls-25" d="M1827.98,577.72c0-2.53,0-5.06,0-7.59.7-1.53,2.01-2.14,3.57-2.22,8.38-.4,16.76-.48,25.13.07,1.01.07,1.88.54,2.65,1.2,2.03,2.93,2.58,5.81-.35,8.54-10.33,0-20.67,0-31,0Z"/>
      <path class="cls-25" d="M167.08,570.13c0,2.53,0,5.06,0,7.59-10.33,0-20.67,0-31,0-2.93-2.69-2.37-5.55-.42-8.47,1.43-1.4,3.28-1.44,5.08-1.49,6.93-.19,13.85-.2,20.78,0,2.11.06,4.39-.02,5.55,2.37Z"/>
      <path class="cls-25" d="M225.08,577.73c0-2.53,0-5.07,0-7.6,1.04-2.19,3.1-2.28,5.08-2.35,6.95-.22,13.89-.22,20.84,0,1.99.06,4.04.16,5.08,2.35,0,2.53,0,5.06,0,7.59-10.33,0-20.67,0-31,0Z"/>
      <path class="cls-25" d="M2719.92,58.27c0,2.53,0,5.07,0,7.6-1.04,2.19-3.1,2.28-5.08,2.35-6.95.22-13.89.22-20.84,0-1.99-.06-4.04-.16-5.08-2.35,0-2.53,0-5.06,0-7.59,10.33,0,20.67,0,31,0Z"/>
      <path class="cls-25" d="M523.06,570.13c0,2.53,0,5.07,0,7.6-10.33,0-20.67,0-31,0,0-2.53,0-5.06,0-7.59,1.04-2.19,3.09-2.29,5.08-2.35,6.95-.22,13.89-.22,20.84,0,1.99.06,4.04.16,5.08,2.35Z"/>
      <path class="cls-25" d="M2421.94,65.87c0-2.53,0-5.07,0-7.6,10.33,0,20.67,0,31,0,0,2.53,0,5.06,0,7.59-1.04,2.19-3.09,2.29-5.08,2.35-6.95.22-13.89.22-20.84,0-1.99-.06-4.04-.16-5.08-2.35Z"/>
      <path class="cls-25" d="M998.03,577.73c0-2.53,0-5.07,0-7.6.92-1.97,2.74-2.25,4.59-2.32,6.94-.27,13.89-.27,20.83,0,1.85.07,3.67.34,4.58,2.32,0,2.53,0,5.06,0,7.59-10,0-20,0-30,0Z"/>
      <path class="cls-25" d="M1858.98,577.73c0-2.53,0-5.07,0-7.6.92-1.97,2.74-2.25,4.59-2.32,6.94-.27,13.89-.27,20.83,0,1.85.07,3.67.34,4.58,2.32,0,2.53,0,5.06,0,7.59-10,0-20,0-30,0Z"/>
      <path class="cls-25" d="M2777.92,577.72c0-2.53,0-5.06,0-7.59.7-1.53,2.01-2.14,3.56-2.22,8.05-.4,16.09-.48,24.14.07,1.01.07,1.88.54,2.65,1.21,2.03,2.93,2.58,5.81-.36,8.54-10,0-20,0-30,0Z"/>
      <path class="cls-25" d="M998.03,65.87c0-2.53,0-5.07,0-7.6,10,0,20,0,30,0,0,2.53,0,5.06,0,7.59-.92,1.98-2.73,2.25-4.58,2.32-6.94.27-13.89.27-20.83,0-1.85-.07-3.67-.34-4.59-2.32Z"/>
      <path class="cls-25" d="M1473,577.73c0-2.53,0-5.07,0-7.6.92-1.97,2.74-2.25,4.59-2.32,6.94-.27,13.89-.27,20.83,0,1.85.07,3.67.34,4.58,2.32,0,2.53,0,5.06,0,7.59-10,0-20,0-30,0Z"/>
      <path class="cls-25" d="M2777.92,65.87c0-2.53,0-5.06,0-7.59,10,0,20,0,30,0,2.93,2.69,2.37,5.54.42,8.47-1.42,1.4-3.28,1.44-5.08,1.49-6.59.19-13.19.2-19.78,0-2.11-.06-4.39.02-5.55-2.37Z"/>
      <path class="cls-25" d="M2333.95,577.73c0-2.53,0-5.07,0-7.6.92-1.97,2.74-2.25,4.59-2.32,6.94-.27,13.89-.27,20.83,0,1.85.07,3.67.34,4.58,2.32,0,2.53,0,5.06,0,7.59-10,0-20,0-30,0Z"/>
      <path class="cls-25" d="M1473,65.87c0-2.53,0-5.07,0-7.6,10,0,20,0,30,0,0,2.53,0,5.06,0,7.59-.92,1.98-2.73,2.25-4.58,2.32-6.94.27-13.89.27-20.83,0-1.85-.07-3.67-.34-4.59-2.32Z"/>
      <path class="cls-25" d="M611.05,570.13c0,2.53,0,5.07,0,7.6-10,0-20,0-30,0,0-2.53,0-5.06,0-7.59.92-1.98,2.73-2.25,4.58-2.32,6.94-.27,13.89-.27,20.83,0,1.85.07,3.67.34,4.59,2.32Z"/>
      <path class="cls-25" d="M2333.95,65.87v-7.6c10,0,20,0,30,0,0,2.53,0,5.06,0,7.59-.92,1.98-2.73,2.25-4.58,2.32-6.94.27-13.89.27-20.83,0-1.85-.07-3.67-.34-4.59-2.32Z"/>
      <path class="cls-25" d="M611.06,58.27c0,2.53,0,5.07,0,7.6-.92,1.97-2.74,2.25-4.59,2.32-6.94.27-13.89.27-20.83,0-1.85-.07-3.67-.34-4.58-2.32,0-2.53,0-5.06,0-7.59,10,0,20,0,30,0Z"/>
      <path class="cls-25" d="M1858.98,65.87c0-2.53,0-5.07,0-7.6,10,0,20,0,30,0,0,2.53,0,5.06,0,7.59-.92,1.98-2.73,2.25-4.58,2.32-6.94.27-13.89.27-20.83,0-1.85-.07-3.67-.34-4.59-2.32Z"/>
      <path class="cls-25" d="M2807.91,577.73c0-2.53,0-5.07,0-7.6.92-1.97,2.73-2.24,4.58-2.32,6.61-.27,13.21-.26,19.82,0,1.85.07,3.66.34,4.6,2.29v7.65c-9.67,0-19.33-.02-29-.02Z"/>
      <path class="cls-25" d="M2807.92,65.87v-7.6c9.67,0,19.33-.02,29-.02,0,2.55,0,5.1,0,7.65-.94,1.96-2.75,2.22-4.6,2.29-6.61.26-13.21.26-19.82,0-1.85-.07-3.66-.35-4.58-2.32Z"/>
      <path class="cls-25" d="M136.09,58.27c0,2.53,0,5.07,0,7.6-.92,1.97-2.73,2.24-4.58,2.32-6.27.26-12.55.26-18.82,0-1.85-.08-3.66-.34-4.6-2.29,0-2.55,0-5.1,0-7.65,9.33,0,18.67.02,28,.03Z"/>
      <path class="cls-25" d="M136.08,570.13c0,2.53,0,5.07,0,7.6-9.33,0-18.67.02-28,.03,0-2.55,0-5.1,0-7.65.94-1.95,2.75-2.22,4.6-2.29,6.27-.26,12.55-.26,18.82,0,1.85.08,3.66.35,4.58,2.32Z"/>
      <path class="cls-6" d="M136.08,570.13c-9.33,0-18.66-.02-28-.03-11.83-.06-23.66-.37-35.48-.05-4.7.12-6.04-.93-6.04-5.87.16-109.63.12-219.26.12-328.9,0-54.65.06-109.3-.12-163.95-.02-4.55,1.28-5.45,5.53-5.36,11.99.25,23.99-.01,35.99-.07,9.33,0,18.66-.02,28-.03,10.33,0,20.67,0,31,0,19.33,0,38.66,0,58,0,10.33,0,20.67,0,31,0,29,0,58,.02,86.99.03h62c29,0,58-.02,86.99-.03,10.33,0,20.67,0,31,0,19.33,0,38.66,0,58,0,10,0,20,0,30,0,10.33,0,20.67,0,31,0,19.33,0,38.66,0,58,0,10.33,0,20.67,0,31,0l86.99.03c20,0,40-.02,60-.03,10.33,0,20.67,0,31,0,19.33,0,38.66,0,58,0,10.33,0,20.67,0,31,0,10,0,20,0,30,0,19.33,0,38.66,0,58,0,10.33,0,20.67,0,31,0,29,0,58,.02,86.99.03h62c29,0,58-.02,86.99-.03,10.33,0,20.67,0,31,0,19.33,0,38.66,0,58,0,10.33,0,20.67,0,31,0,10,0,20,0,30,0,19.33,0,38.66,0,58,0,10.33,0,20.67,0,31,0,29,0,58,.02,86.99.03h62c29,0,58-.02,86.99-.03,10.33,0,20.67,0,31,0,10,0,20,0,30,0,19.33,0,38.66,0,58,0,10.33,0,20.67,0,31,0,29,0,58,.02,86.99.03h62c29,0,58-.02,86.99-.03,10.33,0,20.67,0,31,0,19.33,0,38.66,0,58,0,10.33,0,20.67,0,31,0,10,0,20,0,30,0,19.33,0,38.66,0,58,0,10.33,0,20.67,0,31,0,29,0,58,.02,86.99.03h62c29,0,58-.02,86.99-.03,10.33,0,20.67,0,31,0,19.33,0,38.66,0,58,0,10,0,20,0,30,0,9.67,0,19.33.02,29,.02.17.02.33.06.5.07,3.63.16,8.57-1.06,10.56.83,2.62,2.49.86,7.53.86,11.46.05,161.33.04,322.66.04,483.99q0,7.64-7.48,7.69c-1.5.01-2.99.11-4.49.17-9.67,0-19.33.02-29,.02-10,0-20,0-30,0-19.33,0-38.66,0-58,0-10.33,0-20.67,0-31,0-29,0-58-.02-86.99-.03h-62c-29,0-58,.02-86.99.03-10.33,0-20.67,0-31,0-19.33,0-38.66,0-58,0-10,0-20,0-30,0-10.33,0-20.67,0-31,0-19.33,0-38.66,0-58,0-10.33,0-20.67,0-31,0-29,0-58-.02-86.99-.03-20.67,0-41.33,0-62,0-29,0-58,.02-86.99.03-10.33,0-20.67,0-31,0-19.33,0-38.66,0-58,0-10,0-20,0-30,0-10.33,0-20.67,0-31,0-29,0-58-.02-86.99-.03-20.67,0-41.33,0-62,0-29,0-58,.02-86.99.03-10.33,0-20.67,0-31,0-19.33,0-38.66,0-58,0-10,0-20,0-30,0-10.33,0-20.67,0-31,0-19.33,0-38.66,0-58,0-10.33,0-20.67,0-31,0-29,0-58-.02-86.99-.03-20.67,0-41.33,0-62,0-29,0-58,.02-86.99.03-10.33,0-20.67,0-31,0-19.33,0-38.66,0-58,0-10,0-20,0-30,0-10.33,0-20.67,0-31,0-19.33,0-38.66,0-58,0-10.33,0-20.67,0-31,0-20,0-40-.02-60-.03-29,0-58,.02-86.99.03-10.33,0-20.67,0-31,0-19.33,0-38.66,0-58,0-10.33,0-20.67,0-31,0-10,0-20,0-30,0-19.33,0-38.66,0-58,0-10.33,0-20.67,0-31,0-29,0-58-.02-86.99-.03h-62c-29,0-58,.02-86.99.03-10.33,0-20.67,0-31,0-19.33,0-38.66,0-58,0-10.33,0-20.67,0-31,0Z"/>
      <path class="cls-25" d="M1457.74,124.06c358.47,0,716.93,0,1075.4,0,85.66,0,171.32.03,256.97-.09,4.33,0,5.82.78,5.81,5.56-.15,125.64-.15,251.28,0,376.92,0,4.73-1.4,5.59-5.78,5.59-165.98-.11-331.97-.11-497.95.01-4.51,0-5.8-1.06-5.73-5.66.28-17.99.03-35.99.19-53.98.03-3.37-.7-4.55-4.34-4.53-25.33.16-50.66.16-75.99,0-3.53-.02-4.44.95-4.41,4.44.18,18.16-.05,36.32.18,54.48.05,4.08-.87,5.25-5.12,5.25-151.32-.12-302.64-.1-453.96-.1-169.65,0-339.3-.01-508.95-.01-181.82,0-363.63,0-545.45.1-4.07,0-5.32-.89-5.26-5.14.25-17.99.02-35.99.18-53.98.03-3.67-.62-5.1-4.78-5.06-25.16.22-50.33.18-75.49.03-3.5-.02-4.43.87-4.4,4.39.18,18.16-.04,36.32.18,54.48.05,4-.73,5.3-5.06,5.3-142.32-.14-284.64-.12-426.96-.13-14.16,0-28.33-.16-42.49.14-4.29.09-5.13-1.23-5.12-5.28.12-98.3.09-196.61.09-294.91,0-27.66.08-55.32-.09-82.98-.03-3.96,1.08-4.91,4.97-4.91,201.65.1,403.29.1,604.94.1,198.81,0,397.63,0,596.44-.01,44,0,87.99,0,131.99,0Z"/>
      <path class="cls-6" d="M1443.05,128.01c257.12,0,514.25,0,771.37,0,22.5,0,44.99.12,67.49-.05,3.69-.03,4.75.82,4.75,4.64-.11,102.3-.1,204.59-.02,306.89,0,3.33-.63,4.58-4.31,4.56-25.33-.17-50.66-.16-75.99,0-3.48.02-4.48-.86-4.44-4.4.18-18.16-.04-36.32.18-54.48.05-4.02-.77-5.3-5.08-5.29-82.65.14-165.31.11-247.96.11-188.97,0-377.94,0-566.91,0-216.96,0-433.93,0-650.89.01-14.5,0-29,.11-43.49-.1-3.59-.05-4.4,1.08-4.37,4.49.16,18.33-.04,36.65.17,54.98.04,3.72-.87,4.72-4.66,4.69-25.16-.18-50.32-.2-75.49,0-3.92.03-4.54-1.19-4.54-4.76.1-102.13.11-204.26-.04-306.39,0-4.49,1.52-4.95,5.36-4.95,191.47.09,382.94.08,574.4.08h264.46v-.05Z"/>
      <path class="cls-6" d="M1309,383.98c205.11,0,410.23.02,615.34-.13,5.16,0,6.18,1.35,6.15,6.26-.22,37.65-.17,75.3-.04,112.95.01,3.77-.79,4.99-4.84,4.99-181.29-.11-362.57-.1-543.86-.09-216.78,0-433.56,0-650.34,0-13,0-26-.18-38.99.09-3.88.08-4.59-1.11-4.58-4.73.13-38.15.17-76.3-.03-114.45-.02-4.45,1.46-4.98,5.34-4.98,61.82.1,123.63.04,185.45.04,143.46,0,286.93,0,430.39,0v.04Z"/>
      <path class="cls-6" d="M2541.45,383.98c81.3,0,162.6.06,243.9-.14,5.28-.01,6.11,1.54,6.09,6.32-.2,37.64-.16,75.29-.02,112.93.01,3.84-.91,4.95-4.89,4.95-163.6-.11-327.2-.11-490.79,0-4.11,0-4.84-1.28-4.82-5.03.13-37.98.15-75.95-.02-113.93-.02-4.14,1-5.21,5.17-5.2,81.8.13,163.6.1,245.4.1Z"/>
      <path class="cls-6" d="M2541.46,256.02c81.3,0,162.6.04,243.9-.1,4.58,0,6.14.73,6.1,5.79-.25,37.81-.19,75.62-.05,113.43.01,3.86-.94,4.94-4.9,4.94-163.6-.11-327.2-.11-490.79,0-4.13,0-4.83-1.3-4.81-5.04.13-37.98.15-75.95-.02-113.93-.02-4.15,1.02-5.2,5.18-5.19,81.8.13,163.6.1,245.4.1Z"/>
      <path class="cls-6" d="M2541.49,128.06c81.47,0,162.93.03,244.4-.09,4.18,0,5.58.71,5.56,5.32-.22,37.98-.19,75.95-.03,113.93.02,3.93-1.05,4.9-4.94,4.9-163.6-.1-327.2-.1-490.79.02-4.19,0-4.78-1.41-4.77-5.08.12-37.98.15-75.95-.03-113.93-.02-4.19,1.11-5.16,5.22-5.15,81.8.13,163.6.09,245.4.09Z"/>
      <path class="cls-6" d="M358.95,507.95c-76.46,0-152.92-.04-229.38.1-4.46,0-5.74-.99-5.71-5.62.21-37.81.19-75.61.01-113.42-.02-4.2,1.07-5.13,5.19-5.13,153.42.11,306.85.11,460.27,0,4.06,0,5.27.85,5.25,5.11-.18,37.97-.18,75.95,0,113.92.02,4.24-1.14,5.13-5.23,5.12-76.79-.13-153.59-.1-230.38-.1Z"/>
      <path class="cls-6" d="M359.62,128.06c76.3,0,152.59.04,228.89-.11,4.59,0,6.13.76,6.09,5.8-.25,37.81-.19,75.61-.05,113.42.01,3.86-.93,4.94-4.89,4.94-153.59-.11-307.18-.11-460.77.02-4.41,0-5.02-1.39-5-5.31.15-37.81.16-75.61-.02-113.42-.02-4.3.88-5.47,5.37-5.46,76.79.16,153.59.12,230.38.12Z"/>
      <path class="cls-6" d="M358.98,256.02c76.63,0,153.26.04,229.88-.11,4.54,0,5.72,1.11,5.7,5.67-.19,37.64-.17,75.28-.03,112.92.01,4.04-.52,5.61-5.26,5.61-153.42-.16-306.85-.15-460.27-.03-4.17,0-5.17-1.02-5.15-5.16.18-37.97.18-75.95,0-113.92-.02-4.29,1.21-5.08,5.24-5.07,76.63.13,153.26.09,229.88.09Z"/>
      <path class="cls-6" d="M2066.42,383.98c41.99,0,83.97.06,125.96-.09,4.03-.01,5.32.82,5.3,5.11-.18,37.98-.18,75.96,0,113.94.02,4.3-1.28,5.1-5.31,5.1-84.14-.12-168.28-.12-252.42,0-4.1,0-5.22-.89-5.2-5.11.18-37.98.18-75.96,0-113.94-.02-4.24,1.13-5.12,5.21-5.11,42.15.16,84.31.1,126.46.1Z"/>
      <path class="cls-24" d="M1607.95,255.51c0-19.65.12-39.3-.1-58.95-.04-3.85,1.09-5.03,4.75-4.57,2.13.27,4.33.08,6.49.05,1.42-.02,2.1.5,2.08,2.04-.02,1.58-.8,2-2.17,1.96-.67-.02-1.35.1-2-.01-3.74-.65-4.75.82-4.72,4.59.19,19.82.09,39.64.09,59.45,0,19.48-.17,38.97.13,58.45.07,4.76-1.44,5.71-5.82,5.58-10.65-.31-21.32-.27-31.98,0-3.71.09-4.71-.86-4.7-4.65.15-39.3,0-78.61.21-117.91.02-4.66-1.29-5.72-5.73-5.61-11.6.28-11.6.07-11.6,11.6,0,37.14-.07,74.28.1,111.41.02,4.19-1.07,5.49-5.21,5.14-4.47-.38-8.99-.09-13.49-.09-1.37,0-2.65.07-2.67-1.97-.02-2.03,1.2-2.05,2.61-2.03.67,0,1.34.04,2-.01,3.94-.32,9.32,1.79,11.45-.87,1.98-2.48.7-7.63.7-11.61.02-36.8.09-73.61-.09-110.41-.02-4.23,1.13-5.42,5.25-5.15,5.64.36,11.33.31,16.98,0,3.4-.18,4.16,1.02,4.14,4.21-.12,22.32-.06,44.63-.06,66.95,0,17.49.08,34.97-.07,52.46-.03,3.35.65,4.64,4.31,4.52,8.15-.28,16.33-.28,24.48,0,3.67.13,4.78-.78,4.74-4.62-.21-19.98-.1-39.97-.1-59.95Z"/>
      <path class="cls-24" d="M1582.6,248.12c0,19.82.08,39.64-.07,59.45-.03,3.34.64,4.9,4.31,4.48,4.23-.49,9.91,1.82,12.37-1.03,2.09-2.42.73-7.91.73-12.05.03-36.64.09-73.28-.09-109.91-.02-4.26,1.17-5.44,5.26-5.1,4.47.37,8.99.09,13.49.08,1.42,0,2.61.04,2.58,2.05-.03,2.05-1.33,1.95-2.68,1.95-3.33,0-6.68.23-9.99-.06-3.33-.29-4.22.89-4.19,4.15.14,19.48.07,38.97.07,58.45,0,19.98-.17,39.97.13,59.95.07,4.78-1.46,5.86-5.83,5.56-5.31-.36-10.67-.34-15.98,0-3.76.24-4.71-.9-4.69-4.66.18-25.98.09-51.96.09-77.94,0-13.66-.16-27.31.1-40.97.08-3.88-1.11-4.7-4.73-4.57-7.82.28-15.67.33-23.48-.02-4.11-.18-5.24.87-5.22,5.11.18,38.97,0,77.94.24,116.91.03,5.1-1.28,6.99-6.24,6.05-.16-.03-.36.05-.5-.01-2.13-.93-6.24,2.16-6.39-1.98-.15-4.05,3.87-1.76,5.86-1.88,3.38-.2,2.62-2.33,2.62-4.15.03-18.32.02-36.64.02-54.96,0-21.48.1-42.97-.09-64.45-.03-3.81,1.04-4.73,4.75-4.64,11.15.25,22.32.23,33.48,0,3.39-.07,4.16,1.03,4.14,4.21-.12,19.98-.06,39.97-.06,59.95Z"/>
      <path class="cls-17" d="M1426.04,254.52c0,18.99-.07,37.98.07,56.97.02,3.24-.46,4.66-4.22,4.6-15.83-.22-31.66-.21-47.48,0-3.52.05-4.07-1.25-4.05-4.3.11-17.16.15-34.32-.03-51.47-.04-3.55,1.04-4.5,4.48-4.38,7.32.25,14.66-.03,21.99.13,2.62.06,3.39-.72,3.37-3.35-.1-20.49-.13-40.98.02-61.47.03-3.36-1.63-3.24-3.98-3.24-22.33.04-44.65.03-66.98.02-1.33,0-2.67,0-4-.07-1.41-.08-1.36-1.15-1.36-2.16,0-.91.27-1.64,1.32-1.7,1-.06,2-.07,3-.07,23.99,0,47.98.06,71.98-.08,3.38-.02,4.55.73,4.52,4.34-.17,22.49-.17,44.98,0,67.46.03,3.63-1.16,4.44-4.54,4.33-7.16-.24-14.33.01-21.49-.12-2.55-.05-3.87.26-3.84,3.39.16,15.16.11,30.32.03,45.48-.01,2.26.46,3.23,3,3.21,13.49-.11,26.99-.12,40.49,0,2.73.03,3.33-.98,3.32-3.48-.06-36.31-.11-72.63.06-108.94.02-4.14-2.21-3.47-4.7-3.66-1.49-.11-4.06,1.31-4.12-1.89-.07-3.22,2.51-1.96,4.01-2,9.14-.25,9.14-.2,9.14,8.97,0,17.82,0,35.65,0,53.47Z"/>
      <path class="cls-12" d="M1523.38,254.19c0,21.81-.08,43.63.08,65.44.02,3.44-.83,4.48-4.37,4.46-21.15-.17-42.3-.18-63.45,0-3.68.03-4.31-1.23-4.3-4.56.1-43.63.11-87.25-.01-130.88-.01-3.68.84-4.76,4.66-4.72,20.98.21,41.97.22,62.95,0,3.99-.04,4.55,1.33,4.53,4.82-.15,21.81-.07,43.63-.07,65.44Z"/>
      <path class="cls-17" d="M1777.94,253.8c0-21.81.08-43.62-.08-65.43-.03-3.51.9-4.44,4.41-4.42,21.15.17,42.3.15,63.45.01,3.17-.02,4.23.71,4.22,4.08-.12,43.96-.11,87.91,0,131.87,0,3.26-.87,4.18-4.15,4.16-21.15-.15-42.3-.2-63.45.04-4.07.05-4.49-1.45-4.47-4.87.14-21.81.07-43.62.07-65.44Z"/>
      <path class="cls-16" d="M1760.87,286.22c0,11.33-.12,22.65.08,33.98.05,3.15-.91,3.89-3.94,3.87-21.49-.12-42.98-.11-64.47,0-2.83.01-3.65-.78-3.65-3.63.08-44.3.09-88.61,0-132.91,0-2.99,1.06-3.56,3.75-3.53,11.49.12,22.99.21,34.48-.04,3.59-.08,3.97,1.38,3.95,4.36-.11,18.15.13,36.31-.18,54.46-.08,4.61,1.32,5.58,5.56,5.35,6.48-.36,13,.11,19.48-.17,3.75-.16,5.17.67,5.05,4.81-.32,11.15-.11,22.32-.11,33.47Z"/>
      <path class="cls-16" d="M1315.39,254.01c0,21.82-.06,43.64.06,65.46.02,3.2-.39,4.67-4.2,4.63-21.15-.2-42.31-.15-63.47-.03-3.15.02-4.24-.69-4.23-4.08.11-43.97.11-87.94,0-131.91,0-3.34,1.01-4.13,4.21-4.11,21.16.13,42.31.17,63.47-.02,3.77-.03,4.24,1.37,4.23,4.6-.13,21.82-.07,43.64-.07,65.46Z"/>
      <path class="cls-24" d="M917.14,253.51c0-21.65.06-43.31-.07-64.96-.02-3.23.42-4.65,4.21-4.61,21.16.19,42.32.15,63.47.03,3.15-.02,4.33.65,4.25,4.07-.23,9.99-.03,19.99-.14,29.98-.02,1.5,1.21,3.95-2.04,4.02-3.56.08-2.33-2.61-2.35-4.27-.11-8.49-.15-16.99,0-25.48.05-2.99-.41-4.37-3.98-4.33-18.32.2-36.65.16-54.98.02-3-.02-3.96.69-3.96,3.84.1,41.47.1,82.95,0,124.42,0,3.16.98,3.85,3.97,3.82,18.32-.13,36.65-.17,54.98.03,3.59.04,4.01-1.37,3.96-4.34-.15-8.66-.08-17.32-.03-25.98,0-1.66-.75-3.86,2.39-3.78,2.87.07,2.04,2.1,2.05,3.56.05,10.33-.08,20.66.1,30.98.05,2.96-1.03,3.55-3.74,3.54-21.49-.09-42.98-.13-64.47.03-3.39.03-3.69-1.35-3.68-4.11.09-22.15.05-44.31.05-66.46Z"/>
      <path class="cls-24" d="M925.14,254.21c0-19.15.08-38.31-.08-57.46-.03-3.5.53-4.89,4.52-4.83,15.82.26,31.65.18,47.47.04,3.02-.03,4.04.71,3.94,3.87-.24,7.49-.05,14.99-.1,22.48-.01,1.63.81,3.88-2.37,3.74-2.78-.12-2.06-2.1-2.08-3.59-.06-6.16-.16-12.33.03-18.49.09-2.89-.51-4.07-3.78-4.02-13.16.2-26.32.16-39.48.02-2.83-.03-3.65.8-3.64,3.63.09,36.31.09,72.62,0,108.92,0,2.98,1.1,3.53,3.76,3.51,13.16-.11,26.32-.12,39.48,0,2.8.03,3.75-.75,3.66-3.62-.2-6.32-.08-12.66-.04-18.98,0-1.55-.54-3.43,2.21-3.48,2.75-.05,2.26,1.79,2.26,3.37.02,7.66-.17,15.33.09,22.98.11,3.33-1.22,3.76-4.06,3.74-15.99-.11-31.98-.13-47.97.02-3.08.03-3.92-.82-3.9-3.91.14-19.32.07-38.64.07-57.96Z"/>
      <path class="cls-11" d="M1095.13,254.03c0-21.82.1-43.64-.1-65.45-.03-3.81,1.03-4.66,4.72-4.63,20.99.18,41.98.17,62.96,0,3.48-.03,4.52.86,4.44,4.4-.25,9.99-.07,19.98-.1,29.98,0,1.7.65,3.89-2.44,3.71-2.81-.16-1.93-2.26-1.95-3.69-.07-8.83-.17-17.66.03-26.48.07-3.12-.91-3.91-3.96-3.89-18.49.14-36.98.12-55.47.01-2.75-.02-3.7.68-3.69,3.58.09,41.64.09,83.27,0,124.91,0,2.91.95,3.72,3.71,3.56,3.49-.2,6.99-.04,10.49-.05,1.4,0,2.63-.02,2.63,2.01,0,2.04-1.26,2-2.65,1.99-4.66,0-9.35-.24-13.99.08-3.68.26-4.77-.77-4.74-4.61.2-21.82.1-43.63.1-65.45Z"/>
      <path class="cls-12" d="M1930.86,288.23c0,9.32.13,18.65-.07,27.97-.07,3.1.82,3.91,3.89,3.87,12.82-.18,25.65-.12,38.47-.01,1.47.01,4.05-1.31,4.13,1.89.08,3.25-2.54,1.99-4.02,2-13.99.1-27.98-.08-41.97.14-3.82.06-5.07-.82-5.02-4.87.23-18.15-.03-36.3.2-54.45.05-4.05-1.21-4.91-5-4.84-12.49.23-24.98.2-37.47.01-3.37-.05-4.56.69-4.51,4.32.22,14.48.21,28.97,0,43.46-.05,3.57,1.04,4.82,4.47,4.3.97-.15,2-.06,2.99.05,1.74.21,1.78,2.09,1.22,2.58-3.18,2.79-7.13.77-10.71,1.32-2.1.33-2.4-1.01-2.4-2.75.03-18.15.05-36.3-.02-54.45,0-2.25.86-2.8,2.93-2.8,16.65.06,33.31.1,49.96-.03,3.14-.02,2.94,1.7,2.94,3.8-.04,9.49-.02,18.98-.02,28.47Z"/>
      <path class="cls-17" d="M1402.61,324c-11.66,0-23.34-.29-34.99.14-4.77.17-5.35-1.55-5.3-5.64.2-17.99-.04-35.99.19-53.98.05-3.87-1.14-4.63-4.76-4.6-12.7.13-12.7-.01-12.7,12.56,0,11.66.18,23.33-.1,34.98-.09,3.85,1.06,4.99,4.75,4.63,1.4-.14,4.03-1.37,4.15,1.81.12,3.23-2.46,2.01-3.96,2.05-9.26.26-9.26.21-9.26-8.86,0-15.66.09-31.32-.07-46.98-.03-3.26.84-4.32,4.15-4.17,5.99.26,12.01.31,17.99-.01,3.72-.2,4.31,1.23,4.28,4.55-.15,18.32.04,36.65-.17,54.98-.04,3.77.96,4.67,4.67,4.63,22.33-.19,44.66-.1,66.99-.07,1.44,0,3.14-.61,4.22.72.41.5.34,1.73.03,2.4-.61,1.31-2.02.84-3.11.84-12.33.03-24.66.02-36.99.02Z"/>
      <path class="cls-17" d="M1909.36,215.96c0,9.49.09,18.98-.06,28.47-.04,2.83.83,3.68,3.67,3.65,13.15-.14,26.31-.13,39.46,0,2.7.02,3.74-.58,3.71-3.52-.14-14.98-.24-29.97.05-44.95.08-4.16-2.17-3.44-4.64-3.63-1.52-.12-4.1,1.33-4.28-1.72-.21-3.59,2.76-2.11,4.34-2.15,8.96-.23,8.97-.16,8.97,8.65,0,15.65-.11,31.3.08,46.95.04,3.53-1,4.44-4.46,4.4-15.65-.18-31.31-.19-46.96,0-3.55.05-4.41-.99-4.38-4.45.17-18.15-.05-36.29.18-54.44.05-4.03-.78-5.4-5.09-5.29-12.31.32-24.64.18-36.96.02-1.58-.02-4.58,1.61-4.67-1.77-.1-3.86,3.2-2.04,4.87-2.06,13.65-.16,27.31.15,40.96-.23,4.68-.13,5.45,1.46,5.31,5.59-.3,8.81-.09,17.64-.09,26.47Z"/>
      <path class="cls-24" d="M1964.08,223.55c0-9.32.11-18.64-.06-27.96-.05-2.87.84-3.85,3.66-3.61,2.48.22,4.99.07,7.49.05,1.35-.01,2.17.36,2.17,1.96,0,1.54-.7,2.3-2.08,2.01-7.29-1.49-6.78,3.13-6.74,8.01.15,17.31-.02,34.62.13,51.93.03,3.26-.88,4.28-4.19,4.16-7.32-.25-14.65.03-21.97-.14-2.73-.06-3.71.63-3.69,3.55.14,14.98.13,29.96,0,44.94-.02,2.83.81,3.65,3.63,3.61,10.32-.15,20.64-.1,30.96-.02,1.53.01,4.05-1.08,3.9,2.14-.13,2.81-2.38,1.77-3.76,1.78-11.82.08-23.64-.08-35.46.13-3.32.06-3.78-1.24-3.76-4.08.1-17.31.13-34.62-.02-51.93-.03-3.28.91-4.27,4.2-4.15,7.15.25,14.32-.08,21.47.15,3.18.1,4.28-.7,4.19-4.07-.24-9.48-.08-18.97-.08-28.46Z"/>
      <path class="cls-17" d="M1340.62,221.82c0-8.65.13-17.31-.07-25.96-.07-3.07.83-3.93,3.91-3.9,16.14.15,32.29.17,48.43,0,3.31-.04,3.78,1.23,3.76,4.07-.1,17.31-.13,34.62.02,51.92.03,3.27-.9,4.19-4.19,4.16-15.81-.17-31.62-.17-47.44,0-3.36.04-4.63-.68-4.51-4.32.27-8.65.09-17.3.09-25.96Z"/>
      <path class="cls-24" d="M1871.58,284.05c0,9.33-.09,18.66.06,27.99.05,2.88-.5,4.39-3.79,4.03-2.47-.27-4.99-.07-7.49-.06-1.34,0-2.17-.38-2.16-1.98,0-1.56.76-1.94,2.13-2.04,2.11-.16,4.94,1.02,6.18-.57,1.6-2.06.55-5.12.56-7.74.06-16.99.13-33.98-.05-50.97-.04-3.58.63-4.97,4.57-4.78,7.31.35,14.66,0,21.99.15,2.57.05,3.45-.68,3.43-3.35-.12-15.16-.12-30.32,0-45.48.02-2.82-1.13-3.26-3.54-3.23-10.33.1-20.66.09-30.99-.02-1.5-.02-4.03,1.26-4.21-1.82-.19-3.25,2.45-2.07,3.95-2.08,11.83-.09,23.66.02,35.49-.11,2.72-.03,3.75.63,3.73,3.56-.12,17.66-.12,35.32,0,52.97.02,2.92-1,3.62-3.73,3.56-7.33-.16-14.67.1-21.99-.12-3.21-.1-4.28.76-4.2,4.11.23,9.32.08,18.66.08,27.98Z"/>
      <path class="cls-12" d="M1103.13,222.13c0-8.83.1-17.66-.06-26.48-.05-2.81.73-3.7,3.61-3.67,16.33.13,32.65.11,48.98.01,2.53-.01,3.51.6,3.45,3.32-.17,7.82-.07,15.66-.06,23.48,0,1.7.21,3.38-2.42,3.26-2.41-.11-1.98-1.78-1.99-3.18-.03-6.5-.12-12.99.03-19.49.06-2.62-.81-3.41-3.42-3.39-13.49.11-26.99.1-40.48.01-2.31-.01-3.21.57-3.2,3.04.09,15.32.09,30.65,0,45.97-.02,2.47.89,3.14,3.2,3.04,3.66-.15,7.34-.21,10.99.01,2.81.17,3.3-1.08,3.25-3.52-.13-6.33-.08-12.66-.02-18.99.01-1.49-.7-3.48,2.1-3.55,2.75-.07,2.28,1.81,2.28,3.39.03,7.83-.06,15.66.05,23.48.03,2.32-.6,3.24-3.07,3.19-6.66-.15-13.33-.17-19.99,0-2.74.08-3.34-.96-3.3-3.47.13-8.83.05-17.65.05-26.48Z"/>
      <path class="cls-24" d="M1040.42,254.1c0,18.65-.24,37.3.15,55.94.11,5.29-1.55,6.74-6.36,6.01-1.63-.25-3.32-.06-4.99-.04-1.38.02-2.11-.45-2.1-2.02.01-1.58.83-2.21,2.14-1.94,7.24,1.49,6.8-3.06,6.78-7.98-.11-34.3-.14-68.6.04-102.89.02-4.11-.95-5.31-5.15-5.23-12.3.23-12.3.04-12.3,12.45,0,3.66-.06,7.33.02,10.99.04,1.83-.47,2.74-2.52,2.7-2.04-.04-1.99-1.26-1.99-2.65,0-8.16.1-16.32-.05-24.47-.05-2.63,1.13-2.98,3.3-2.94,6.33.1,12.66.22,18.98-.04,3.36-.14,4.14,1,4.12,4.2-.14,19.31-.07,38.63-.07,57.94Z"/>
      <path class="cls-24" d="M1043.99,254.03c0-19.15.12-38.31-.1-57.46-.04-3.83,1.05-4.81,4.73-4.62,5.98.31,11.99.2,17.98.03,2.65-.08,3.42.79,3.37,3.4-.16,7.82-.03,15.65-.08,23.48,0,1.35.59,3.08-1.92,3.2-2.52.12-2.58-1.32-2.57-3.15.04-6.49-.08-12.99.06-19.48.05-2.52-.59-3.61-3.32-3.44-3.49.21-7,.22-10.49,0-2.79-.17-3.29,1.06-3.28,3.51.06,36.31.11,72.61-.06,108.92-.02,4.17,2.25,3.44,4.72,3.64,1.5.12,4.06-1.3,4.11,1.9.05,3.21-2.52,1.95-4.02,1.99-9.13.25-9.14.2-9.14-8.97,0-17.65,0-35.31,0-52.96Z"/>
      <path class="cls-24" d="M1042.18,184.03c10.49,0,20.99.09,31.48-.06,3-.04,4.43.39,4.34,3.97-.26,10.15-.06,20.32-.13,30.47-.01,1.41.95,3.5-1.95,3.64-3.08.14-2.49-1.97-2.49-3.69-.03-8.83-.14-17.66.05-26.48.07-3.04-.77-3.94-3.88-3.92-18.32.15-36.65.17-54.97-.01-3.42-.03-4.13,1.11-4.07,4.24.19,8.66.1,17.32.03,25.98-.01,1.6.88,3.91-2.29,3.87-3.23-.04-2.12-2.41-2.14-3.95-.08-10.16.05-20.32-.1-30.47-.04-2.83.77-3.7,3.63-3.66,10.82.15,21.65.06,32.48.06Z"/>
      <path class="cls-24" d="M1429.61,254.05c0-19.14.1-38.27-.09-57.41-.04-3.7.84-5.18,4.66-4.66,2.12.29,4.32.06,6.48.06,1.28,0,2.23.21,2.25,1.87.01,1.48-.57,2.41-1.98,2.09-7.88-1.78-6.93,3.41-6.92,8.33.08,34.28.11,68.56-.05,102.84-.02,3.9.95,5.38,4.92,4.93,1.41-.16,4.07-1.26,3.98,1.99-.1,3.19-2.66,1.83-4.13,1.87-9.1.25-9.11.19-9.11-8.98,0-17.64,0-35.28,0-52.92Z"/>
      <path class="cls-11" d="M1337.05,254.01c0,19.15-.11,38.29.1,57.44.04,3.78-.98,5.1-4.7,4.61-2.13-.28-4.32-.08-6.49-.05-1.38.02-2.14-.42-2.12-2,.01-1.55.75-2.25,2.11-1.97,7.33,1.49,6.75-3.18,6.73-8.06-.11-34.13-.11-68.26.02-102.39.02-3.97-.36-6.48-5.24-5.62-1.32.23-3.57.96-3.6-1.91-.03-2.91,2.16-1.93,3.58-1.99,9.62-.36,9.62-.33,9.62,9.5v52.45Z"/>
      <path class="cls-22" d="M1103.13,285.95c0-8.66.11-17.33-.06-25.99-.06-2.91.5-4.17,3.78-4.03,6.32.27,12.66.14,18.99.05,2.29-.03,3.7.21,3.63,3.14-.18,7.99-.07,15.99-.06,23.99,0,1.58.02,2.96-2.27,2.94-2.35-.02-2.17-1.5-2.17-3.02,0-6.33-.2-12.67.08-18.99.15-3.43-1.1-4.35-4.26-4.04-4.27.41-9.96-1.81-12.43.96-2.11,2.36-.7,7.92-.72,12.06-.04,11.33.1,22.66-.08,33.99-.06,3.6.48,5.66,4.76,5.09,1.4-.19,4.08-1.29,4.02,1.96-.06,3.21-2.64,1.86-4.12,1.9-9.09.25-9.09.19-9.09-9.01,0-7,0-14,0-20.99Z"/>
      <path class="cls-19" d="M1137.42,254.26c0,9.15.06,18.29-.06,27.44-.02,1.64,1.28,4.38-2.29,4.3-3.17-.07-2.04-2.52-2.05-4.04-.07-18.62-.07-37.25,0-55.88,0-1.52-1.13-3.97,2.04-4.05,3.57-.1,2.29,2.65,2.31,4.29.11,9.31.05,18.62.05,27.94Z"/>
      <path class="cls-9" d="M1338.57,324c-3.98,0-7.96.02-11.93-.01-1.26,0-2.69.3-2.8-1.79-.12-2.34,1.37-2.2,2.9-2.2,8.12,0,16.24,0,24.36.02,1.25,0,2.69-.32,2.8,1.79.12,2.36-1.38,2.2-2.91,2.2-4.14,0-8.29,0-12.43,0Z"/>
      <path class="cls-9" d="M1041.63,324c-3.98,0-7.95,0-11.93,0-1.4,0-2.6-.03-2.57-2.04.02-2.04,1.31-1.95,2.65-1.95,8.29,0,16.57,0,24.86,0,1.41,0,2.6.03,2.57,2.04-.03,2.04-1.3,1.95-2.65,1.96-4.31,0-8.62,0-12.93,0Z"/>
      <path class="cls-16" d="M1872.98,320c4.15,0,8.3,0,12.45,0,1.54,0,3.03-.1,2.9,2.21-.11,2.08-1.56,1.77-2.82,1.78-8.13.02-16.27.01-24.4.01-1.53,0-3.05.14-2.92-2.21.12-2.1,1.58-1.76,2.84-1.77,3.98-.04,7.97-.01,11.95-.01Z"/>
      <path class="cls-9" d="M1427.83,188.04c-4.14,0-8.29,0-12.43,0-1.41,0-2.6-.04-2.57-2.04.03-2.04,1.3-1.95,2.65-1.95,8.29,0,16.57,0,24.86,0,1.4,0,2.59.04,2.57,2.04-.02,2.05-1.31,1.95-2.65,1.95-4.14,0-8.29,0-12.43,0Z"/>
      <path class="cls-16" d="M1962.19,188.04c-3.98,0-7.97.02-11.95-.01-1.42-.01-3.1.37-3.05-2.07.04-2.05,1.39-1.91,2.71-1.91,8.3,0,16.6,0,24.9-.01,1.46,0,2.58.12,2.54,2.08-.04,2.05-1.36,1.92-2.7,1.92-4.15,0-8.3,0-12.45,0Z"/>
      <path class="cls-24" d="M1404.55,445.44c4.23,1.73,6.32,4.7,5.92,9.01-.43,4.65-3.23,7.47-7.66,8.73-1.11.31-2.23.64-3.37.73q-12.04.98-12.04-11.01c0-6.47.13-12.94-.06-19.41-.08-2.89.93-3.8,3.71-3.58,2.64.21,5.31.02,7.96.05,4.18.05,8.23.86,9.76,5.29,1.45,4.22-.04,7.8-4.21,10.18Z"/>
      <path class="cls-24" d="M1018.58,445.41c4.34,1.86,6.46,4.94,5.86,9.46-.58,4.43-3.31,7.09-7.53,8.28-1.26.36-2.56.69-3.86.77q-11.62.71-11.62-10.94c0-6.64.08-13.27-.04-19.9-.04-2.33.66-3.3,3.11-3.15,2.98.18,5.97,0,8.96.06,4.02.09,7.87,1.02,9.32,5.21,1.46,4.22.06,7.85-4.19,10.22Z"/>
      <path class="cls-24" d="M1686.37,439.14c0,7.12,0,14.23,0,21.35,0,1.92.1,3.63-2.76,3.53-2.82-.11-2.12-1.88-2.04-3.46.45-9.13.9-18.26,1.38-27.39.07-1.39-.39-3.27,2-3.17,1.86.07,4.02-.78,4.94,2.02,1.38,4.25,3,8.42,4.99,13.91,1.94-4.93,3.78-8.69,4.89-12.67.91-3.28,2.92-3.47,5.58-3.31,3.15.19,1.98,2.67,2.07,4.13.57,8.79.95,17.59,1.34,26.39.07,1.52.8,3.38-2.03,3.54-2.73.15-2.94-1.34-2.93-3.37.03-7.42.01-14.83.01-22.25l-1.57-.16c-1.49,3.96-2.96,7.93-4.49,11.87-.51,1.33-.71,2.89-2.83,2.9-2.02,0-2.43-1.27-2.96-2.72-1.36-3.72-2.77-7.43-4.17-11.14-.48,0-.96,0-1.44,0Z"/>
      <path class="cls-12" d="M848,446.89c-.09,4.09-.82,7.99-2.82,11.56-2.85,5.08-7.33,7.01-12.98,6.49-5.24-.48-8.51-3.51-10.13-8.33-1.9-5.67-1.99-11.5-.4-17.23,1.99-7.21,6.78-10.67,13.84-10.41,6.28.24,10.25,4.08,11.69,11.5.41,2.11.54,4.28.8,6.42Z"/>
      <path class="cls-17" d="M1293.24,446.48c.16,4.25-.47,8.33-2.61,12.05-2.89,5.04-7.39,6.94-13.04,6.4-5.25-.51-8.47-3.59-10.08-8.39-1.73-5.16-1.92-10.46-.72-15.77,1.84-8.13,6.68-12.11,14.25-11.8,6.63.27,10.95,4.97,11.92,13.03.18,1.48.19,2.99.28,4.48Z"/>
      <path class="cls-12" d="M1857.22,446.89c.13,4.08-.56,7.99-2.58,11.56-2.86,5.05-7.32,7-12.99,6.49-5.25-.48-8.51-3.51-10.14-8.31-1.81-5.32-1.98-10.78-.66-16.25,1.92-7.99,6.93-11.88,14.56-11.4,6.32.39,10.54,5.11,11.5,12.93.2,1.65.21,3.32.31,4.98Z"/>
      <path class="cls-17" d="M792.15,447.05c0-4.66.11-9.32-.04-13.98-.08-2.37.68-3.35,3.1-3.13,1.65.15,3.33.08,4.99.02,6.09-.21,11.96.57,15.05,6.59,3.46,6.76,3.43,13.93-.32,20.58-3.22,5.71-8.92,6.91-15.06,6.86-7.71-.07-7.71,0-7.71-7.45,0-3.16,0-6.32,0-9.49Z"/>
      <path class="cls-12" d="M1118.99,446.89c0-4.66.01-9.32,0-13.97,0-1.57-.07-3.03,2.21-2.96,3.82.12,7.7-.24,11.46.26,6.18.82,10.04,4.93,11.22,11.1,3.02,15.84-6.87,25.59-22.85,22.7-2.27-.41-2.03-1.7-2.04-3.16-.01-4.66,0-9.32,0-13.97Z"/>
      <path class="cls-24" d="M1056.85,463.49c-3.84,1.23-6.18.41-6.79-3.53-.37-2.36-1.73-3.29-4.19-3.04-2.31.23-4.68.24-6.99,0-2.81-.3-4.42.6-4.92,3.46-.17.96-.51,2-1.09,2.77-1.08,1.44-2.84,1-4.15.67-1.8-.46-.6-1.97-.3-2.86,3.14-9.48,6.48-18.89,9.49-28.41.84-2.67,2.5-2.49,4.55-2.63,2.36-.17,3.56.61,4.31,2.94,3.23,10.14,6.64,20.23,10.08,30.64Z"/>
      <path class="cls-24" d="M1798.81,463.52c-3.85,1.13-6.16.4-6.71-3.32-.39-2.65-1.92-3.53-4.53-3.28-2.15.21-4.35.23-6.49,0-2.97-.33-4.73.65-5.22,3.7-.6,3.63-2.96,3.88-6.32,2.86,3.55-10.56,7.12-21.08,10.59-31.63.85-2.57,2.86-1.65,4.54-1.89,2.15-.3,3.28.51,3.97,2.66,3.3,10.29,6.74,20.54,10.17,30.91Z"/>
      <path class="cls-24" d="M759.87,463.49c-3.85,1.23-6.18.4-6.8-3.54-.37-2.37-1.75-3.28-4.2-3.04-2.31.23-4.68.25-6.99,0-2.82-.3-4.43.61-4.91,3.47-.13.81-.51,1.59-.86,2.34-1,2.08-2.98,1.38-4.39,1.07-1.8-.39-.58-1.95-.29-2.84,3.13-9.48,6.48-18.9,9.49-28.42.85-2.67,2.51-2.48,4.55-2.63,2.37-.17,3.56.62,4.3,2.95,3.23,10.14,6.64,20.23,10.08,30.64Z"/>
      <path class="cls-12" d="M1877.41,447.49c3.81,4.81,5.89,10.42,8.69,15.93-3.84,1.32-6.02.42-7.33-3.34-1.08-3.11-2.78-6.02-4.32-8.96-1.07-2.04-3.03-2.58-5.12-2.22-2.6.46-1.31,2.65-1.41,4.05-.2,2.81-.15,5.65-.03,8.47.08,1.97-.72,2.56-2.62,2.58-2.06.02-2.49-.92-2.48-2.71.05-9.64.04-19.28,0-28.91,0-1.6.46-2.48,2.24-2.43,3.65.1,7.36-.26,10.95.22,4.06.54,7.15,2.76,7.73,7.24.65,5-1.91,8.11-6.31,10.08Z"/>
      <path class="cls-24" d="M1383.35,463.48c-3.61,1.05-6.09.76-6.66-3.14-.42-2.91-2.21-3.69-4.95-3.42-2.14.21-4.35.25-6.48,0-2.91-.36-4.38.84-4.84,3.59-.59,3.57-2.82,4.08-6.39,3,3.59-10.63,7.19-21.23,10.73-31.86.87-2.62,2.98-1.41,4.61-1.66,1.87-.28,3.01.34,3.66,2.38,3.3,10.28,6.77,20.51,10.31,31.12Z"/>
      <path class="cls-24" d="M957.08,447.53c3.63,4.8,5.82,10.36,8.54,15.9-3.77,1.35-5.96.39-7.3-3.29-1.13-3.1-2.74-6.04-4.29-8.97-1.05-1.99-2.97-2.67-5.1-2.26-2.52.49-1.38,2.65-1.47,4.08-.18,2.81-.13,5.64-.04,8.46.07,1.99-.82,2.53-2.67,2.54-2,.01-2.54-.86-2.53-2.7.05-9.63.07-19.26,0-28.89-.02-2.08.98-2.52,2.75-2.47,2.49.07,4.98,0,7.47.02,5.99.07,9.51,2.19,10.57,6.35,1.21,4.75-.46,7.92-5.94,11.21Z"/>
      <path class="cls-24" d="M1736.97,443.43c0,3.49.18,6.99-.04,10.46-.43,7.05-4.86,11-12.1,11.07-7.79.07-11.74-3.17-12.09-10.66-.34-7.13-.08-14.28-.18-21.42-.03-2.03.47-3,2.76-2.97,2.56.03,2.45,1.56,2.44,3.29-.01,6.48-.08,12.96.03,19.44.1,5.78,2.36,8.34,6.99,8.31,4.52-.03,7-2.8,7.11-8.37.13-6.48.05-12.96.03-19.44,0-1.74-.1-3.23,2.46-3.24,2.41-.01,2.7,1.14,2.65,3.07-.08,3.49-.02,6.98-.02,10.46-.02,0-.03,0-.05,0Z"/>
      <path class="cls-12" d="M1234.47,463.74c-10.6,1.52-9-8.93-14.43-12.15-5.31,2.65-3.79,13.82-14.21,12.11,3.15-4.82,5.87-9.34,8.97-13.6,1.81-2.49,2.06-4.37.16-6.98-2.9-3.98-5.34-8.3-8.2-12.84,9.91-1.89,8.3,8.72,13.58,11.15,4.86-2.79,3.51-12.69,13.28-11.25-2.21,3.43-3.81,6.76-6.18,9.42-4.31,4.83-3.83,9.01.18,13.72,2.54,2.97,4.36,6.55,6.85,10.4Z"/>
      <path class="cls-24" d="M906.14,429.82c-4.15,4.99-7.45,9.33-11.16,13.28-2.23,2.37-1.92,3.97,0,6.24,3.83,4.52,7.41,9.24,11.78,14.73-11.2.12-11.79-10.55-18.35-14.51-1.05,3.34-.2,7.06-.47,10.68-.13,1.68.68,3.71-2.41,3.79-2.94.07-2.66-1.68-2.66-3.54.01-9.15.03-18.3-.01-27.45,0-1.83.08-3.15,2.57-3.14,2.52.01,2.55,1.39,2.53,3.19-.05,3.46-.02,6.93-.02,10.77,6.76-3.65,7.62-14.15,18.22-14.04Z"/>
      <path class="cls-11" d="M1502.39,430.45c3.91-1.32,5.91-.39,7.04,3.68,2.16,7.8,4.93,15.44,7.87,24.43,2.78-8.45,5.16-15.69,7.54-22.92.41-1.26.9-2.51,1.22-3.79.67-2.69,2.85-2.06,4.45-1.77,2.96.55.64,2.47.34,3.37-2.98,9.15-6.27,18.21-9.26,27.36-.81,2.49-2.04,3.23-4.61,3.26-2.67.03-3.72-.99-4.5-3.4-3.26-10.1-6.71-20.14-10.09-30.22Z"/>
      <path class="cls-24" d="M1305.5,464.95c-1.82-.08-4.14.05-6.44-.63-1.63-.48-2.03-1.4-1.94-2.91.13-2.31,1.75-1.58,2.9-1.37,3.61.66,7.19,1.49,10.86.45,2.17-.62,4.08-1.52,4.46-4.1.4-2.72-.94-4.48-3.23-5.59-2.69-1.29-5.46-2.43-8.16-3.69-3.87-1.81-6.79-4.44-6.41-9.13.41-5.06,3.87-7.61,8.39-8.67,3.41-.8,6.95-.57,10.42.04,1.75.31,2.59,1.43,2.21,3.23-.44,2.1-2.06,1.34-3.19,1.05-2.8-.7-5.55-1.03-8.36-.16-2.01.62-3.7,1.57-4.04,3.9-.33,2.31.87,3.9,2.73,4.89,2.33,1.25,4.8,2.24,7.22,3.35,6.32,2.89,8.76,6.39,7.82,11.2-.94,4.83-5.35,7.88-11.72,8.11-1,.04-2,0-3.5,0Z"/>
      <path class="cls-17" d="M1535.83,446.94c0-4.66-.02-9.33.02-13.99.01-1.23-.42-2.96,1.66-2.92,4.48.07,9.02-.7,13.42.47,5.4,1.43,8.27,5.44,7.93,10.61-.37,5.57-4.75,9.91-10.69,10.81-2.38.36-5.65-1.32-6.95.99-1.08,1.91-.27,4.87-.34,7.37-.05,1.71.61,3.7-2.45,3.75-2.98.04-2.6-1.79-2.6-3.6,0-4.5,0-8.99,0-13.49Z"/>
      <path class="cls-12" d="M1238.98,446.49c0-4.5,0-8.99,0-13.49,0-1.51-.2-3.1,2.13-3.04,3.99.1,8.04-.26,11.97.28,5.65.77,9.02,4.99,8.96,10.28-.07,5.64-4.14,10.22-10.11,11.29-.97.17-2.02.27-2.99.12-3.84-.58-5.6.78-4.91,4.81.17.97.14,2.01,0,2.99-.24,1.69,1.13,4.17-2.4,4.28-3.45.1-2.61-2.22-2.64-4.04-.06-4.5-.02-8.99-.02-13.49Z"/>
      <path class="cls-24" d="M1573.1,464.96c-2.31-.09-4.63.04-6.91-.65-1.59-.48-2.09-1.35-1.97-2.89.18-2.23,1.76-1.59,2.94-1.38,2.94.52,5.88,1.31,8.87.84,2.79-.44,5.77-.88,6.45-4.42.68-3.56-1.82-5.07-4.44-6.32-2.38-1.14-4.9-2.02-7.28-3.18-3.84-1.87-6.54-4.6-6.01-9.31.52-4.6,3.58-6.9,7.67-8.15,3.25-1,6.59-.58,9.89-.34,1.83.13,3.87.57,3.43,3.19-.48,2.84-2.52,1.4-3.9,1.11-2.32-.48-4.61-.75-6.91-.19-2.32.57-4.54,1.45-4.84,4.29-.29,2.78,1.57,4.25,3.72,5.33,1.92.97,3.96,1.69,5.92,2.57,6.63,2.97,9.08,6.44,8.11,11.46-.94,4.89-5.51,7.88-12.23,8.03-.83.02-1.66,0-2.49,0Z"/>
      <path class="cls-17" d="M1329.12,446.9c0-4.5.11-9-.05-13.49-.09-2.48.48-3.63,3.27-3.5,4.66.21,9.33.05,14,.07,1.32,0,2.67-.16,2.72,1.91.05,2-1.11,2.09-2.55,2.09-2.5-.01-5.03.26-7.49-.06-4-.51-4.93,1.05-4.99,4.92-.06,4.13,1.04,5.73,5.23,5.18,2.29-.3,4.66-.04,6.99-.05,1.26,0,2.27.14,2.35,1.8.09,1.88-.91,2.24-2.46,2.21-2-.05-4.03.23-5.99-.06-4.65-.68-6.13.78-6.19,5.78-.06,5.4,1.65,7.01,6.68,6.31,2.12-.3,4.33-.02,6.49-.05,1.56-.02,1.95.8,1.92,2.2-.03,1.28-.64,1.78-1.82,1.78-5.33,0-10.67-.03-16,.03-2.35.02-2.1-1.57-2.1-3.07,0-4.67,0-9.33,0-14Z"/>
      <path class="cls-17" d="M1632.78,465.12c-2.14-.22-4.29-.39-6.43-.66-2.02-.25-2.89-1.4-2.46-3.44.47-2.27,2.19-1.09,3.18-.9,3.12.61,6.24,1.25,9.39.61,2.64-.53,5.26-1.31,5.62-4.7.33-3.09-1.75-4.51-4.04-5.64-2.52-1.25-5.19-2.2-7.73-3.42-3.85-1.86-6.66-4.58-6.12-9.28.52-4.54,3.55-6.94,7.68-8.17,3.43-1.03,6.92-.6,10.39-.31,1.82.15,3.22.96,2.87,3.18-.4,2.57-2.24,1.44-3.47,1.16-2.81-.65-5.55-.91-8.34.05-1.84.63-3.33,1.53-3.63,3.64-.32,2.24.58,3.96,2.53,4.97,2.35,1.22,4.8,2.24,7.21,3.34,6.44,2.94,8.77,6.22,7.89,11.12-.91,5.07-5.3,8.09-12.02,8.27-.83.02-1.66,0-2.5,0,0,.06-.01.11-.02.17Z"/>
      <path class="cls-17" d="M1091.65,447.07c0-4.66.09-9.32-.04-13.98-.07-2.33.6-3.27,3.08-3.17,4.65.18,9.32.06,13.98.05,1.55,0,3.07-.13,2.94,2.22-.12,2.09-1.58,1.76-2.86,1.78-1.83.04-3.66.01-5.49.01-6.54,0-7.77,1.69-6.5,8.17.39,1.99,1.53,1.8,2.84,1.81,2.83.02,5.66,0,8.49.01,1.48,0,3.08-.27,2.98,2.14-.08,2.09-1.49,1.81-2.77,1.84-1.16.04-2.33,0-3.5,0-8.18,0-9.64,1.96-8.04,10.13.38,1.96,1.46,1.86,2.79,1.86,3.16,0,6.33.02,9.49,0,1.46,0,2.62.14,2.57,2.09-.05,2.03-1.39,1.92-2.74,1.92-4.83,0-9.66-.09-14.48.04-2.26.06-2.82-.9-2.78-2.95.1-4.66.03-9.32.03-13.98Z"/>
      <path class="cls-17" d="M913.65,446.85c0-4.49.11-8.99-.04-13.48-.09-2.5.58-3.58,3.31-3.46,4.65.2,9.32.05,13.98.06,1.35,0,2.69-.12,2.73,1.92.04,1.95-1.12,2.1-2.58,2.09-2.66-.02-5.37.3-7.98-.07-4.34-.63-4.45,1.79-4.29,4.95.14,2.79-.66,5.89,4.05,5.17,2.28-.35,4.65-.13,6.98-.03,1.32.05,3.16-.66,3.25,1.83.11,2.87-1.99,2.06-3.47,2.12-2.49.1-5.01.19-7.49-.02-2.67-.23-3.3.82-3.36,3.38-.19,8.66-.3,8.51,8.52,8.76,2.07.06,5.99-1.88,6.08,1.7.1,4.19-4.04,1.92-6.18,2.07-4.27.3-10,1.51-12.52-.67-2.94-2.54-.66-8.41-.98-12.82-.09-1.16-.01-2.33-.01-3.49Z"/>
      <path class="cls-16" d="M1447.97,446.79c0-4.66.09-9.33-.04-13.99-.06-2.18.71-2.92,2.88-2.86,4.83.12,9.66.04,14.49.04,1.39,0,2.62-.01,2.61,2.02-.01,2.05-1.3,1.97-2.66,1.97-2.5,0-5.04.28-7.49-.06-4.18-.58-4.9,1.3-4.84,5.01.05,3.54.4,5.75,4.75,5.1,2.28-.34,4.66-.07,6.99-.05,1.34,0,2.67-.13,2.71,1.92.04,1.98-1.1,2.09-2.56,2.08-2.67-.03-5.35.21-7.99-.06-3.2-.32-4.26.97-3.78,3.95.03.16,0,.33,0,.5q-.08,7.6,7.57,7.6c1.67,0,3.33,0,5,0,1.25,0,2.27.14,2.29,1.83.02,1.45-.44,2.17-1.95,2.17-5.33-.02-10.66-.02-15.99,0-2.4,0-1.96-1.76-1.97-3.17-.03-4.66-.01-9.33-.01-13.99Z"/>
      <path class="cls-17" d="M1068.61,465.13c-2.14-.22-4.3-.38-6.43-.69-1.64-.23-2.72-1-2.52-2.97.27-2.69,2.17-1.58,3.35-1.35,3.45.67,6.85,1.32,10.35.37,2.41-.65,4.34-1.71,4.6-4.52.24-2.54-1.17-4.08-3.26-5.09-2.84-1.36-5.77-2.53-8.59-3.92-3.84-1.89-6.59-4.61-6.02-9.33.55-4.58,3.6-6.91,7.73-8.12,3.43-1.01,6.93-.6,10.39-.27,1.83.17,3.22,1.01,2.81,3.22-.47,2.51-2.27,1.36-3.52,1.08-2.81-.62-5.55-.88-8.35.08-1.87.64-3.29,1.59-3.63,3.66-.37,2.28.67,3.95,2.57,4.96,2.34,1.24,4.81,2.23,7.22,3.33,6.59,3,8.89,6.45,7.76,11.65-1.03,4.7-5.45,7.57-11.96,7.73-.83.02-1.66,0-2.5,0,0,.06-.01.12-.02.17Z"/>
      <path class="cls-17" d="M1180.64,447.18c0-4.33.25-8.67-.08-12.97-.28-3.67,1.15-4.53,4.52-4.3,3.98.28,7.99.01,11.98.09,1.47.03,3.63-.77,3.52,2.07-.11,2.83-2.3,1.73-3.72,1.87-1.65.15-3.33.04-4.99.04-5.75,0-7.77,2.97-6.06,8.56.51,1.66,1.6,1.4,2.68,1.41,3.16.04,6.33.04,9.49.02,1.4,0,2.1.48,2.09,2.03,0,1.6-.82,1.98-2.16,1.96-1.33-.02-2.66,0-3.99,0-8.44,0-9.63,1.56-8.15,10.02.33,1.9,1.28,1.99,2.69,1.98,3.16-.02,6.33,0,9.49,0,1.39,0,2.67-.03,2.68,1.98.01,1.98-1.21,2.03-2.63,2.03-4.83-.01-9.66-.13-14.48.05-2.67.1-2.93-1.25-2.89-3.35.09-4.49.03-8.99.03-13.48Z"/>
      <path class="cls-24" d="M856.7,447.43c.18,10.43,5.28,14.5,15.39,12.32,1.1-.24,2.53-1.84,3.17.37.5,1.71,0,3.01-2,3.89-9.31,4.07-19.44-1.03-21.48-11.01-1.1-5.34-.83-10.6,1.47-15.59,3.41-7.43,12.33-10.68,19.83-7.56,1.94.81,2.62,1.93,2.26,3.77-.46,2.33-1.89.93-3.04.68-10.39-2.26-15.78,2.29-15.59,13.15Z"/>
      <path class="cls-17" d="M1665.15,463.96c-2.66,0-5.32-.05-7.97.01-1.62.04-2.45-.46-2.36-2.26.08-1.69,1.17-1.98,2.35-1.72,6.03,1.33,5.82-2.47,5.69-6.56-.16-4.98-.21-9.97.02-14.94.15-3.23-.4-5.06-4.21-4.6-1.49.18-4.04,1.05-3.8-2.18.21-2.8,2.44-1.65,3.81-1.69,4.65-.14,9.3-.1,13.95-.02,1.31.02,3.12-.68,3.26,1.81.13,2.42-1.53,2.39-2.95,2.11-4.93-.98-5.3,1.7-5.13,5.57.26,5.64.21,11.3,0,16.94-.1,2.83.8,3.71,3.62,3.64,1.53-.04,4.56-1.53,4.36,2.04-.2,3.39-3.05,1.49-4.67,1.77-1.94.34-3.97.08-5.97.08Z"/>
      <path class="cls-11" d="M1811.19,448.82c0-3.65-.17-7.32.05-10.96.18-2.94-.56-4.41-3.79-3.92-1.3.2-2.66-.01-3.98.04-1.58.06-2.48-.38-2.4-2.23.07-1.7,1.1-1.78,2.33-1.78,6.98,0,13.96.01,20.94-.01,1.54,0,2.53.33,2.44,2.21-.08,1.68-1.1,1.69-2.33,1.83-2.57.3-6.24-1.35-7.46.81-1.3,2.3-.57,5.78-.6,8.75-.05,5.48.01,10.96-.03,16.45-.02,1.85.71,4.11-2.67,4.02-3.46-.09-2.4-2.5-2.46-4.23-.12-3.65-.04-7.31-.04-10.96Z"/>
      <path class="cls-24" d="M1418.96,446.8c0-4.31-.02-8.62,0-12.94.01-1.88-.65-4.05,2.72-3.97,3.49.09,2.42,2.48,2.45,4.19.09,6.96.33,13.95-.07,20.89-.25,4.36,1.31,5.51,5.31,5.03,2.45-.3,4.97-.05,7.46-.05,1.22,0,2.26.07,2.34,1.76.08,1.8-.76,2.27-2.37,2.25-5.14-.05-10.29-.1-15.43.02-2.6.06-2.43-1.54-2.42-3.26.02-4.64,0-9.29,0-13.93Z"/>
      <path class="cls-24" d="M1751.02,444.95c0,.66-.01,1.33,0,1.99.1,4.12-1.25,9.27.73,12.07,1.96,2.79,7.42.59,11.32.93,1.48.13,3.05-.21,2.95,2.18-.09,2.08-1.49,1.77-2.77,1.84-.17,0-.33,0-.5,0-5.45-.12-12.4,1.74-15.9-.92-3.36-2.56-.83-9.9-1.01-15.14-.18-4.97,0-9.95-.06-14.93-.03-1.91.24-3.08,2.64-3.07,2.42,0,2.65,1.22,2.61,3.11-.07,3.98-.02,7.96-.02,11.94Z"/>
      <path class="cls-24" d="M2468.58,464.96c-9.4-.01-14.01-5.14-13.45-14.97.5-8.61,6.09-13.74,14.18-13.01,6.33.58,11.02,7.16,9.7,13.28-.44,2.04-1.72,1.67-2.95,1.68-4.15.05-8.32.22-12.45-.04-3.52-.23-3.49,1.54-2.63,3.89,1.4,3.81,4.52,5.12,8.27,5.12,1.8,0,3.6-.46,5.41-.65,1.22-.13,2.76-.88,3.02,1.29.2,1.69-.78,2.17-2.23,2.65-2.28.75-4.57.73-6.89.76Z"/>
      <path class="cls-24" d="M2676.8,464.96c-10,0-14.41-4.93-13.94-14.96.41-8.64,5.95-13.76,14.1-13.02,6.25.57,11.08,7.28,9.79,13.27-.44,2.03-1.72,1.68-2.95,1.69-4.32.05-8.64.15-12.95-.03-2.68-.11-3.1.9-2.42,3.23,1.17,4,4.54,6.1,9.8,5.77,1.48-.09,2.93-.52,4.41-.72,1.11-.15,2.44-.55,2.6,1.26.11,1.23-.14,2.13-1.62,2.6-2.43.78-4.87.96-6.83.9Z"/>
      <path class="cls-2" d="M2426.33,450.5c0-3.32.12-6.65-.03-9.97-.14-2.95,2.79-3.34,3.39-2.4,2.44,3.89,4.04.52,5.76-.32,5.9-2.87,11.98.11,12.46,6.59.42,5.62.12,11.29.23,16.94.03,1.84-.51,2.69-2.52,2.67-1.94-.01-2.64-.68-2.6-2.61.09-4.49,0-8.97.03-13.46.02-3.11-.04-6.25-4.03-6.87-2.81-.44-7.25,3.61-7.4,6.84-.2,4.31-.1,8.64-.05,12.96.02,1.84-.1,3.16-2.58,3.16-2.37,0-2.73-1.12-2.68-3.06.08-3.49.02-6.98.02-10.47Z"/>
      <path class="cls-2" d="M2418.55,453.2c0,2.66-.04,5.32.01,7.98.03,1.69-.22,2.81-2.39,2.84-2.18.03-2.93-.73-2.87-2.88.11-4.32.04-8.64.03-12.97,0-3.22.17-6.69-4.26-7.12-3.03-.29-7.12,4.13-7.2,7.61-.1,4.15-.12,8.31,0,12.47.06,2.15-.67,2.89-2.85,2.88-2.28-.01-2.28-1.31-2.27-2.91.02-6.82.11-13.63-.04-20.45-.06-2.82,2.24-3.63,3.28-2.49,2.4,2.62,3.75.84,5.67-.21,5.75-3.14,11.72-.21,12.58,6.29.39,2.94.07,5.97.07,8.95.08,0,.16,0,.23,0Z"/>
      <path class="cls-2" d="M2693.74,451.11c0-3.49.14-6.99-.04-10.47-.15-2.85,2.28-3.6,3.29-2.47,2.4,2.66,3.75.83,5.67-.22,5.75-3.13,11.9-.21,12.53,6.32.56,5.77.23,11.62.34,17.43.03,1.73-.73,2.3-2.4,2.3-1.71,0-2.88-.22-2.84-2.37.08-4.49.02-8.98.01-13.47,0-3.23.16-6.69-4.28-7.1-3.03-.28-7.1,4.14-7.18,7.62-.1,3.99-.09,7.98,0,11.97.05,2.08-.14,3.46-2.85,3.37-2.77-.09-2.21-1.88-2.23-3.44-.05-3.16-.01-6.32-.01-9.48Z"/>
      <path class="cls-11" d="M2388.98,451.09c0,3.32-.13,6.65.04,9.97.18,3.57-2.87,3.86-3.93,2.45-1.79-2.36-2.47-1.14-3.96-.18-6.45,4.16-13.08,1.2-13.73-6.39-.47-5.45-.13-10.96-.25-16.44-.05-1.99.78-2.56,2.66-2.58,1.99-.02,2.58.81,2.55,2.66-.07,4.49-.03,8.97,0,13.46.02,3.1.18,6.26,4.15,6.84,2.73.4,7.23-3.82,7.35-6.93.17-4.31.1-8.64.03-12.96-.03-1.9.19-3.11,2.63-3.1,2.54.01,2.51,1.45,2.49,3.22-.04,3.32-.01,6.65-.01,9.97Z"/>
      <path class="cls-12" d="M2738.59,464.94c-7.41,0-10.19-2.68-10.44-10.18-.07-2.16-.14-4.34.01-6.49.27-3.91.35-7.45-5.35-6.35-1.5.29-1.95-.71-1.93-2.14.02-1.68,1.05-1.95,2.3-1.8,3.58.45,5.73-.4,5-4.66-.46-2.67,1.85-3.03,3.52-3.11,2.5-.12,1.69,2.19,1.53,3.35-.59,4.13,1.52,4.45,4.89,4.55,2.28.07,6.68-2.25,6.66,2-.02,3.91-4.34,1.78-6.45,1.68-4.33-.22-5.58,1.32-5.08,5.37.3,2.46-.03,4.99.08,7.49.21,4.89,2.57,6.7,7.47,6.25,1.38-.13,3.73-2.61,4.2.85.45,3.32-2.3,3-4.41,3.18-.66.06-1.33,0-2,0Z"/>
      <path class="cls-24" d="M2618.82,443.22c0,4.33.21,8.67-.07,12.97-.21,3.17.89,4.06,3.92,3.85,1.43-.1,4.03-1.33,4.11,1.86.08,3.26-2.53,1.94-4.01,1.99-4.82.16-9.65.11-14.48.03-1.31-.02-3.13.68-3.26-1.82-.12-2.42,1.53-2.36,2.96-2.11,4.98.87,6.2-1.25,5.87-5.97-.43-6.29-.24-12.64-.05-18.96.09-3.06-.51-4.73-4.05-4.3-1.39.17-3.7.92-3.79-1.79-.1-3.22,2.51-1.92,3.99-1.97,8.86-.25,8.87-.19,8.87,8.71v7.49Z"/>
      <path class="cls-24" d="M2499.98,443.21c0,3.33.23,6.68-.06,9.98-.38,4.51-.09,8.01,5.95,6.81,1.35-.27,2.1.43,2.11,1.98.01,1.59-.78,1.99-2.14,1.98-5.83-.01-11.65,0-17.47,0-1.3,0-2.19-.28-2.23-1.9-.06-1.97,1.15-2.34,2.55-2.06,6.17,1.24,6.55-2.22,6.29-6.99-.33-5.97-.22-11.98-.02-17.96.1-3.09-.56-4.68-4.06-4.27-1.38.16-3.7.95-3.78-1.78-.1-3.22,2.51-1.93,3.98-1.97,8.88-.25,8.88-.2,8.88,8.7v7.49Z"/>
      <path class="cls-24" d="M2348.39,429.96c3.33,0,6.66-.01,10,0,1.31,0,2.68-.19,2.73,1.88.05,1.96-1.04,2.06-2.52,2.14-2.45.14-5.69-1.15-7.16.61-1.72,2.07-.54,5.42-.58,8.21-.1,5.99-.05,11.99-.02,17.99,0,1.78.05,3.21-2.49,3.23-2.47.02-2.61-1.26-2.6-3.12.05-7.5-.15-15,.09-22.48.11-3.37-.67-4.69-4.33-4.62-1.88.04-5.86,2.27-5.72-2.02.11-3.45,3.64-1.46,5.6-1.75,2.28-.33,4.65-.08,6.99-.08Z"/>
      <path class="cls-11" d="M2595.44,442.75c-4.86-1.98-9.7-3.21-13.47,1.9-2.6,3.53-2.57,10.06.1,13.2,3.9,4.57,8.59,3.24,13.3,1.35,1.44,2.9.24,4.25-2.46,5.17-5.6,1.9-12.39.28-15.49-3.88-3.48-4.68-3.39-13.5.19-18.41,3.29-4.51,9.82-6.49,15.24-4.64,2.92,1,3.03,1.22,2.58,5.32Z"/>
      <path class="cls-24" d="M2648.31,448.83c0,1.66.17,3.34-.03,4.98-.52,4.26.17,7.22,5.55,6.18,1.5-.29,2.53.24,2.46,2.13-.06,1.64-1,1.84-2.27,1.84-5.64,0-11.29-.02-16.93,0-1.47,0-2.58-.14-2.53-2.09.04-2.04,1.42-2.14,2.7-1.88,5.43,1.09,6.53-1.63,5.93-6.26-.25-1.96-.21-4,0-5.97.43-4.04-.22-6.84-5.32-5.84-1.44.28-2.58-.16-2.52-2.08.06-2.04,1.42-1.79,2.75-1.9q10.23-.86,10.23,10.88Z"/>
      <path class="cls-1" d="M2648.93,430.62c-.4,2.24-1.69,3.46-4.04,3.35-2.38-.11-3.71-1.56-3.59-3.78.12-2.25,1.66-3.49,4.01-3.38,2.37.11,3.51,1.46,3.62,3.81Z"/>
      <path class="cls-12" d="M2536.97,317.45c0,5.32-.1,10.64.03,15.95.08,3.42-3.25,3.25-3.75,2.26-1.79-3.52-2.92-1.15-4.51-.14-5.32,3.36-11.24,1.43-13.42-4.44-1.54-4.14-1.77-8.44-.58-12.74,1.7-6.15,5.84-9.56,12.41-9.22,4.09.21,5.36-1.15,4.76-4.92-.08-.49-.04-1,0-1.49.1-1.69-.65-3.7,2.43-3.76,2.94-.06,2.66,1.69,2.65,3.56-.02,4.99,0,9.97,0,14.96Z"/>
      <path class="cls-24" d="M2626.31,325.43c0,2.66-.12,5.32.03,7.97.17,2.93-2.62,3.42-3.39,2.4-2.04-2.7-3.26-.83-4.95-.02-3.82,1.83-7.73,2.08-11.28-.55-2.7-2-3.18-5.03-2.44-8.11.97-4.09,4.09-5.85,7.95-6.5,1.63-.27,3.31-.23,4.93-.53,1.39-.26,3.6,1.16,3.94-1.58.3-2.46-.82-4.1-3.15-5.03-3.05-1.21-5.87.18-8.78.64-.98.16-2.23,1.64-2.87-.2-.53-1.52-.16-3.08,1.62-3.64,4.33-1.36,8.71-2.04,13.16-.49,3.4,1.18,5.01,3.73,5.18,7.17.14,2.82.03,5.65.03,8.47.01,0,.02,0,.03,0Z"/>
      <path class="cls-24" d="M2677.13,324c-1.66,0-3.33-.13-4.98.04-1.34.14-3.36-.9-3.85.92-.34,1.24.25,3.04,1.01,4.21,2.82,4.31,7.15,4.08,11.59,3.53,1.48-.19,3.75-2.16,4.3,1,.49,2.8-2.19,2.74-3.69,2.91-5.77.67-12.01,1.71-16-3.9-3.87-5.44-3.67-11.61-.81-17.51,2.45-5.06,7.64-7.23,13.45-6.08,4.58.91,7.78,4.68,8.51,9.86.5,3.58-.24,5.77-4.55,5.06-1.62-.27-3.31-.04-4.97-.04Z"/>
      <path class="cls-24" d="M2454.55,322.94c.15-8.95,5.03-14.07,13.31-13.94,7.66.12,12.07,5.31,11.94,14.05-.13,8.75-5.24,14.06-13.42,13.95-7.71-.11-11.98-5.19-11.83-14.06Z"/>
      <path class="cls-24" d="M2395.05,319.66c-.02-12.64,6.52-19.51,17.83-18.6,1.62.13,3.25.62,4.78,1.19,1.83.68,1.72,2.44,1.28,3.82-.57,1.79-1.84.49-2.84.26-7.07-1.56-11.09-.4-13.65,3.95-3.13,5.31-2.52,15.46,1.18,19.34,3.35,3.51,7.52,2.73,11.67,2.33,1.26-.12,3.12-2.65,3.77.61.46,2.3-.92,3.17-2.98,3.7-12.99,3.35-21.42-3.46-21.04-16.59Z"/>
      <path class="cls-23" d="M2440.56,315.71c0,4.16.2,8.34-.06,12.49-.2,3.13.88,4.11,3.94,3.88,1.47-.11,4.09-1.23,4.05,1.96-.04,3.17-2.61,1.88-4.12,1.92-4.99.15-9.99.05-14.99.06-1.38,0-2.63.04-2.63-2,0-2.01,1.26-2.25,2.61-1.98,5.95,1.18,6.29-2.14,6.04-6.74-.33-6.14-.22-12.32-.02-18.48.1-2.96-.63-4.32-3.84-3.97-1.61.18-4.12.79-3.88-2.24.22-2.73,2.55-1.5,3.93-1.54,8.97-.26,8.97-.21,8.97,8.67,0,2.66,0,5.33,0,7.99Z"/>
      <path class="cls-11" d="M2507.72,322.99c0,3.49-.07,6.99.02,10.47.09,3.44-3.41,3.11-3.85,2.21-1.75-3.55-2.88-.98-4.33-.07-6.14,3.88-12.94.73-13.46-6.48-.39-5.46-.12-10.97-.22-16.45-.03-1.79.41-2.69,2.46-2.75,2.41-.07,2.7,1.13,2.66,3.06-.08,4.32-.02,8.65-.02,12.97,0,3.31.2,6.64,4.55,6.92,2.91.19,6.89-4.06,6.98-7.29.12-4.15.06-8.31.02-12.47-.02-1.79.02-3.2,2.53-3.2,2.38,0,2.73,1.13,2.68,3.08-.09,3.32-.02,6.65-.03,9.98Z"/>
      <path class="cls-17" d="M2551.77,326.61c0-1.17-.14-2.35.02-3.49.61-4.34-.26-7.15-5.6-6.17-1.38.25-3.12.4-3.04-2.04.08-2.48,1.91-2.05,3.21-1.86,4.3.63,5.63-.81,5.56-5.34-.12-7.58,8.15-12.32,15.57-9.56,1.74.65,1.69,1.86,1.54,3.18-.28,2.36-1.85,1.14-3,.99-6.9-.88-9.21,1.08-9.27,7.38-.02,2.61.72,3.6,3.35,3.33,1.98-.2,3.99-.02,5.99-.04,1.33-.01,2.19.33,2.2,1.93,0,1.51-.61,2.13-2.06,2.07-.33-.02-.67-.01-1,0q-8.42.49-8.42,9.18c0,2.5-.09,5,.02,7.49.1,2.19-1.16,2.31-2.84,2.35-1.82.05-2.29-.8-2.25-2.42.06-2.33.02-4.66.01-6.99Z"/>
      <path class="cls-24" d="M2588.97,315.37c0,3.16.16,6.33-.04,9.48-.28,4.44-.39,8.45,6.06,7.18,1.44-.28,2,.63,1.98,2.1-.02,1.66-.98,1.86-2.25,1.86-5.83,0-11.65,0-17.48,0-1.38,0-2.13-.46-2.11-2.03.02-1.58.87-2.2,2.17-1.93,6.82,1.41,6.94-2.61,6.66-7.62-.32-5.81-.26-11.65,0-17.46.15-3.31-.91-4.48-4.19-4.14-1.41.15-3.64.85-3.68-1.91-.05-2.93,2.27-1.81,3.63-1.86,9.26-.34,9.26-.3,9.26,8.84v7.49Z"/>
      <path class="cls-20" d="M2635.31,322.72c0-3.49-.05-6.98.02-10.47.07-3.52,3.91-2.42,4.05-1.88,1.27,5.17,3.07,1.07,4.33.29,3.05-1.91,6.16-2.39,9.42-.84,3.07,1.45,3.95,4.3,4.32,7.38.16,1.35.35,2.85-1.71,2.78-1.34-.05-3.19.74-3.42-1.67-.27-2.85-1.1-5.93-4.58-5-3.72,1-6.89,3.53-7.13,7.96-.21,3.81-.04,7.64-.05,11.47,0,1.66.26,3.27-2.39,3.35-2.72.08-2.93-1.31-2.88-3.38.08-3.32.02-6.65.03-9.97Z"/>
      <path class="cls-11" d="M2596.54,189.42c0,5.31.01,10.62-.02,15.93,0,.93.32,2.24-.96,2.49-1.07.21-3.18.1-3.24-.21-.98-4.51-2.66-.92-3.71-.27-5.83,3.63-11.75,1.7-13.96-4.78-1.43-4.18-1.48-8.51-.29-12.74,1.58-5.57,5.91-9.12,11.79-8.67,4.74.36,5.81-1.45,5.18-5.51-.05-.32-.02-.66,0-.99.06-1.75-.5-3.67,2.52-3.7,2.86-.03,2.72,1.61,2.71,3.52-.03,4.98,0,9.96-.01,14.93Z"/>
      <path class="cls-24" d="M2639.31,184.49c4.59-3.41,8.98-5.16,13.65-1.87,3.94,2.77,5.52,11.32,3.6,17.61-1.51,4.96-5.46,8.31-10.35,8.76-.82.08-1.66.04-2.49.04-9.09,0-9.58-.48-9.58-9.3,0-8.3.01-16.6,0-24.89,0-2.02-.33-3.99,2.87-3.86,3.15.13,2.22,2.29,2.28,3.89.11,2.98.03,5.97.03,9.62Z"/>
      <path class="cls-11" d="M2474.05,200.14c.62-5.08,1.4-10.14,1.81-15.23.2-2.49,1.3-3.1,3.49-2.88,2.66.27,1.51,2.17,1.35,3.38-.87,6.58-1.92,13.14-2.86,19.72-.22,1.55-.31,3.08-2.48,2.9-1.85-.15-4.01.73-4.8-2.17-.81-2.99-2.02-5.87-3.6-10.36-1.44,4.25-2.58,7.08-3.33,10.01-.68,2.67-2.51,2.48-4.56,2.57-2.53.11-2.48-1.64-2.72-3.24-.98-6.57-1.93-13.14-2.9-19.71-.21-1.42-1-3.01,1.6-3.12,1.99-.08,3.03.41,3.25,2.61.52,5.11,1.28,10.19,2.02,15.92,2.45-3.26,2.78-6.75,3.95-9.88.54-1.43.88-2.77,2.94-2.66,1.77.09,2.13,1.22,2.58,2.5,1.13,3.25,2.3,6.49,3.46,9.73.26-.03.53-.06.79-.08Z"/>
      <path class="cls-24" d="M2675.04,202.27c2.31-6.33,4.38-11.21,5.85-16.26,1.08-3.73,3.03-4.76,7.01-3.47-3.83,9.72-7.42,19.5-11.55,29.05-2.21,5.11-6.08,8.74-12.31,8.42-1.22-.06-2.78.44-2.9-1.7-.1-1.78.75-2.05,2.32-2.35,7.15-1.38,9.37-5.72,6.64-12.5-2.78-6.91-5.56-13.82-8.39-20.86,4-1.5,5.91-.19,7.11,3.55,1.61,5,3.76,9.84,6.22,16.13Z"/>
      <path class="cls-17" d="M2396.77,191.06c0-4.66,0-9.33,0-13.99,0-1.5-.21-3.1,2.12-3.03,3.99.11,8.04-.26,11.97.29,5.63.78,9.03,5.06,8.95,10.31-.09,5.61-4.22,10.22-10.17,11.25-1.14.2-2.35.29-3.48.12-3.48-.53-4.93.75-4.36,4.31.18,1.14.15,2.34,0,3.49-.22,1.69,1.14,4.2-2.38,4.27-3.92.08-2.52-2.73-2.6-4.53-.16-4.16-.05-8.33-.05-12.49Z"/>
      <path class="cls-24" d="M2558.14,196.04c-1.49,0-3-.13-4.48.04-1.36.15-3.29-.91-3.95.85-.58,1.54.08,3.31,1.13,4.67,2.98,3.85,7.08,3.67,11.33,3.14,1.53-.19,3.81-2.02,4.42.86.65,3.07-2.42,2.92-4.02,3.1-5.76.62-12.01,1.59-15.9-4.16-3.61-5.34-3.53-11.32-.76-17.09,2.52-5.27,7.96-7.59,13.84-6.26,4.95,1.12,7.92,5.38,8.28,11.09.2,3.18-.93,4.13-3.92,3.8-1.97-.21-3.98-.04-5.97-.04Z"/>
      <path class="cls-24" d="M2499.32,196.04c-1.66,0-3.33-.1-4.98.03-1.38.11-3.38-.8-4.01.75-.69,1.7.21,3.63,1.42,5.06,3.11,3.69,7.23,3.42,11.46,2.76,1.39-.22,3.37-1.84,4.02.91.57,2.42-1.51,2.73-3.05,2.94-5.94.83-12.04,1.85-16.61-3.56-3.44-4.08-3.7-12.79-.76-17.99,2.75-4.86,7.98-7.05,13.65-5.73,4.54,1.06,7.56,4.92,8.24,10.12.46,3.54-.43,5.38-4.41,4.75-1.62-.26-3.31-.04-4.97-.04Z"/>
      <path class="cls-24" d="M2449.95,194.73c.03,8.82-4.98,14.32-13.03,14.3-7.91-.02-12.16-4.81-12.14-13.7.01-9.08,4.74-14.32,12.9-14.3,7.83.02,12.25,4.95,12.28,13.7Z"/>
      <path class="cls-11" d="M2516.55,195.2c0-3.66,0-7.32.01-10.98,0-1.02.08-2.07,1.46-2.13.95-.04,2.5-.44,2.7.5.88,4.21,2.43,1.44,3.75.46,3.05-2.26,6.32-2.83,9.8-1.2,3.08,1.44,3.97,4.3,4.37,7.36.17,1.32.38,2.87-1.7,2.78-1.31-.06-3.14.81-3.41-1.65-.3-2.78-1.08-5.94-4.6-5.03-3.75.97-6.9,3.53-7.15,7.94-.23,3.98-.14,7.98-.02,11.97.07,2.19-.78,2.86-2.91,2.85-2.25,0-2.32-1.28-2.31-2.9.03-3.33,0-6.65.01-9.98Z"/>
      <path class="cls-11" d="M310.68,445.52c0,5.14.03,10.29-.02,15.43,0,1.07.47,2.66-1.11,2.86-1.22.16-2.99,1.04-3.56-1.34-.54-2.32-1.5-.5-2.23-.03-8.05,5.2-14.55,2.13-15.78-7.48-1.5-11.66,3.16-17.55,14.49-17.91,2.5-.08,3.21-.86,3.01-3.15-.13-1.48.06-2.99-.03-4.48-.12-2.02.88-2.48,2.7-2.5,2-.03,2.57.82,2.54,2.67-.07,5.31-.02,10.62-.02,15.93Z"/>
      <path class="cls-24" d="M195.9,463.47c-3.65,1.24-6.12.63-6.73-3.39-.41-2.73-2.09-3.4-4.61-3.16-1.98.19-4.02.21-5.99,0-3.06-.34-5.12.38-5.66,3.8-.58,3.67-3.06,3.74-6.28,2.75,3.52-10.47,7.1-20.84,10.46-31.28.8-2.5,2.48-2.21,4.29-2.25,1.86-.03,3.44-.14,4.22,2.3,3.32,10.44,6.85,20.82,10.3,31.22Z"/>
      <path class="cls-11" d="M242.38,441.09c1.86-3.1,4.07-5.19,7.42-3.82,3.13,1.28,3.26,4.37,3.29,7.23.07,5.49.02,10.98.02,16.47,0,1.49.25,2.97-2.13,3.02-2.56.06-2.52-1.43-2.52-3.21-.02-5.66-.07-11.31-.16-16.97-.02-.94.1-2.19-1.17-2.45-1.17-.24-1.69.83-2.23,1.64-1.31,1.97-2.16,4.03-2.07,6.51.14,3.99-.04,7.99.06,11.98.05,2.08-.96,2.45-2.75,2.47-1.95.02-2.11-1.08-2.1-2.56.02-5.49.02-10.98,0-16.47,0-1.3.35-3.14-1.1-3.54-1.79-.49-2.23,1.52-3.02,2.7-1.27,1.89-1.49,3.99-1.45,6.2.07,3.83-.04,7.65.02,11.48.03,1.85-.96,2.2-2.51,2.17-1.35-.03-2.24-.36-2.24-1.92.02-7.49.01-14.97.02-22.46,0-1.33,1.21-2.09,1.91-1.54,2.63,2.06,4.22.26,6.47-.81,2.85-1.35,5,.65,6.27,3.86Z"/>
      <path class="cls-11" d="M204.97,440.18c3.08-1.91,5.35-3.41,8.42-3.29,4.31.17,7.03,2.13,7.79,6.26,1.14,6.26.31,12.62.47,18.93.05,2.02-1.4,1.83-2.75,1.9-1.65.08-2.46-.49-2.44-2.25.05-4.49.03-8.99,0-13.49-.02-3.2.24-6.73-4.21-7.17-2.97-.29-7.16,4.23-7.25,7.63-.11,3.99-.03,7.99-.03,11.99,0,1.67.27,3.25-2.36,3.35-2.9.1-2.72-1.58-2.72-3.49.02-10.16.03-20.31,0-30.47,0-1.81.02-3.18,2.54-3.17,2.49,0,2.6,1.32,2.56,3.16-.06,3.16-.02,6.32-.02,10.12Z"/>
      <path class="cls-24" d="M280.97,453.37c0,2.5-.18,5.01.04,7.49.31,3.43-2.39,4.18-3.8,2.72-2.24-2.31-3.22-.38-4.7.26-3.91,1.67-7.82,2.01-11.29-.79-2.98-2.41-3.16-5.87-1.86-9.14,1.89-4.77,6.41-5.12,10.73-5.91,1.96-.36,5.52,2.24,5.73-2.24.15-3.23-3.16-5.24-7.38-4.69-1.48.19-2.91.77-4.38.92-1.01.1-2.48,2.12-3.06-.44-.31-1.38.03-2.49,1.48-3.31,9.34-5.26,18.49-.03,18.49,10.64,0,1.5,0,3,0,4.5Z"/>
      <path class="cls-24" d="M406.18,451.41c-.03-9.04,4.73-14.42,12.8-14.45,7.89-.03,12.33,4.82,12.43,13.56.1,8.81-4.91,14.42-12.89,14.44-7.95.02-12.31-4.77-12.34-13.55Z"/>
      <path class="cls-2" d="M518.67,451.49c0,3.32-.11,6.65.03,9.97.13,3-2.91,3.22-3.44,2.32-2.15-3.62-3.61-.8-5.26.12-5.92,3.31-12.35.31-12.87-6.4-.44-5.62-.15-11.29-.27-16.94-.04-1.86.55-2.66,2.54-2.65,1.96,0,2.62.72,2.58,2.63-.09,4.49-.02,8.97-.03,13.46,0,3.12.15,6.25,4.11,6.85,2.83.43,7.19-3.65,7.33-6.9.18-4.31.1-8.64.03-12.96-.03-1.9.23-3.1,2.64-3.1,2.44,0,2.65,1.25,2.62,3.12-.07,3.49-.02,6.98-.02,10.47Z"/>
      <path class="cls-12" d="M533.02,453.74c0-1-.11-2.01.02-2.99.54-4.14-.39-6.74-5.4-5.83-1.33.24-3.14.54-3.17-1.91-.03-2.42,1.71-2.24,3.09-2,4.82.85,5.56-1.47,5.62-5.73.11-7.35,9.48-12.42,15.96-9.06,1.31.68,1.37,1.79,1.24,2.96-.25,2.21-1.71,1.3-2.97,1.15-7.03-.87-9.32,1.02-9.37,7.22-.02,2.5.54,3.72,3.29,3.45,1.98-.2,3.99-.02,5.98-.04,1.27,0,2.26.16,2.34,1.81.09,1.88-.93,2.12-2.46,2.22-2.92.2-7.1-1.43-8.45.81-1.49,2.47-.55,6.41-.63,9.71-.04,1.66-.04,3.33,0,4.99.04,1.9.22,3.61-2.69,3.52-2.62-.08-2.41-1.62-2.4-3.31.01-2.33,0-4.66,0-6.99Z"/>
      <path class="cls-11" d="M459.11,450.93c0,3.32-.12,6.65.03,9.97.17,3.85-3.08,4.12-4.15,2.43-1.8-2.85-2.51-.72-3.58-.05-6.76,4.23-13.33,1.23-13.94-6.68-.41-5.29-.11-10.63-.2-15.94-.03-1.81.47-2.69,2.5-2.75,2.34-.07,2.76,1.03,2.72,3.01-.08,4.32-.05,8.64-.01,12.96.03,3.25.08,6.67,4.49,6.98,2.85.2,6.94-4.09,7.04-7.24.13-4.15.05-8.31.03-12.46,0-1.73-.13-3.24,2.45-3.26,2.4-.02,2.72,1.12,2.66,3.06-.09,3.32-.02,6.65-.02,9.97Z"/>
      <path class="cls-24" d="M374.23,430.42c4.06-1.31,6.39-.12,8.04,3.61,1.84,4.17,4.34,8.05,6.91,12.71,2.54-4.73,4.94-8.66,6.79-12.83,1.54-3.48,3.62-4.9,7.7-3.42-3.26,5.82-6.19,11.78-9.82,17.27-2.84,4.3-2.32,8.83-2.37,13.41-.02,1.67-.16,2.93-2.37,2.83-1.68-.08-3.17-.25-2.79-2.37,1.89-10.47-5.06-17.74-9.29-25.99-.89-1.74-1.84-3.44-2.79-5.21Z"/>
      <path class="cls-24" d="M475.54,465.04c-1.66-.11-3.33-.12-4.97-.35-1.79-.25-3.18-1.03-2.86-3.24.38-2.57,2.31-1.48,3.49-1.24,2.8.57,5.57,1.15,8.38.46,1.57-.38,3.37-.8,3.57-2.93.2-2.08-1.33-2.96-2.88-3.6-2.6-1.08-5.33-1.82-7.88-3-2.75-1.27-4.49-3.44-4.34-6.67.15-3.18,1.96-5.18,4.74-6.45,3.83-1.75,7.84-1.04,11.79-.82,1.91.11,2.43,1.49,2.22,3.2-.26,2.18-1.87,1.53-3.04,1.24-2.46-.61-4.92-1.02-7.39-.34-1.42.39-2.97.92-3.17,2.75-.19,1.8.99,2.75,2.45,3.34,1.99.81,4.02,1.52,6.05,2.22,4.1,1.4,7.38,3.54,6.56,8.55-.79,4.82-4.65,6.07-8.75,6.73-1.3.21-2.66.03-3.99.03,0,.04,0,.08,0,.12Z"/>
      <path class="cls-11" d="M206.27,174.03c15.16,0,22.82,13.07,15.5,26.52-2.93,5.39-7.9,7.32-13.73,7.48q-9.57.26-9.57-9.11c0-6.49.28-13-.1-19.48-.25-4.31.87-6.29,5.41-5.42.8.15,1.66.02,2.49.02Z"/>
      <path class="cls-24" d="M348.29,200.54c0-5.31.07-10.63-.03-15.94-.07-3.43,3.41-3.14,3.83-2.26,1.71,3.61,2.94,1.06,4.44.15,5.63-3.42,11.46-1.42,13.78,4.69,2.44,6.41,1.09,14.9-2.99,18.7-3.02,2.81-6.71,3.74-10.61,3.05-2.91-.52-3.49.54-3.27,3.04.13,1.48-.06,2.99.04,4.48.12,1.9-.6,2.65-2.57,2.63-1.9-.02-2.67-.63-2.64-2.6.08-5.31.03-10.63.03-15.94Z"/>
      <path class="cls-12" d="M429.45,189.58c0,5.16-.13,10.32.05,15.47.11,3-2.56,4.09-3.47,2.72-2.31-3.49-3.54-.91-5.26.07-4.19,2.39-8.88,1.53-11.6-2.11-3.85-5.14-3.49-15.8.75-20.66,2.71-3.11,6.22-4.44,10.26-3.97,3.19.37,4.65-.58,4.14-3.96-.17-1.14.05-2.33-.04-3.49-.14-1.92.64-2.64,2.59-2.64,1.94,0,2.63.7,2.61,2.61-.07,5.32-.03,10.64-.02,15.97Z"/>
      <path class="cls-24" d="M472.1,184.6c3.13-2.42,5.96-3.96,9.5-3.6,1.94.2,3.5.89,4.86,2.2,4.51,4.35,5,15.49.92,21.01-3.54,4.79-13.17,6.62-18.76,3.68-1.48-.78-1.61-1.92-1.61-3.3,0-10.16.02-20.31-.01-30.47,0-1.85.1-3.15,2.58-3.15,2.52,0,2.56,1.38,2.53,3.19-.05,3.16-.01,6.32-.01,10.44Z"/>
      <path class="cls-24" d="M494.65,182.54c4.07-1.28,5.9-.11,7.02,3.26,1.7,5.14,3.86,10.13,6.3,16.38,2.29-6.17,4.42-11.15,5.96-16.32,1.04-3.48,2.8-4.59,6.77-3.37-4.25,10.54-7.07,21.62-12.8,31.53-2.39,4.13-6.23,6.39-11.26,6.01-1.12-.09-2.39.2-2.48-1.62-.08-1.67.53-2.13,2.21-2.46,7.3-1.44,9.48-5.68,6.72-12.51-2.8-6.92-5.59-13.84-8.44-20.91Z"/>
      <path class="cls-24" d="M242.72,196.04c-1.67,0-3.33-.02-5,0-4.13.06-5,1.44-2.89,4.97,2.7,4.52,7.08,4.23,11.51,3.76,1.54-.16,3.78-2.04,4.49.75.79,3.1-2.31,3.01-3.91,3.18-5.78.61-12.04,1.61-15.95-4.17-3.63-5.36-3.51-11.37-.73-17.14,2.53-5.27,8.06-7.56,13.92-6.16,4.81,1.15,7.69,5.19,8.12,10.72.26,3.26-.77,4.55-4.08,4.13-1.8-.23-3.66-.04-5.49-.04Z"/>
      <path class="cls-24" d="M390.92,196.04c-1.49,0-3-.11-4.48.03-1.37.13-3.3-.82-3.99.79-.65,1.53.18,3.31,1.17,4.65,2.9,3.94,7.03,3.75,11.28,3.24,1.51-.18,3.8-2.1,4.42.84.64,3.04-2.37,2.94-4.01,3.12-5.6.58-11.64,1.53-15.58-3.84-3.86-5.26-3.67-11.27-1.19-17.07,2.3-5.37,7.58-7.77,13.61-6.67,4.94.9,8.22,5.09,8.73,10.73.28,3.13-.56,4.65-3.99,4.22-1.96-.25-3.98-.04-5.97-.04Z"/>
      <path class="cls-24" d="M316.9,195.51c-.03-9.12,4.64-14.44,12.73-14.47,7.91-.03,12.36,4.8,12.46,13.52.1,8.84-4.88,14.44-12.87,14.48-7.98.03-12.29-4.69-12.32-13.53Z"/>
      <path class="cls-24" d="M303.12,187.7c0,3.99.23,8.01-.07,11.98-.27,3.49.83,4.83,4.39,4.43,1.34-.15,3.56-1,3.66,1.86.1,2.92-2.09,2.02-3.51,2.04-5.16.09-10.32.05-15.48.02-1.27,0-2.71.29-2.82-1.81-.12-2.39,1.51-2.44,2.95-2.14,5.71,1.18,6.07-2,5.87-6.41-.28-6.14-.19-12.31-.02-18.47.08-2.95-.33-4.79-3.96-4.36-1.54.19-4.11.94-3.87-2.19.21-2.79,2.54-1.52,3.9-1.56,8.97-.27,8.97-.22,8.97,8.62,0,2.66,0,5.32,0,7.99Z"/>
      <path class="cls-24" d="M257.1,182.48c4.07-1.22,6.2-.18,7.09,3.6.61,2.57,1.83,4.99,2.77,7.48.92,2.43,1.83,4.87,3.29,8.75,2.34-6.22,4.42-11.17,6.04-16.26,1.13-3.54,2.95-4.95,6.88-3.5-3.13,7.86-6.3,15.69-9.34,23.57-.81,2.1-2.4,1.85-4.06,1.94-1.74.1-2.72-.49-3.37-2.17-3-7.74-6.12-15.44-9.29-23.41Z"/>
      <path class="cls-17" d="M193.94,318.3c.17,4.46-.35,8.4-2.18,12.04-2.41,4.79-6.29,7.02-11.72,6.67-5.12-.33-8.31-3.1-9.91-7.72-2.3-6.64-2.34-13.39-.04-20.03,2.02-5.82,6.12-8.47,12.12-8.26,5.24.18,8.9,3.18,10.61,8.87.86,2.87,1.4,5.82,1.12,8.43Z"/>
      <path class="cls-11" d="M301.57,313.25c2.3-3.08,4.46-5.44,7.88-3.89,3.07,1.39,3.12,4.53,3.19,7.35.13,5.49.02,10.99.05,16.48,0,1.67-.19,2.85-2.38,2.86-2.24,0-2.3-1.25-2.29-2.88.03-5.16.06-10.32-.04-15.48-.03-1.54.53-3.9-1.47-4.23-1.82-.3-2.39,2.02-3.14,3.43-2.17,4.07-.49,8.54-1.2,12.75-.36,2.16,2.08,6.04-2.19,6.21-4.63.18-2.22-3.92-2.4-6.01-.4-4.63-.11-9.31-.18-13.97-.01-.91.14-2.18-1.13-2.45-1.18-.24-1.64.87-2.25,1.63-2.5,3.15-2.08,6.87-2.06,10.52.02,2.83-.04,5.66,0,8.49.02,1.56-.8,1.97-2.18,1.96-1.44,0-2.63-.05-2.62-2.03.05-7.32.01-14.65.03-21.97,0-.49-.03-1.2.25-1.42.46-.36,1.48-.74,1.73-.52,3.64,3.26,9.72-5.91,12.39,3.19Z"/>
      <path class="cls-24" d="M255.07,335.52c-3.89,1.22-6.15.38-6.72-3.28-.42-2.69-1.96-3.51-4.54-3.28-2.15.19-4.35.23-6.49,0-2.98-.33-4.73.68-5.22,3.71-.59,3.68-2.97,3.85-6.3,2.86,3.54-10.57,7.1-21.08,10.57-31.62.83-2.54,2.81-1.77,4.52-1.9,1.75-.14,3.15.03,3.83,2.16,3.36,10.44,6.86,20.83,10.36,31.37Z"/>
      <path class="cls-24" d="M369.96,317.71c0,5.16.03,10.33-.03,15.49-.01,1.03.54,2.61-1.25,2.7-1.16.06-2.9.86-3.33-1.06-.72-3.2-1.76-.63-2.49-.15-7.11,4.74-13.53,2.24-15.31-6.11-.84-3.96-.89-7.97.65-11.81,1.91-4.76,5.45-8.05,10.59-7.61,5.67.48,6.85-1.83,6.15-6.68-.26-1.82-.35-3.62,2.6-3.56,3.08.07,2.39,2.1,2.41,3.78.05,5,.02,9.99.02,14.99Z"/>
      <path class="cls-24" d="M264.47,312.21c1.59-.95,2.77-1.79,4.07-2.4,6-2.81,11.9.27,12.39,6.8.42,5.62.09,11.3.22,16.95.05,2.07-.91,2.45-2.72,2.48-2.13.04-2.43-1.07-2.4-2.79.06-4.32.01-8.65.02-12.97,0-3.25.08-6.69-4.25-7.18-2.96-.34-7.18,4.17-7.29,7.6-.12,3.99-.02,7.98-.04,11.97-.01,1.61.39,3.33-2.32,3.39-2.69.06-2.89-1.3-2.87-3.39.06-10.14.03-20.29.02-30.43,0-1.73-.13-3.22,2.44-3.31,2.83-.1,2.79,1.52,2.76,3.47-.05,3.11-.01,6.21-.01,9.8Z"/>
      <path class="cls-24" d="M340.1,325.36c0,2.66-.14,5.33.04,7.98.2,2.88-2.22,3.56-3.3,2.44-2.44-2.54-3.89-.35-5.72.33-3.78,1.4-7.5,1.67-10.82-1.05-2.64-2.17-2.85-5.21-2.09-8.24.97-3.88,3.98-5.54,7.67-6.14,1.79-.29,3.63-.3,5.42-.58,1.29-.21,3.28.91,3.64-1.37.34-2.14-.49-3.85-2.55-4.94-3.16-1.67-6.16-.18-9.23.25-1.01.14-2.49,2.03-3.06-.46-.38-1.66.21-2.88,1.98-3.45,3.88-1.25,7.85-1.71,11.78-.72,3.96,1,6.19,3.72,6.22,7.97.02,2.66,0,5.32,0,7.98Z"/>
      <path class="cls-24" d="M406.18,323.1c.06-8.95,4.94-14.18,13.14-14.11,7.74.07,12.13,5.13,12.07,13.9-.06,8.83-5.07,14.18-13.22,14.1-7.79-.07-12.06-5.01-12-13.89Z"/>
      <path class="cls-2" d="M518.67,322.83c0,3.49-.12,6.99.03,10.47.14,3.31-3.16,3.46-3.7,2.42-1.77-3.4-2.89-1.15-4.42-.17-6.35,4.04-13.09.74-13.55-6.81-.32-5.3-.1-10.63-.16-15.95-.02-1.67.14-2.82,2.34-2.85,2.25-.03,2.84.86,2.78,2.94-.11,4.32-.03,8.64-.03,12.96,0,3.28.07,6.65,4.41,7.05,2.9.27,6.93-3.94,7.04-7.21.14-4.15.05-8.31.04-12.46,0-1.7-.18-3.23,2.43-3.3,2.78-.07,2.86,1.42,2.82,3.43-.07,3.16-.02,6.32-.02,9.47Z"/>
      <path class="cls-12" d="M533.02,326.54c0-1.16-.15-2.35.03-3.49.67-4.43-.41-7.06-5.63-6.09-1.48.28-3.07.2-2.95-2.16.11-2.09,1.58-1.94,2.83-1.77,4.25.57,5.99-.6,5.91-5.45-.13-7.48,8.56-12.33,15.69-9.39,1.66.69,1.64,1.91,1.44,3.26-.27,1.88-1.55,1.11-2.66.99-7.55-.82-9.7.92-9.62,7.39.03,2.26.46,3.44,3.02,3.21,2.15-.19,4.32,0,6.48-.04,1.42-.02,2.11.53,2.1,2.05-.01,1.57-.83,2.01-2.19,1.95-.33-.01-.67-.01-1,0q-8.36.43-8.36,8.78c0,1.83.21,3.69-.06,5.48-.26,1.75,1.55,4.61-2.35,4.76-3.91.15-2.43-2.68-2.63-4.5-.18-1.64-.04-3.32-.04-4.99Z"/>
      <path class="cls-11" d="M459.1,323.31c0,3.32-.14,6.66.04,9.97.18,3.33-2.93,3.54-3.66,2.43-2.08-3.16-3.2-.84-4.77.09-5.85,3.46-12.35.68-13.06-6.03-.61-5.76-.23-11.61-.38-17.42-.06-2.16,1.15-2.35,2.84-2.37,1.71-.03,2.37.64,2.35,2.34-.05,4.49-.03,8.97,0,13.46.03,3.23-.02,6.68,4.34,7.13,2.99.31,7.11-4.15,7.19-7.6.1-4.15.11-8.31,0-12.46-.06-2.13.62-2.93,2.83-2.9,2.22.04,2.32,1.26,2.3,2.9-.04,3.49-.01,6.98-.01,10.47Z"/>
      <path class="cls-24" d="M389.16,318.82c2.58-4.82,4.75-8.87,6.91-12.92q2.22-4.15,7.62-3.38c-2.83,5.02-5.4,10.03-8.4,14.76-2.86,4.5-4.45,9.13-3.91,14.52.16,1.63,1.17,4.15-2.36,4.25-3.33.09-2.98-2.12-2.69-3.97,1.02-6.4-1.73-11.56-4.9-16.72-2.58-4.2-4.85-8.58-7.29-12.93,4.22-1.33,6.53,0,8.16,3.71,1.78,4.07,4.21,7.86,6.85,12.67Z"/>
      <path class="cls-24" d="M475.63,337.16c-1.97-.22-3.96-.35-5.92-.67-1.56-.25-2.12-1.32-2.02-2.9.15-2.23,1.74-1.68,2.91-1.46,2.78.53,5.56,1.28,8.39.7,1.73-.35,3.82-.63,4.12-2.96.3-2.32-1.47-3.14-3.22-3.83-2.46-.97-5.02-1.71-7.42-2.82-2.74-1.26-4.55-3.39-4.43-6.62.13-3.4,2.11-5.41,5.11-6.7,3.54-1.52,7.21-.81,10.83-.77,1.99.02,3.1,1.07,2.83,3.19-.33,2.55-2.13,1.51-3.43,1.24-2.64-.55-5.22-.98-7.84.06-1.14.45-2.13,1.04-2.32,2.34-.21,1.52.56,2.59,1.91,3.15,2.14.89,4.31,1.7,6.49,2.47,4.04,1.43,7.46,3.46,6.66,8.49-.81,5.06-4.84,6.29-9.15,6.87-1.14.15-2.33.02-3.49.02,0,.06-.01.12-.02.18Z"/>
      <path class="cls-24" d="M198.47,310.59c5.95-2.48,7.81,1.82,9.82,5.26,2.08,3.55,3.45,3.7,5.54.02,1.9-3.35,3.53-7.64,9.18-5.45-1.84,3.82-4.85,6.91-7.42,10.26-1.36,1.78-1.43,2.98.08,4.7,2.79,3.21,5.33,6.65,8.25,10.34-3.43.3-6.19,1.11-8.05-2.14-1.38-2.42-3.18-4.59-4.79-6.86-4.53,2.97-4.72,11.41-13.13,8.76,2.49-3.18,4.62-6.33,7.2-9.05,2.49-2.63,2.25-4.61-.06-7.16-2.41-2.67-4.39-5.72-6.62-8.68Z"/>
      <path class="cls-17" d="M2093.84,446.75c.1,4.56-.52,8.64-2.63,12.36-2.58,4.53-6.57,6.29-11.69,5.85-4.65-.4-7.75-2.96-9.3-7.14-2.58-6.93-2.62-14.02-.11-20.97,1.99-5.51,6.11-8.05,11.9-7.88,5.28.16,8.92,3.12,10.68,8.78.94,3.03,1.35,6.16,1.16,9Z"/>
      <path class="cls-17" d="M2127.92,447.03c-.03-4.2.47-8.31,2.54-12.05,2.51-4.53,6.46-6.39,11.61-6.03,4.92.35,8.02,3.1,9.59,7.46,2.39,6.59,2.45,13.38.24,20.03-2.02,6.08-6.27,8.81-12.44,8.51-5.35-.26-8.87-3.46-10.58-9.55-.77-2.75-.95-5.55-.96-8.38Z"/>
      <path class="cls-2" d="M2020.17,434.84c-2.42,1.3-4.15,2.18-5.83,3.15-1.3.76-2.39,1.14-3.09-.71-.51-1.34-.9-2.56.9-3.22.16-.06.3-.13.46-.19,4.11-1.51,8.29-5.84,12.36-3.35,2.61,1.59.72,6.79.86,10.35.18,4.81.18,9.63,0,14.44-.11,2.81.35,4.46,3.7,4.04,1.9-.24,4.29-.56,4.03,2.7-.24,3.14-2.7,1.8-4.19,1.85-4.81.17-9.63.11-14.45.03-1.46-.02-3.53.79-3.56-2.06-.02-2.41,1.45-2.87,3.25-2.53,5.28.98,5.92-1.76,5.66-6.13-.34-5.78-.08-11.61-.08-18.37Z"/>
      <path class="cls-24" d="M1979.02,438.48c4.08-1.49,5.99-.09,7.14,3.73,1.48,4.92,3.56,9.66,5.98,16.05,2.33-6.23,4.42-11.29,6.1-16.48,1.08-3.33,2.82-4.68,6.79-3.32-3.14,7.92-6.17,15.9-9.5,23.75-1.16,2.73-5.9,2.61-7.07-.16-3.28-7.8-6.32-15.7-9.46-23.57Z"/>
      <path class="cls-3" d="M2110.57,465c-2.61-.18-4.34-1.45-4.46-4.19-.12-2.97,1.64-4.71,4.46-4.74,2.85-.02,4.58,1.77,4.5,4.71-.07,2.74-1.78,4.06-4.5,4.22Z"/>
      <path class="cls-3" d="M2051.24,464.99c-2.69-.08-4.43-1.37-4.59-4.09-.17-2.93,1.48-4.76,4.36-4.83,2.89-.07,4.65,1.78,4.65,4.62,0,2.64-1.72,4.12-4.42,4.3Z"/>
      <path class="cls-4" d="M1518.96,254.12c0,20.3-.08,40.61.08,60.91.03,3.68-.59,5.14-4.78,5.08-17.97-.26-35.96-.19-53.93-.04-3.3.03-4.54-.54-4.53-4.24.14-41.28.13-82.55,0-123.83-.01-3.41,1.11-4.05,4.22-4.03,18.31.13,36.62.15,54.93-.01,3.41-.03,4.09,1.11,4.07,4.25-.13,20.64-.06,41.28-.06,61.91Z"/>
      <path class="cls-4" d="M1845.38,254.53c0,20.32-.11,40.64.1,60.95.04,3.84-1.09,4.65-4.74,4.61-17.99-.19-35.98-.17-53.97-.01-3.41.03-4.51-.8-4.5-4.37.12-41.13.12-82.27,0-123.4-.01-3.6,1.14-4.37,4.52-4.34,17.99.16,35.98.18,53.97-.02,3.68-.04,4.75.82,4.71,4.63-.2,20.65-.1,41.3-.1,61.95Z"/>
      <path class="cls-4" d="M1693.36,253.93c0-20.49.07-40.98-.07-61.47-.02-3.39.73-4.64,4.36-4.51,8.16.28,16.34.33,24.49-.02,4.02-.17,4.58,1.35,4.55,4.84-.16,18.16.06,36.32-.17,54.47-.05,4.05,1.2,5.01,5.01,4.85,7.15-.29,14.33.01,21.49-.14,2.56-.05,3.44.67,3.43,3.33-.1,20.49-.1,40.98,0,61.47.01,2.73-.99,3.29-3.48,3.28-18.66-.09-37.32-.14-55.98.04-3.47.03-3.66-1.5-3.65-4.18.07-20.66.04-41.31.04-61.97Z"/>
      <path class="cls-15" d="M1248.04,253.75c0-20.31.12-40.63-.1-60.93-.04-4.05,1.18-4.91,5-4.87,17.98.2,35.97.17,53.95.01,3.25-.03,4.18.86,4.17,4.15-.11,41.29-.11,82.58,0,123.87,0,3.36-1.04,4.12-4.22,4.1-18.15-.14-36.3-.16-54.45.01-3.49.03-4.46-.88-4.43-4.41.17-20.64.08-41.29.08-61.93Z"/>
      <path class="cls-6" d="M1345.05,222.03c0-7.48.13-14.96-.06-22.44-.07-2.88.88-3.64,3.67-3.61,13.3.13,26.6.13,39.9,0,2.81-.03,3.64.78,3.62,3.6-.13,14.96-.13,29.92,0,44.88.02,2.81-.79,3.64-3.61,3.61-13.3-.14-26.6-.13-39.9,0-2.78.03-3.76-.7-3.68-3.6.19-7.48.06-14.96.06-22.44Z"/>
      <path class="cls-4" d="M1396.21,459.96c-3.78.99-4.23-1.75-3.49-4.55.69-2.62-3.18-7.6,3.55-7.48,5.55.1,8.74,2.1,8.83,5.88.09,3.98-2.83,6.1-8.89,6.15Z"/>
      <path class="cls-14" d="M1392.44,437.29c-.4-1.98.38-3.86,4.2-3.36,3.3.43,7.28.19,7.19,4.84-.09,4.64-3.99,4.84-7.58,5.24-5.03.57-3.36-3.05-3.81-6.72Z"/>
      <path class="cls-4" d="M1006.63,453.82c.45-2.36-1.76-6.4,3.98-5.94,5.48.44,8.62,2.41,8.5,6.25-.12,3.92-3.08,5.88-8.78,5.82q-3.7-.04-3.71-6.14Z"/>
      <path class="cls-14" d="M1006.54,437.81c-.24-1.89-.24-4.53,4.18-3.89,3.3.48,7.27.24,7.13,4.9-.14,4.63-4.06,4.75-7.63,5.19-4.65.57-3.45-2.63-3.68-6.21Z"/>
      <path class="cls-8" d="M842.43,446.12c.02,4.24-.29,7.55-1.91,10.56-1.43,2.65-3.63,4.44-6.78,4.21-3.09-.23-5.25-2.09-6.28-4.96-2.1-5.82-2.18-11.72,0-17.53,1.19-3.18,3.41-5.49,7.01-5.34,3.51.14,5.66,2.35,6.84,5.62.97,2.72,1.02,5.52,1.13,7.45Z"/>
      <path class="cls-8" d="M1287.97,446.86c.11,3.2-.38,6.3-1.7,9.22-1.33,2.93-3.53,4.94-6.89,4.8-3.1-.12-5.33-1.96-6.37-4.82-2.22-6.15-2.3-12.37.26-18.45,1.17-2.77,3.38-4.64,6.53-4.58,3.32.07,5.55,2,6.74,5.03,1.1,2.81,1.5,5.77,1.43,8.79Z"/>
      <path class="cls-8" d="M1851.94,446.99c.09,3.2-.41,6.3-1.75,9.21-1.27,2.75-3.36,4.66-6.48,4.68-3.34.03-5.67-1.89-6.78-4.95-2.16-5.98-2.2-12.06.15-17.99,1.18-2.97,3.43-5.01,6.82-4.9,3.32.11,5.52,2.12,6.66,5.15,1.06,2.82,1.48,5.78,1.37,8.8Z"/>
      <path class="cls-5" d="M797.21,446.72c0-1.83-.17-3.68.04-5.49.28-2.36-1.43-5.82.99-6.87,3.17-1.38,6.95-.47,9.97,1.6,3.86,2.65,5.23,11.08,2.97,17.21-1.67,4.55-5.7,6.93-11.06,6.83-2.07-.04-3.04-.54-2.95-2.8.14-3.49.04-6.99.03-10.49Z"/>
      <path class="cls-8" d="M1124.06,446.91c0-2-.2-4.02.05-5.99.29-2.29-1.48-5.65,1.22-6.67,3.05-1.15,6.62-.34,9.52,1.61,3.91,2.62,5.39,10.85,3.22,17.13-1.59,4.59-5.5,6.96-10.93,7.02-2.39.03-3.25-.7-3.13-3.11.17-3.32.04-6.66.04-9.99Z"/>
      <path class="cls-10" d="M1042.61,436.73c1.39,4.3,2.75,8.62,4.19,12.91.65,1.95,0,2.52-2,2.74-7.88.87-8.34.4-6-6.96.93-2.91,1.85-5.82,2.78-8.74.35.02.69.03,1.04.05Z"/>
      <path class="cls-10" d="M1784.62,436.83c1.25,3.92,2.37,7.9,3.8,11.75,1.01,2.73.68,4.07-2.56,3.77-1.48-.13-2.97-.07-4.46-.02-1.89.06-2.82-.45-2.09-2.59,1.48-4.31,2.84-8.66,4.25-13,.35.03.71.05,1.06.08Z"/>
      <path class="cls-10" d="M745.63,436.76c1.36,4.19,2.62,8.42,4.1,12.57.98,2.77-.39,3.05-2.59,3.03-9.54-.07-7.55.29-5.42-6.63.91-2.97,1.91-5.92,2.86-8.87.35-.03.7-.06,1.05-.09Z"/>
      <path class="cls-8" d="M1867.86,439.03c.46-1.97-1.6-5.58,3.33-5.1,3.5.34,6.87.6,7.13,5.15.21,3.58-2.54,5.78-7.13,5.88q-3.34.07-3.33-5.93Z"/>
      <path class="cls-10" d="M1368.59,435.21c1.78,5.53,3.05,9.83,4.56,14.03.91,2.53.1,3.04-2.36,3.15-7.96.36-7.96.45-5.54-7.09.96-2.99,1.97-5.97,3.34-10.08Z"/>
      <path class="cls-13" d="M950.3,433.81c4.58.41,7.92,1.26,7.62,5.76-.3,4.58-3.9,5.51-7.59,5.34-5.69-.27-2.12-4.74-2.84-7.2-.86-2.93.62-4.43,2.81-3.89Z"/>
      <path class="cls-8" d="M1540.88,440.57c1.36-1.85-2.99-6.85,3.58-6.65,6,.18,8.94,2.28,8.92,6.97-.02,4.64-3.07,7.06-8.91,7.07q-3.59,0-3.59-7.39Z"/>
      <path class="cls-7" d="M1243.78,440.88c1.43-2.39-2.45-7.28,4.04-6.97,5.88.28,8.92,2.48,8.8,7.13-.12,4.58-3.29,6.87-9.08,6.96-6.51.1-2.09-4.91-3.77-7.12Z"/>
      <path class="cls-15" d="M2467.09,448.35c-1.99-1.24-5.78,1.63-6.05-1.94-.26-3.31,2.42-5.57,6.24-5.59,3.8-.02,6.6,2.09,6.25,5.5-.41,3.95-4.38.61-6.43,2.02Z"/>
      <path class="cls-15" d="M2675.18,448.5c-2.45-1.25-6.21,1.28-6.55-1.89-.34-3.18,2.25-5.71,6.1-5.77,3.72-.06,6.63,1.76,6.39,5.35-.3,4.49-4.51.08-5.94,2.31Z"/>
      <path class="cls-7" d="M2531.85,320.63c.93,4.62-.57,8.21-4.28,10.95-3.17,2.33-5.81,1.57-7.24-1.84-1.72-4.11-1.8-8.55.07-12.63,1.56-3.41,4.7-4.52,8.36-3.94,5.06.81,2.46,4.86,3.09,7.46Z"/>
      <path class="cls-7" d="M2621.13,327.24c-.26,2.62-4.68,5.97-7.76,5.7-2.74-.25-4.23-1.83-3.91-4.67.37-3.24,4.09-4.7,9.38-4.34,2.68.18,2.31,1.68,2.29,3.32Z"/>
      <path class="cls-15" d="M2674.59,320.39c-1.94-1.28-5.73,1.64-5.95-1.93-.2-3.26,2.44-5.63,6.29-5.59,3.75.03,6.62,2.03,6.17,5.54-.5,3.89-4.43.57-6.52,1.98Z"/>
      <path class="cls-5" d="M2459.73,322.9c-.08-2.92.42-5.68,2.57-7.84,3.33-3.35,8.66-2.48,11,1.73,1.09,1.96,1.28,4.11,1.26,6.29-.06,6.04-3.06,9.96-7.56,9.89-4.62-.08-7.3-3.79-7.27-10.07Z"/>
      <path class="cls-5" d="M2591.28,192.76c.41,3.77.08,7.2-3.1,9.94-4.19,3.62-7.8,2.66-8.98-2.82-.48-2.23-.49-4.63-.29-6.91.45-5.28,3.71-8.17,8.33-7.91,5.74.33,3.72,4.64,4.05,7.71Z"/>
      <path class="cls-14" d="M2652.14,193.95c.07,8.48-3.26,12.11-9.63,11.14-1.19-.18-2.31-.36-2.96-1.52-1.42-2.56.12-13.63,2.23-15.62,1.7-1.6,3.51-3.38,6.08-2.67,2.78.76,3.58,3.26,4.04,5.79.21,1.14.19,2.32.23,2.89Z"/>
      <path class="cls-8" d="M2405.94,178.04c5.71.12,8.43,2.38,8.39,6.95-.04,4.77-3.47,7.83-9.42,6.88-6.46-1.03-2.26-6.55-2.89-9.9-.74-3.91-.12-4.03,3.92-3.94Z"/>
      <path class="cls-15" d="M2555.91,192.42c-1.87-1.35-5.71,1.76-5.89-2.05-.15-3.34,2.55-5.52,6.36-5.48,3.81.04,6.59,2.25,6.12,5.61-.5,3.65-4.43.6-6.6,1.91Z"/>
      <path class="cls-15" d="M2496.61,192.42c-1.95-1.27-5.73,1.63-5.96-1.92-.21-3.25,2.44-5.63,6.28-5.6,3.75.03,6.62,2.02,6.18,5.53-.49,3.91-4.43.57-6.51,1.99Z"/>
      <path class="cls-5" d="M2429.83,194.85c.06-6.02,3.12-9.94,7.66-9.79,4.43.14,7.22,3.84,7.28,9.65.07,6.03-2.77,10.08-7.2,10.3-4.8.23-7.81-3.71-7.74-10.15Z"/>
      <path class="cls-5" d="M305.47,449.79c.84,3.84-.78,7.37-4.59,9.96-3.04,2.07-5.32,1.19-6.87-1.92-1.3-2.61-1.25-5.47-1.05-8.29.4-5.66,3.48-8.82,8.25-8.55,3.93.22,4.26.84,4.25,8.8Z"/>
      <path class="cls-10" d="M181.66,436.73c1.39,4.31,2.75,8.62,4.18,12.91.65,1.95,0,2.52-2,2.74-7.88.87-8.34.4-6-6.96.93-2.91,1.85-5.82,2.78-8.74.35.02.69.03,1.04.05Z"/>
      <path class="cls-10" d="M271.72,451.96c1.94.15,4.57-.87,4.22,2.85-.26,2.75-4.57,6.31-7.85,6.11-2.45-.15-4.01-1.44-4.08-4.03-.09-3.21,2.63-4.92,7.71-4.93Z"/>
      <path class="cls-8" d="M426.2,451.2c-.09,3.62-.73,7.36-4.96,9.14-3.43,1.45-6.24.27-8.28-2.59-2.7-3.77-2.22-11.49.83-14.55,2.56-2.57,5.56-2.98,8.64-1.1,3.25,1.97,3.74,5.28,3.78,9.1Z"/>
      <path class="cls-18" d="M203.69,190.89c0-1.99-.22-4.02.06-5.97.33-2.27-1.58-5.62,1.27-6.62,3.08-1.08,6.63-.27,9.5,1.7,3.79,2.59,5.25,11.1,3.07,17.14-1.63,4.52-5.67,6.9-10.95,6.94-2.55.02-3.07-1.02-2.98-3.24.13-3.32.03-6.64.03-9.96Z"/>
      <path class="cls-14" d="M353.45,196.42c-.55-3.55.09-7.43,4.24-10.03,3.59-2.25,6.26-1.42,7.81,2.6.99,2.56.91,5.24.7,7.89-.44,5.8-3.25,8.49-8.41,8.26-4.24-.19-4.35-.39-4.35-8.72Z"/>
      <path class="cls-8" d="M424.24,192.91c.95,4.65-.63,8.2-4.41,10.84-2.96,2.07-5.5,1.48-6.89-1.74-1.84-4.27-1.93-8.82.05-13.05,1.61-3.43,4.83-4.43,8.42-3.71,4.95.99,2,5.11,2.84,7.65Z"/>
      <path class="cls-4" d="M472.1,195.88c-.9-3.81.67-7.31,4.65-9.73,3.29-2,5.83-1.05,7.16,2.31,1.7,4.29,1.72,8.76-.25,13.02-1.8,3.89-5.31,4.03-8.91,3.53-3.86-.54-2.37-3.65-2.64-5.87-.1-.81-.02-1.65-.02-3.25Z"/>
      <path class="cls-7" d="M240.13,192.47c-1.84-1.5-5.76,1.84-5.84-2.15-.06-3.28,2.63-5.51,6.47-5.43,3.57.08,6.32,2.05,6.03,5.23-.39,4.31-4.55.76-6.67,2.35Z"/>
      <path class="cls-15" d="M388.76,192.42c-1.96-1.26-5.74,1.61-5.97-1.91-.21-3.25,2.43-5.64,6.27-5.61,3.75.03,6.63,2,6.19,5.52-.48,3.93-4.42.57-6.49,2Z"/>
      <path class="cls-5" d="M321.96,194.77c.08-5.8,2.89-9.56,7.24-9.71,3.98-.13,6.97,2.9,7.62,7.73.84,6.21-1.74,11.23-6.21,12.11-5.11,1-8.75-3.26-8.65-10.13Z"/>
      <path class="cls-15" d="M188.62,316c.63,4.93.35,8.97-1.49,12.76-1.88,3.87-5.27,5.14-8.55,3.44-4.19-2.17-4.48-4.8-.81-7.71,3.45-2.74,6.94-5.43,10.86-8.5Z"/>
      <path class="cls-7" d="M174.12,321.83c-.82-5.12-.47-9.18,1.5-12.94,2.04-3.9,5.95-4.91,9.2-2.63,3.12,2.2,3.17,4.52.12,6.97-3.35,2.68-6.72,5.35-10.82,8.6Z"/>
      <path class="cls-21" d="M240.37,307.31c1.76,5.46,2.99,9.55,4.42,13.58.9,2.55.42,3.58-2.5,3.52-9.36-.18-7.55.41-5.39-6.65.95-3.11,2.04-6.17,3.47-10.45Z"/>
      <path class="cls-7" d="M365.02,322.19c.71,3.11-.74,6.58-4.28,9.22-3.41,2.54-6.28,1.72-7.73-2.33-.97-2.71-1.11-5.54-.68-8.38.76-5.09,3.74-7.8,8.15-7.7,6.07.14,4.13,4.64,4.54,9.19Z"/>
      <path class="cls-15" d="M335.04,326.5c-.05,3.09-4.28,6.57-7.7,6.45-2.46-.09-4.31-1.43-4.12-3.93.37-5.06,4.34-4.99,8.04-5.01,1.87,0,4.3-.65,3.77,2.49Z"/>
      <path class="cls-8" d="M426.2,323.45c-.09,3.49-.77,7.22-5.02,8.96-3.43,1.41-6.24.21-8.26-2.67-2.68-3.82-2.16-11.51.92-14.55,2.58-2.55,5.59-2.91,8.65-1.01,3.22,2,3.7,5.32,3.71,9.28Z"/>
      <path class="cls-15" d="M2088.61,443.81c.39,5.18.23,9.15-1.57,12.84-1.97,4.05-5.59,5.34-8.96,3.35-3.85-2.28-4.03-4.68-.52-7.47,3.46-2.75,6.93-5.47,11.04-8.71Z"/>
      <path class="cls-7" d="M2073.98,449.85c-.77-5.08-.42-9.02,1.36-12.71,1.81-3.76,5.4-5.02,8.63-3.29,3.82,2.05,4.08,4.75.72,7.44-3.34,2.67-6.68,5.33-10.71,8.55Z"/>
      <path class="cls-15" d="M2133.2,450.03c-.44-5.09-.26-9.05,1.59-12.69,1.74-3.43,4.32-5.52,8.4-3.6,4.13,1.94,4.46,4.82.96,7.62-3.44,2.74-6.89,5.46-10.94,8.67Z"/>
      <path class="cls-7" d="M2147.91,443.98c.47,4.62.43,8.22-.9,11.7-.86,2.26-2.25,4.07-4.61,4.87-3.43,1.16-5.69-.57-7.46-3.27-1.92-2.91.9-3.69,2.37-4.92,3.26-2.71,6.65-5.28,10.6-8.39Z"/>
      <path class="cls-24" d="M1459.4,253.98c0-18.98.14-37.96-.11-56.93-.06-4.3,1.25-5.18,5.3-5.11,15.48.24,30.97.2,46.45.02,3.5-.04,4.42.93,4.41,4.42-.12,38.45-.13,76.91,0,115.36.01,3.59-1.09,4.38-4.49,4.34-15.82-.17-31.64-.17-47.45,0-3.31.04-4.2-.92-4.18-4.17.14-19.31.07-38.62.07-57.93Z"/>
      <path class="cls-24" d="M1785.95,253.5c0-18.98.12-37.95-.1-56.93-.04-3.83,1.07-4.67,4.73-4.62,15.65.21,31.3.2,46.95,0,3.5-.04,4.43.9,4.42,4.41-.13,38.45-.13,76.91,0,115.36.01,3.57-1.03,4.4-4.46,4.36-15.82-.18-31.63-.17-47.45,0-3.26.03-4.19-.87-4.16-4.15.15-19.47.07-38.95.07-58.43Z"/>
      <path class="cls-17" d="M1696.96,286.02c0-8.82.11-17.64-.06-26.45-.06-2.88.87-3.63,3.67-3.61,16.31.12,32.61.1,48.92.01,2.53-.01,3.46.62,3.44,3.32-.11,17.8-.11,35.6,0,53.4.02,2.66-.83,3.37-3.41,3.35-16.31-.1-32.62-.15-48.92.03-3.37.04-3.73-1.33-3.69-4.1.14-8.65.05-17.3.05-25.95Z"/>
      <path class="cls-17" d="M1723.02,222.02c0,8.66-.09,17.32.05,25.98.05,2.8-.34,4.24-3.71,4.09-6.32-.28-12.66-.18-18.99-.03-2.51.06-3.49-.56-3.47-3.3.11-17.82.11-35.64,0-53.46-.02-2.73.94-3.37,3.46-3.31,6.33.15,12.67.25,18.99-.03,3.36-.15,3.77,1.27,3.72,4.08-.15,8.66-.05,17.32-.05,25.98Z"/>
      <path class="cls-16" d="M1307.38,254.27c0,19.15-.04,38.29.05,57.44.01,2.92-.29,4.43-3.93,4.38-15.98-.22-31.97-.17-47.96-.03-3.02.03-3.96-.72-3.95-3.85.1-38.79.1-77.59,0-116.38,0-3.13.94-3.88,3.95-3.85,15.98.14,31.97.19,47.96-.03,3.64-.05,3.95,1.46,3.93,4.38-.09,19.31-.05,38.63-.05,57.94Z"/>
      <path class="cls-6" d="M1510.96,253.98c0,17.97-.08,35.94.07,53.91.03,3.23-.82,4.23-4.13,4.18-13.14-.19-26.29-.15-39.44-.02-2.8.03-3.64-.76-3.63-3.6.09-36.27.09-72.54,0-108.81,0-2.74.65-3.71,3.55-3.67,13.31.15,26.63.19,39.94-.02,3.39-.05,3.69,1.36,3.68,4.12-.09,17.97-.05,35.94-.05,53.91Z"/>
      <path class="cls-6" d="M1790.37,254.03c0-17.81.12-35.63-.09-53.44-.05-3.83,1.07-4.7,4.76-4.64,12.82.23,25.64.18,38.46.02,3.02-.04,3.96.71,3.95,3.84-.11,36.13-.11,72.26,0,108.39,0,3.1-.89,3.9-3.93,3.86-12.99-.17-25.98-.22-38.96.02-3.78.07-4.27-1.37-4.25-4.62.14-17.81.07-35.63.07-53.44Z"/>
      <path class="cls-6" d="M1701.37,285.65c0-7.32.1-14.65-.05-21.97-.06-2.73.66-3.76,3.59-3.72,13.31.15,26.63.15,39.95,0,2.93-.03,3.6.95,3.57,3.7-.12,14.98-.1,29.96-.01,44.93.01,2.48-.55,3.49-3.29,3.47-13.48-.13-26.97-.12-40.45,0-2.67.02-3.41-.89-3.36-3.44.13-7.65.05-15.31.05-22.97Z"/>
      <path class="cls-8" d="M1718.61,222.54c0,7.31-.12,14.63.06,21.93.07,2.88-.93,3.56-3.7,3.62-13.6.29-13.6.37-13.6-13.11,0-11.63.12-23.27-.07-34.89-.05-3.31.96-4.37,4.22-4.11,4.13.33,9.62-1.35,12.08.73,2.89,2.44.81,8.11.97,12.37.17,4.48.04,8.97.04,13.46Z"/>
      <path class="cls-6" d="M1302.97,254.02c0,17.81-.12,35.62.1,53.42.05,3.79-1,4.72-4.71,4.65-12.81-.24-25.63-.18-38.45-.02-3.03.04-3.95-.74-3.94-3.87.11-36.11.11-72.23,0-108.35,0-3.13.9-3.91,3.93-3.88,12.98.16,25.97.17,38.95,0,3.23-.04,4.22.81,4.19,4.13-.16,17.97-.08,35.95-.08,53.92Z"/>
    </g>
  </g>
</svg>